M48
;Layer_Color=9474304
;FILE_FORMAT=4:3
METRIC,TZ
;TYPE=PLATED
T01F00S00C0.200
T02F00S00C0.300
T03F00S00C0.762
T04F00S00C0.800
T05F00S00C1.320
T06F00S00C1.475
;TYPE=NON_PLATED
T08F00S00C4.300
%
T01
X56750Y25750
X57250
X57750
X58250
X58125Y32500
X56000
X56500Y34400
X57100Y35500
X55900
X56500Y36600
T02
X26375Y10875
X27125
Y11625
Y12375
X26375
Y11625
Y13125
X27125
Y13875
X26375
Y14625
X27125
Y15375
X26375
Y18250
X27125
Y19000
X26375
Y19750
X27125
Y20500
X26375
Y21250
X27125
Y22000
X26375
Y22750
X27125
Y26000
X26375
Y26750
Y27500
X27125
Y26750
Y28250
X26375
Y29000
X27125
Y29750
X26375
Y30500
X27125
Y33375
X26375
Y34125
Y34875
X27125
Y34125
Y35625
X26375
Y36375
X27125
Y37125
X26375
Y37875
X27125
X49250Y37875
Y37250
Y36125
Y35500
Y34875
Y38500
X59500Y38000
Y33000
X64625Y32875
Y33500
Y34125
X64500Y36000
X63875Y27250
Y26625
Y26000
X63625Y23750
Y23125
Y22500
X63000
X62375
X61750
Y23125
X62375
X63000
Y23750
X62375
X61750
X60625Y23625
Y23000
X60000
X59375
Y23625
X60000
X54625Y31375
X111750Y32750
X112500
Y33500
X111750
Y34250
X112500
Y35000
X111750
Y35750
X112500
Y36500
X111750
Y37250
X112500
Y29500
X111750
Y28750
X112500
Y28000
Y27250
X111750
Y28000
Y26500
Y25750
X112500
Y26500
Y25000
X111750
Y22125
X112500
Y21375
X111750
Y20625
Y19875
X112500
Y20625
Y19125
Y18375
X111750
Y19125
Y17625
X112500
X121375Y17625
X122125
Y18375
X121375
Y19125
X122125
Y19875
X121375
Y20625
X122125
Y21375
X121375
Y22125
X122125
Y25500
X121375
Y26250
X122125
Y27000
X121375
Y27750
X122125
Y28500
X121375
Y29250
X122125
Y30000
X121375
Y33125
X122125
Y33875
X121375
Y34625
X122125
Y35375
X121375
Y36125
X122125
Y36875
X121375
Y37625
X122125
Y40500
X121375
Y41250
X122125
Y42000
X121375
Y42750
X122125
Y43500
X121375
Y44250
X122125
Y45000
X121375
Y48250
X122125
Y49000
X121375
Y49750
X122125
Y50500
X121375
Y51250
X122125
Y52000
X121375
Y52750
X122125
Y55625
X121375
Y56375
X122125
Y57125
X121375
Y57875
X122125
Y58625
X121375
Y59375
X122125
Y60125
X121375
X112500Y60125
X111750
Y59375
X112500
Y58625
Y57875
X111750
Y58625
Y57125
Y56375
X112500
Y57125
Y55625
X111750
Y52250
X112500
Y51500
X111750
Y50750
Y50000
X112500
Y50750
Y49250
Y48500
X111750
Y49250
Y47750
X112500
Y44625
X111750
Y43875
X112500
Y43125
Y42375
X111750
Y43125
Y41625
Y40875
X112500
Y41625
Y40125
X111750
X61375Y42875
Y43500
X60750
Y44125
X61375
X60125
X59500
Y43500
Y42875
X60125
X60750
X60125Y43500
X54625Y42750
X54000
X53375
X27125Y42500
X26375
Y41750
X27125
Y41000
X26375
Y43250
Y44000
X27125
Y43250
Y44750
X26375
Y45500
X27125
Y48875
X26375
Y49625
Y50375
X27125
Y49625
Y51125
X26375
Y51875
X27125
Y52625
X26375
Y53375
X27125
T03
X23500Y2625
X27389
X31278
X35167
X39056
X42944
X46833
X50722
X54611
X58500
X62389
X66278
X70167
X74056
X77944
X81833
X85722
X89611
X93500
X97389
X101278
X105167
X109056
X112944
X116833
X120722
X124611
X128500
X125750Y67625
X122005
X118260
X114515
X110771
X107026
X103281
X99536
X95791
X92046
X88301
X84557
X80812
X77067
X73322
X69577
X65832
X62087
X58343
X54598
X50853
X47108
X43363
X39618
X35873
X32129
X28384
X24639
T04
X115276Y11250
X118776
X33401Y60000
X29901
T05
X42000Y16000
Y18550
Y21100
Y49450
Y52000
Y54550
T06
X8650Y13650
Y16190
X11190
X13730
X16270
X18810
Y18730
X16270
X13730
X11190
Y21270
X13730
X16270
X18810
Y23810
X16270
X13730
X11190
X8650
Y21270
Y18730
Y26350
X11190
X13730
X16270
X18810
X21350
Y23810
Y21270
Y18730
Y16190
Y13650
X18810
X16270
X13730
X11190
X128650
Y16190
X131190
X133730
X136270
X138810
Y18730
X136270
X133730
X131190
Y21270
X133730
X136270
X138810
Y23810
X136270
X133730
X131190
X128650
Y21270
Y18730
Y26350
X131190
X133730
X136270
X138810
X141350
Y23810
Y21270
Y18730
Y16190
Y13650
X138810
X136270
X133730
X131190
Y43650
Y46190
X133730
X136270
X138810
Y48730
X136270
X133730
X131190
Y51270
X133730
X136270
X138810
Y53810
X136270
X133730
X131190
X128650
Y51270
Y48730
Y46190
Y43650
X133730
X136270
X138810
X141350
Y46190
Y48730
Y51270
Y53810
Y56350
X138810
X136270
X133730
X131190
X128650
X21350
Y53810
Y51270
Y48730
Y46190
Y43650
X18810
X16270
X13730
X11190
X8650
Y46190
Y48730
Y51270
Y53810
Y56350
X11190
X13730
X16270
X18810
Y53810
X16270
X13730
X11190
Y51270
X13730
X16270
X18810
Y48730
X16270
X13730
X11190
Y46190
X13730
X16270
X18810
T08
X7000Y7000
X75000
X143000
Y63000
X75000
X7000
M30
