G04*
G04 #@! TF.GenerationSoftware,Altium Limited,Altium Designer,24.9.1 (31)*
G04*
G04 Layer_Color=16711935*
%FSLAX44Y44*%
%MOMM*%
G71*
G04*
G04 #@! TF.SameCoordinates,40ED6ED8-22EE-4EAC-9375-A9E50FD8206E*
G04*
G04*
G04 #@! TF.FilePolarity,Negative*
G04*
G01*
G75*
%ADD40C,1.4500*%
G04:AMPARAMS|DCode=41|XSize=1.45mm|YSize=1.45mm|CornerRadius=0.4mm|HoleSize=0mm|Usage=FLASHONLY|Rotation=0.000|XOffset=0mm|YOffset=0mm|HoleType=Round|Shape=RoundedRectangle|*
%AMROUNDEDRECTD41*
21,1,1.4500,0.6500,0,0,0.0*
21,1,0.6500,1.4500,0,0,0.0*
1,1,0.8000,0.3250,-0.3250*
1,1,0.8000,-0.3250,-0.3250*
1,1,0.8000,-0.3250,0.3250*
1,1,0.8000,0.3250,0.3250*
%
%ADD41ROUNDEDRECTD41*%
%ADD42C,1.6740*%
%ADD43C,1.9500*%
%ADD44C,2.1300*%
%ADD45R,2.1300X2.1300*%
%ADD46O,5.0500X9.9500*%
%ADD47C,0.5500*%
%ADD48C,0.7500*%
%ADD49C,0.5000*%
D40*
X299010Y600000D02*
D03*
X1187760Y112500D02*
D03*
D41*
X334010Y600000D02*
D03*
X1152760Y112500D02*
D03*
D42*
X701667Y26250D02*
D03*
X623889D02*
D03*
X468333D02*
D03*
X429445D02*
D03*
X585000D02*
D03*
X779445D02*
D03*
X818334D02*
D03*
X740556D02*
D03*
X662778D02*
D03*
X546111D02*
D03*
X507222D02*
D03*
X390556D02*
D03*
X351667D02*
D03*
X312778D02*
D03*
X273889D02*
D03*
X235000D02*
D03*
X857222D02*
D03*
X935000D02*
D03*
X1012778D02*
D03*
X973889D02*
D03*
X1168334D02*
D03*
X1129445D02*
D03*
X1246111D02*
D03*
X1207223D02*
D03*
X1090556D02*
D03*
X1051667D02*
D03*
X1090556D02*
D03*
X1285000D02*
D03*
X896111D02*
D03*
X883015Y676250D02*
D03*
X1257500D02*
D03*
X1070257D02*
D03*
X1032809D02*
D03*
X1070257D02*
D03*
X1182603D02*
D03*
X1220052D02*
D03*
X1107706D02*
D03*
X1145154D02*
D03*
X957912D02*
D03*
X995360D02*
D03*
X920463D02*
D03*
X845566D02*
D03*
X283837D02*
D03*
X246389D02*
D03*
X321286D02*
D03*
X358735D02*
D03*
X396183D02*
D03*
X508529D02*
D03*
X545977D02*
D03*
X658323D02*
D03*
X733220D02*
D03*
X808117D02*
D03*
X770669D02*
D03*
X583426D02*
D03*
X433632D02*
D03*
X471080D02*
D03*
X620874D02*
D03*
X695772D02*
D03*
X750000Y70000D02*
D03*
Y630000D02*
D03*
X1430000D02*
D03*
Y70000D02*
D03*
X70000Y630000D02*
D03*
Y70000D02*
D03*
D43*
X137300Y436500D02*
D03*
X111900D02*
D03*
X86500D02*
D03*
X162700D02*
D03*
X188100D02*
D03*
X213500D02*
D03*
Y461900D02*
D03*
Y487300D02*
D03*
Y512700D02*
D03*
Y538100D02*
D03*
Y563500D02*
D03*
X188100D02*
D03*
X162700D02*
D03*
X137300D02*
D03*
X111900D02*
D03*
X86500D02*
D03*
Y538100D02*
D03*
Y512700D02*
D03*
Y487300D02*
D03*
Y461900D02*
D03*
X111900Y538100D02*
D03*
X137300D02*
D03*
X162700D02*
D03*
X188100D02*
D03*
Y512700D02*
D03*
X162700D02*
D03*
X137300D02*
D03*
X111900D02*
D03*
Y487300D02*
D03*
X137300D02*
D03*
X162700D02*
D03*
X188100D02*
D03*
Y461900D02*
D03*
X162700D02*
D03*
X137300D02*
D03*
X111900D02*
D03*
Y161900D02*
D03*
X137300D02*
D03*
X162700D02*
D03*
X188100D02*
D03*
Y187300D02*
D03*
X162700D02*
D03*
X137300D02*
D03*
X111900D02*
D03*
Y212700D02*
D03*
X137300D02*
D03*
X162700D02*
D03*
X188100D02*
D03*
Y238100D02*
D03*
X162700D02*
D03*
X137300D02*
D03*
X111900D02*
D03*
X86500Y161900D02*
D03*
Y187300D02*
D03*
Y212700D02*
D03*
Y238100D02*
D03*
Y263500D02*
D03*
X111900D02*
D03*
X137300D02*
D03*
X162700D02*
D03*
X188100D02*
D03*
X213500D02*
D03*
Y238100D02*
D03*
Y212700D02*
D03*
Y187300D02*
D03*
Y161900D02*
D03*
Y136500D02*
D03*
X188100D02*
D03*
X162700D02*
D03*
X86500D02*
D03*
X111900D02*
D03*
X137300D02*
D03*
X1311900Y461900D02*
D03*
X1337300D02*
D03*
X1362700D02*
D03*
X1388100D02*
D03*
Y487300D02*
D03*
X1362700D02*
D03*
X1337300D02*
D03*
X1311900D02*
D03*
Y512700D02*
D03*
X1337300D02*
D03*
X1362700D02*
D03*
X1388100D02*
D03*
Y538100D02*
D03*
X1362700D02*
D03*
X1337300D02*
D03*
X1311900D02*
D03*
X1286500Y461900D02*
D03*
Y487300D02*
D03*
Y512700D02*
D03*
Y538100D02*
D03*
Y563500D02*
D03*
X1311900D02*
D03*
X1337300D02*
D03*
X1362700D02*
D03*
X1388100D02*
D03*
X1413500D02*
D03*
Y538100D02*
D03*
Y512700D02*
D03*
Y487300D02*
D03*
Y461900D02*
D03*
Y436500D02*
D03*
X1388100D02*
D03*
X1362700D02*
D03*
X1286500D02*
D03*
X1311900D02*
D03*
X1337300D02*
D03*
X1311900Y161900D02*
D03*
X1337300D02*
D03*
X1362700D02*
D03*
X1388100D02*
D03*
Y187300D02*
D03*
X1362700D02*
D03*
X1337300D02*
D03*
X1311900D02*
D03*
Y212700D02*
D03*
X1337300D02*
D03*
X1362700D02*
D03*
X1388100D02*
D03*
Y238100D02*
D03*
X1362700D02*
D03*
X1337300D02*
D03*
X1311900D02*
D03*
X1286500Y161900D02*
D03*
Y187300D02*
D03*
Y212700D02*
D03*
Y238100D02*
D03*
Y263500D02*
D03*
X1311900D02*
D03*
X1337300D02*
D03*
X1362700D02*
D03*
X1388100D02*
D03*
X1413500D02*
D03*
Y238100D02*
D03*
Y212700D02*
D03*
Y187300D02*
D03*
Y161900D02*
D03*
Y136500D02*
D03*
X1388100D02*
D03*
X1362700D02*
D03*
X1286500D02*
D03*
X1311900D02*
D03*
X1337300D02*
D03*
D44*
X420000Y160000D02*
D03*
Y185500D02*
D03*
Y494500D02*
D03*
Y520000D02*
D03*
D45*
Y211000D02*
D03*
Y545500D02*
D03*
D46*
X1030000Y450000D02*
D03*
X830000Y250000D02*
D03*
D47*
X581250Y325000D02*
D03*
X567500Y257500D02*
D03*
X582500D02*
D03*
X577500D02*
D03*
X572500D02*
D03*
X560000Y325000D02*
D03*
D48*
X1221250Y176250D02*
D03*
X1213750D02*
D03*
X1125000Y176250D02*
D03*
X1117500D02*
D03*
X1213750Y183750D02*
D03*
X1221250D02*
D03*
X1117500Y183750D02*
D03*
X1125000D02*
D03*
X1221250Y191250D02*
D03*
X1117500D02*
D03*
X1125000D02*
D03*
X1213750D02*
D03*
Y198750D02*
D03*
X1221250D02*
D03*
X1117500Y198750D02*
D03*
X1125000D02*
D03*
X1117500Y206250D02*
D03*
X1125000D02*
D03*
X1221250D02*
D03*
X1213750D02*
D03*
Y213750D02*
D03*
X1221250D02*
D03*
X1125000Y213750D02*
D03*
X1117500D02*
D03*
X1213750Y221250D02*
D03*
X1221250D02*
D03*
X1125000Y221250D02*
D03*
X1117500D02*
D03*
X1125000Y250000D02*
D03*
X1117500D02*
D03*
X1213750Y255000D02*
D03*
X1221250D02*
D03*
X1125000Y257500D02*
D03*
X1117500D02*
D03*
X1213750Y262500D02*
D03*
X1221250D02*
D03*
X1117500Y265000D02*
D03*
X1125000D02*
D03*
X1221250Y270000D02*
D03*
X1213750D02*
D03*
X1117500Y272500D02*
D03*
X1125000D02*
D03*
X1221250Y277500D02*
D03*
X1213750D02*
D03*
X1117500Y280000D02*
D03*
X1125000D02*
D03*
X1213750Y285000D02*
D03*
X1221250D02*
D03*
X1125000Y287500D02*
D03*
X1117500D02*
D03*
X1221250Y292500D02*
D03*
X1213750D02*
D03*
X1125000Y295000D02*
D03*
X1117500D02*
D03*
X1221250Y300000D02*
D03*
X1213750D02*
D03*
X1125000Y327500D02*
D03*
X1117500D02*
D03*
X1221250Y331250D02*
D03*
X1213750D02*
D03*
X1125000Y335000D02*
D03*
X1117500D02*
D03*
X1221250Y338750D02*
D03*
X1213750D02*
D03*
X1125000Y342500D02*
D03*
X1117500D02*
D03*
X1213750Y346250D02*
D03*
X1221250D02*
D03*
X1125000Y350000D02*
D03*
X1117500D02*
D03*
X1213750Y353750D02*
D03*
X1221250D02*
D03*
X1125000Y357500D02*
D03*
X1117500D02*
D03*
X1221250Y361250D02*
D03*
X1213750D02*
D03*
X1125000Y365000D02*
D03*
X1117500D02*
D03*
X1221250Y368750D02*
D03*
X1213750D02*
D03*
X1125000Y372500D02*
D03*
X1117500D02*
D03*
X1213750Y376250D02*
D03*
X1221250D02*
D03*
X1125000Y401250D02*
D03*
X1117500D02*
D03*
X1213750Y405000D02*
D03*
X1221250D02*
D03*
X1125000Y408750D02*
D03*
X1117500D02*
D03*
X1221250Y412500D02*
D03*
X1213750D02*
D03*
X1117500Y416250D02*
D03*
X1125000D02*
D03*
X1213750Y420000D02*
D03*
X1221250D02*
D03*
X1125000Y423750D02*
D03*
X1117500D02*
D03*
X1221250Y427500D02*
D03*
X1213750D02*
D03*
X1117500Y431250D02*
D03*
X1125000D02*
D03*
X1213750Y435000D02*
D03*
X1221250D02*
D03*
X1125000Y438750D02*
D03*
X1117500D02*
D03*
X1221250Y442500D02*
D03*
X1213750D02*
D03*
X1125000Y446250D02*
D03*
X1117500D02*
D03*
X1213750Y450000D02*
D03*
X1221250D02*
D03*
X1125000Y477500D02*
D03*
X1117500D02*
D03*
X1213750Y482500D02*
D03*
X1221250D02*
D03*
X1125000Y485000D02*
D03*
X1117500D02*
D03*
X1213750Y490000D02*
D03*
X1221250D02*
D03*
X1125000Y492500D02*
D03*
X1117500D02*
D03*
X1213750Y497500D02*
D03*
X1221250D02*
D03*
X1117500Y500000D02*
D03*
X1125000D02*
D03*
X1213750Y505000D02*
D03*
X1221250D02*
D03*
X1117500Y507500D02*
D03*
X1125000D02*
D03*
X1213750Y512500D02*
D03*
X1221250D02*
D03*
X1117500Y515000D02*
D03*
X1125000D02*
D03*
X1213750Y520000D02*
D03*
X1221250D02*
D03*
X1117500Y522500D02*
D03*
X1125000D02*
D03*
X1221250Y527500D02*
D03*
X1213750D02*
D03*
X1221250Y556250D02*
D03*
X1213750D02*
D03*
X1117500Y556250D02*
D03*
X1125000D02*
D03*
X1221250Y563750D02*
D03*
X1213750D02*
D03*
X1125000Y563750D02*
D03*
X1117500D02*
D03*
X1213750Y571250D02*
D03*
X1117500D02*
D03*
X1125000D02*
D03*
X1221250D02*
D03*
X1213750Y578750D02*
D03*
X1221250D02*
D03*
X1117500Y578750D02*
D03*
X1125000D02*
D03*
X1221250Y586250D02*
D03*
X1125000D02*
D03*
X1117500D02*
D03*
X1213750D02*
D03*
Y593750D02*
D03*
X1221250D02*
D03*
X1117500Y593750D02*
D03*
X1125000D02*
D03*
X1221250Y601250D02*
D03*
X1213750D02*
D03*
X1125000Y601250D02*
D03*
X1117500D02*
D03*
X533750Y427500D02*
D03*
X540000D02*
D03*
X546250D02*
D03*
X492500Y372500D02*
D03*
Y378750D02*
D03*
Y385000D02*
D03*
Y348750D02*
D03*
Y355000D02*
D03*
Y361250D02*
D03*
X638750Y272500D02*
D03*
Y266250D02*
D03*
Y260000D02*
D03*
X646250Y341250D02*
D03*
Y335000D02*
D03*
Y328750D02*
D03*
X607500Y435000D02*
D03*
X595000Y441250D02*
D03*
Y435000D02*
D03*
X613750D02*
D03*
Y428750D02*
D03*
X607500Y441250D02*
D03*
X613750D02*
D03*
X595000Y428750D02*
D03*
X601250Y441250D02*
D03*
Y428750D02*
D03*
X607500D02*
D03*
X601250Y435000D02*
D03*
X271250Y108750D02*
D03*
Y116250D02*
D03*
Y123750D02*
D03*
Y131250D02*
D03*
Y138750D02*
D03*
Y146250D02*
D03*
Y153750D02*
D03*
X263750D02*
D03*
Y146250D02*
D03*
Y138750D02*
D03*
Y131250D02*
D03*
Y123750D02*
D03*
Y116250D02*
D03*
Y108750D02*
D03*
Y182500D02*
D03*
Y190000D02*
D03*
Y197500D02*
D03*
Y205000D02*
D03*
Y212500D02*
D03*
Y220000D02*
D03*
Y227500D02*
D03*
X271250D02*
D03*
Y220000D02*
D03*
Y212500D02*
D03*
Y205000D02*
D03*
Y197500D02*
D03*
Y190000D02*
D03*
Y182500D02*
D03*
X263750Y260000D02*
D03*
Y267500D02*
D03*
Y275000D02*
D03*
Y282500D02*
D03*
Y290000D02*
D03*
Y297500D02*
D03*
Y305000D02*
D03*
X271250D02*
D03*
Y297500D02*
D03*
Y290000D02*
D03*
Y282500D02*
D03*
Y275000D02*
D03*
Y267500D02*
D03*
Y260000D02*
D03*
X263750Y333750D02*
D03*
Y341250D02*
D03*
Y348750D02*
D03*
Y356250D02*
D03*
Y363750D02*
D03*
Y371250D02*
D03*
Y378750D02*
D03*
X271250D02*
D03*
Y371250D02*
D03*
Y363750D02*
D03*
Y356250D02*
D03*
Y348750D02*
D03*
Y341250D02*
D03*
Y333750D02*
D03*
X263750Y410000D02*
D03*
Y417500D02*
D03*
Y425000D02*
D03*
Y432500D02*
D03*
Y440000D02*
D03*
Y447500D02*
D03*
Y455000D02*
D03*
X271250D02*
D03*
Y447500D02*
D03*
Y440000D02*
D03*
Y432500D02*
D03*
Y425000D02*
D03*
Y417500D02*
D03*
Y410000D02*
D03*
X263750Y488750D02*
D03*
Y496250D02*
D03*
Y503750D02*
D03*
Y511250D02*
D03*
Y518750D02*
D03*
Y526250D02*
D03*
Y533750D02*
D03*
X271250D02*
D03*
Y526250D02*
D03*
Y518750D02*
D03*
Y511250D02*
D03*
Y503750D02*
D03*
Y496250D02*
D03*
Y488750D02*
D03*
X606250Y230000D02*
D03*
X600000D02*
D03*
X593750D02*
D03*
X606250Y236250D02*
D03*
X593750D02*
D03*
X600000D02*
D03*
X617500Y225000D02*
D03*
X623750D02*
D03*
X630000D02*
D03*
X636250D02*
D03*
X617500Y231250D02*
D03*
X623750D02*
D03*
X630000D02*
D03*
X636250D02*
D03*
Y237500D02*
D03*
X630000D02*
D03*
X623750D02*
D03*
X617500D02*
D03*
X546250Y313750D02*
D03*
X645000Y360000D02*
D03*
X595000Y330000D02*
D03*
Y380000D02*
D03*
D49*
X565000Y344000D02*
D03*
Y366000D02*
D03*
X571000Y355000D02*
D03*
X559000D02*
D03*
M02*
