G04*
G04 #@! TF.GenerationSoftware,Altium Limited,Altium Designer,24.9.1 (31)*
G04*
G04 Layer_Physical_Order=1*
G04 Layer_Color=255*
%FSLAX44Y44*%
%MOMM*%
G71*
G04*
G04 #@! TF.SameCoordinates,17614F27-4444-49F6-8A81-6198569D84EC*
G04*
G04*
G04 #@! TF.FilePolarity,Positive*
G04*
G01*
G75*
%ADD14C,0.2540*%
%ADD15C,0.5000*%
%ADD16R,2.0800X4.7800*%
%ADD17R,0.8065X1.3082*%
%ADD18R,1.4500X1.2000*%
%ADD19R,1.4621X1.3546*%
%ADD20R,0.9500X1.3500*%
%ADD21R,1.3621X1.1546*%
%ADD22R,1.4000X1.5000*%
%ADD23R,1.4500X1.0500*%
%ADD24R,1.2606X0.9578*%
%ADD25R,0.9546X1.2621*%
%ADD26R,1.5500X1.5000*%
%ADD27R,1.2500X0.8000*%
%ADD28R,1.3500X0.9500*%
%ADD29R,1.0000X1.3500*%
%ADD30R,0.9500X1.4000*%
G04:AMPARAMS|DCode=31|XSize=0.25mm|YSize=0.6mm|CornerRadius=0.05mm|HoleSize=0mm|Usage=FLASHONLY|Rotation=0.000|XOffset=0mm|YOffset=0mm|HoleType=Round|Shape=RoundedRectangle|*
%AMROUNDEDRECTD31*
21,1,0.2500,0.5000,0,0,0.0*
21,1,0.1500,0.6000,0,0,0.0*
1,1,0.1000,0.0750,-0.2500*
1,1,0.1000,-0.0750,-0.2500*
1,1,0.1000,-0.0750,0.2500*
1,1,0.1000,0.0750,0.2500*
%
%ADD31ROUNDEDRECTD31*%
G04:AMPARAMS|DCode=32|XSize=0.6mm|YSize=0.25mm|CornerRadius=0.05mm|HoleSize=0mm|Usage=FLASHONLY|Rotation=0.000|XOffset=0mm|YOffset=0mm|HoleType=Round|Shape=RoundedRectangle|*
%AMROUNDEDRECTD32*
21,1,0.6000,0.1500,0,0,0.0*
21,1,0.5000,0.2500,0,0,0.0*
1,1,0.1000,0.2500,-0.0750*
1,1,0.1000,-0.2500,-0.0750*
1,1,0.1000,-0.2500,0.0750*
1,1,0.1000,0.2500,0.0750*
%
%ADD32ROUNDEDRECTD32*%
%ADD33R,1.3546X1.4621*%
G04:AMPARAMS|DCode=39|XSize=1.7mm|YSize=2.7mm|CornerRadius=0.051mm|HoleSize=0mm|Usage=FLASHONLY|Rotation=0.000|XOffset=0mm|YOffset=0mm|HoleType=Round|Shape=RoundedRectangle|*
%AMROUNDEDRECTD39*
21,1,1.7000,2.5980,0,0,0.0*
21,1,1.5980,2.7000,0,0,0.0*
1,1,0.1020,0.7990,-1.2990*
1,1,0.1020,-0.7990,-1.2990*
1,1,0.1020,-0.7990,1.2990*
1,1,0.1020,0.7990,1.2990*
%
%ADD39ROUNDEDRECTD39*%
%ADD49C,0.5000*%
%ADD50C,1.0000*%
%ADD51R,4.2550X5.4290*%
%ADD52R,2.5000X2.1250*%
%ADD53R,2.1250X2.2500*%
%ADD54R,2.3750X4.5000*%
%ADD55R,2.5000X2.2500*%
%ADD56R,2.3750X1.8750*%
%ADD57C,1.3000*%
G04:AMPARAMS|DCode=58|XSize=1.3mm|YSize=1.3mm|CornerRadius=0.325mm|HoleSize=0mm|Usage=FLASHONLY|Rotation=0.000|XOffset=0mm|YOffset=0mm|HoleType=Round|Shape=RoundedRectangle|*
%AMROUNDEDRECTD58*
21,1,1.3000,0.6500,0,0,0.0*
21,1,0.6500,1.3000,0,0,0.0*
1,1,0.6500,0.3250,-0.3250*
1,1,0.6500,-0.3250,-0.3250*
1,1,0.6500,-0.3250,0.3250*
1,1,0.6500,0.3250,0.3250*
%
%ADD58ROUNDEDRECTD58*%
%ADD59C,1.5240*%
%ADD60C,1.8000*%
%ADD61C,1.9800*%
%ADD62R,1.9800X1.9800*%
%ADD63O,4.9000X9.8000*%
%ADD64C,0.4000*%
%ADD65C,0.6000*%
G36*
X1459440Y697204D02*
X1465513Y695577D01*
X1471322Y693171D01*
X1476766Y690027D01*
X1481754Y686200D01*
X1486200Y681754D01*
X1490027Y676766D01*
X1493171Y671322D01*
X1495577Y665513D01*
X1497204Y659440D01*
X1498024Y653207D01*
Y650063D01*
Y50064D01*
Y46920D01*
X1497204Y40687D01*
X1495577Y34614D01*
X1493171Y28805D01*
X1490027Y23361D01*
X1486200Y18373D01*
X1481754Y13927D01*
X1476766Y10100D01*
X1471322Y6956D01*
X1465513Y4550D01*
X1459440Y2923D01*
X1453207Y2103D01*
X46920D01*
X40687Y2923D01*
X34614Y4550D01*
X28805Y6956D01*
X23361Y10100D01*
X18373Y13927D01*
X13927Y18373D01*
X10100Y23361D01*
X6956Y28805D01*
X4550Y34614D01*
X2923Y40687D01*
X2103Y46920D01*
Y50064D01*
Y650063D01*
Y653207D01*
X2923Y659440D01*
X4550Y665513D01*
X6956Y671322D01*
X10100Y676766D01*
X13927Y681754D01*
X18373Y686200D01*
X23361Y690027D01*
X28805Y693171D01*
X34614Y695577D01*
X40687Y697204D01*
X46920Y698024D01*
X1453207D01*
X1459440Y697204D01*
D02*
G37*
%LPC*%
G36*
X1258637Y684886D02*
X1256363D01*
X1254167Y684297D01*
X1252197Y683160D01*
X1250590Y681553D01*
X1249453Y679583D01*
X1248864Y677387D01*
Y675113D01*
X1249453Y672917D01*
X1250590Y670947D01*
X1252197Y669340D01*
X1254167Y668203D01*
X1256363Y667614D01*
X1258637D01*
X1260834Y668203D01*
X1262803Y669340D01*
X1264411Y670947D01*
X1265548Y672917D01*
X1266136Y675113D01*
Y677387D01*
X1265548Y679583D01*
X1264411Y681553D01*
X1262803Y683160D01*
X1260834Y684297D01*
X1258637Y684886D01*
D02*
G37*
G36*
X1221189D02*
X1218915D01*
X1216718Y684297D01*
X1214749Y683160D01*
X1213141Y681553D01*
X1212004Y679583D01*
X1211416Y677387D01*
Y675113D01*
X1212004Y672917D01*
X1213141Y670947D01*
X1214749Y669340D01*
X1216718Y668203D01*
X1218915Y667614D01*
X1221189D01*
X1223385Y668203D01*
X1225354Y669340D01*
X1226962Y670947D01*
X1228099Y672917D01*
X1228688Y675113D01*
Y677387D01*
X1228099Y679583D01*
X1226962Y681553D01*
X1225354Y683160D01*
X1223385Y684297D01*
X1221189Y684886D01*
D02*
G37*
G36*
X1183740D02*
X1181466D01*
X1179270Y684297D01*
X1177300Y683160D01*
X1175693Y681553D01*
X1174556Y679583D01*
X1173967Y677387D01*
Y675113D01*
X1174556Y672917D01*
X1175693Y670947D01*
X1177300Y669340D01*
X1179270Y668203D01*
X1181466Y667614D01*
X1183740D01*
X1185936Y668203D01*
X1187906Y669340D01*
X1189513Y670947D01*
X1190650Y672917D01*
X1191239Y675113D01*
Y677387D01*
X1190650Y679583D01*
X1189513Y681553D01*
X1187906Y683160D01*
X1185936Y684297D01*
X1183740Y684886D01*
D02*
G37*
G36*
X1146291D02*
X1144017D01*
X1141821Y684297D01*
X1139852Y683160D01*
X1138244Y681553D01*
X1137107Y679583D01*
X1136518Y677387D01*
Y675113D01*
X1137107Y672917D01*
X1138244Y670947D01*
X1139852Y669340D01*
X1141821Y668203D01*
X1144017Y667614D01*
X1146291D01*
X1148488Y668203D01*
X1150457Y669340D01*
X1152065Y670947D01*
X1153202Y672917D01*
X1153791Y675113D01*
Y677387D01*
X1153202Y679583D01*
X1152065Y681553D01*
X1150457Y683160D01*
X1148488Y684297D01*
X1146291Y684886D01*
D02*
G37*
G36*
X1108843D02*
X1106569D01*
X1104372Y684297D01*
X1102403Y683160D01*
X1100795Y681553D01*
X1099658Y679583D01*
X1099070Y677387D01*
Y675113D01*
X1099658Y672917D01*
X1100795Y670947D01*
X1102403Y669340D01*
X1104372Y668203D01*
X1106569Y667614D01*
X1108843D01*
X1111039Y668203D01*
X1113008Y669340D01*
X1114616Y670947D01*
X1115753Y672917D01*
X1116342Y675113D01*
Y677387D01*
X1115753Y679583D01*
X1114616Y681553D01*
X1113008Y683160D01*
X1111039Y684297D01*
X1108843Y684886D01*
D02*
G37*
G36*
X1071394D02*
X1069120D01*
X1066924Y684297D01*
X1064955Y683160D01*
X1063347Y681553D01*
X1062210Y679583D01*
X1061621Y677387D01*
Y675113D01*
X1062210Y672917D01*
X1063347Y670947D01*
X1064955Y669340D01*
X1066924Y668203D01*
X1069120Y667614D01*
X1071394D01*
X1073591Y668203D01*
X1075560Y669340D01*
X1077168Y670947D01*
X1078305Y672917D01*
X1078893Y675113D01*
Y677387D01*
X1078305Y679583D01*
X1077168Y681553D01*
X1075560Y683160D01*
X1073591Y684297D01*
X1071394Y684886D01*
D02*
G37*
G36*
X1033946D02*
X1031672D01*
X1029475Y684297D01*
X1027506Y683160D01*
X1025898Y681553D01*
X1024761Y679583D01*
X1024173Y677387D01*
Y675113D01*
X1024761Y672917D01*
X1025898Y670947D01*
X1027506Y669340D01*
X1029475Y668203D01*
X1031672Y667614D01*
X1033946D01*
X1036142Y668203D01*
X1038111Y669340D01*
X1039719Y670947D01*
X1040856Y672917D01*
X1041445Y675113D01*
Y677387D01*
X1040856Y679583D01*
X1039719Y681553D01*
X1038111Y683160D01*
X1036142Y684297D01*
X1033946Y684886D01*
D02*
G37*
G36*
X996497D02*
X994223D01*
X992027Y684297D01*
X990058Y683160D01*
X988450Y681553D01*
X987313Y679583D01*
X986724Y677387D01*
Y675113D01*
X987313Y672917D01*
X988450Y670947D01*
X990058Y669340D01*
X992027Y668203D01*
X994223Y667614D01*
X996497D01*
X998694Y668203D01*
X1000663Y669340D01*
X1002271Y670947D01*
X1003408Y672917D01*
X1003996Y675113D01*
Y677387D01*
X1003408Y679583D01*
X1002271Y681553D01*
X1000663Y683160D01*
X998694Y684297D01*
X996497Y684886D01*
D02*
G37*
G36*
X959049D02*
X956775D01*
X954578Y684297D01*
X952609Y683160D01*
X951001Y681553D01*
X949864Y679583D01*
X949276Y677387D01*
Y675113D01*
X949864Y672917D01*
X951001Y670947D01*
X952609Y669340D01*
X954578Y668203D01*
X956775Y667614D01*
X959049D01*
X961245Y668203D01*
X963214Y669340D01*
X964822Y670947D01*
X965959Y672917D01*
X966548Y675113D01*
Y677387D01*
X965959Y679583D01*
X964822Y681553D01*
X963214Y683160D01*
X961245Y684297D01*
X959049Y684886D01*
D02*
G37*
G36*
X921600D02*
X919326D01*
X917130Y684297D01*
X915160Y683160D01*
X913552Y681553D01*
X912416Y679583D01*
X911827Y677387D01*
Y675113D01*
X912416Y672917D01*
X913552Y670947D01*
X915160Y669340D01*
X917130Y668203D01*
X919326Y667614D01*
X921600D01*
X923796Y668203D01*
X925766Y669340D01*
X927374Y670947D01*
X928511Y672917D01*
X929099Y675113D01*
Y677387D01*
X928511Y679583D01*
X927374Y681553D01*
X925766Y683160D01*
X923796Y684297D01*
X921600Y684886D01*
D02*
G37*
G36*
X884151D02*
X881878D01*
X879681Y684297D01*
X877712Y683160D01*
X876104Y681553D01*
X874967Y679583D01*
X874379Y677387D01*
Y675113D01*
X874967Y672917D01*
X876104Y670947D01*
X877712Y669340D01*
X879681Y668203D01*
X881878Y667614D01*
X884151D01*
X886348Y668203D01*
X888317Y669340D01*
X889925Y670947D01*
X891062Y672917D01*
X891650Y675113D01*
Y677387D01*
X891062Y679583D01*
X889925Y681553D01*
X888317Y683160D01*
X886348Y684297D01*
X884151Y684886D01*
D02*
G37*
G36*
X846703D02*
X844429D01*
X842233Y684297D01*
X840263Y683160D01*
X838655Y681553D01*
X837518Y679583D01*
X836930Y677387D01*
Y675113D01*
X837518Y672917D01*
X838655Y670947D01*
X840263Y669340D01*
X842233Y668203D01*
X844429Y667614D01*
X846703D01*
X848899Y668203D01*
X850869Y669340D01*
X852477Y670947D01*
X853613Y672917D01*
X854202Y675113D01*
Y677387D01*
X853613Y679583D01*
X852477Y681553D01*
X850869Y683160D01*
X848899Y684297D01*
X846703Y684886D01*
D02*
G37*
G36*
X809254D02*
X806980D01*
X804784Y684297D01*
X802815Y683160D01*
X801207Y681553D01*
X800070Y679583D01*
X799481Y677387D01*
Y675113D01*
X800070Y672917D01*
X801207Y670947D01*
X802815Y669340D01*
X804784Y668203D01*
X806980Y667614D01*
X809254D01*
X811451Y668203D01*
X813420Y669340D01*
X815028Y670947D01*
X816165Y672917D01*
X816753Y675113D01*
Y677387D01*
X816165Y679583D01*
X815028Y681553D01*
X813420Y683160D01*
X811451Y684297D01*
X809254Y684886D01*
D02*
G37*
G36*
X771806D02*
X769532D01*
X767335Y684297D01*
X765366Y683160D01*
X763758Y681553D01*
X762621Y679583D01*
X762033Y677387D01*
Y675113D01*
X762621Y672917D01*
X763758Y670947D01*
X765366Y669340D01*
X767335Y668203D01*
X769532Y667614D01*
X771806D01*
X774002Y668203D01*
X775971Y669340D01*
X777579Y670947D01*
X778716Y672917D01*
X779305Y675113D01*
Y677387D01*
X778716Y679583D01*
X777579Y681553D01*
X775971Y683160D01*
X774002Y684297D01*
X771806Y684886D01*
D02*
G37*
G36*
X734357D02*
X732083D01*
X729887Y684297D01*
X727918Y683160D01*
X726310Y681553D01*
X725173Y679583D01*
X724584Y677387D01*
Y675113D01*
X725173Y672917D01*
X726310Y670947D01*
X727918Y669340D01*
X729887Y668203D01*
X732083Y667614D01*
X734357D01*
X736554Y668203D01*
X738523Y669340D01*
X740131Y670947D01*
X741268Y672917D01*
X741856Y675113D01*
Y677387D01*
X741268Y679583D01*
X740131Y681553D01*
X738523Y683160D01*
X736554Y684297D01*
X734357Y684886D01*
D02*
G37*
G36*
X696909D02*
X694635D01*
X692438Y684297D01*
X690469Y683160D01*
X688861Y681553D01*
X687724Y679583D01*
X687136Y677387D01*
Y675113D01*
X687724Y672917D01*
X688861Y670947D01*
X690469Y669340D01*
X692438Y668203D01*
X694635Y667614D01*
X696909D01*
X699105Y668203D01*
X701074Y669340D01*
X702682Y670947D01*
X703819Y672917D01*
X704408Y675113D01*
Y677387D01*
X703819Y679583D01*
X702682Y681553D01*
X701074Y683160D01*
X699105Y684297D01*
X696909Y684886D01*
D02*
G37*
G36*
X659460D02*
X657186D01*
X654990Y684297D01*
X653020Y683160D01*
X651413Y681553D01*
X650276Y679583D01*
X649687Y677387D01*
Y675113D01*
X650276Y672917D01*
X651413Y670947D01*
X653020Y669340D01*
X654990Y668203D01*
X657186Y667614D01*
X659460D01*
X661656Y668203D01*
X663626Y669340D01*
X665234Y670947D01*
X666371Y672917D01*
X666959Y675113D01*
Y677387D01*
X666371Y679583D01*
X665234Y681553D01*
X663626Y683160D01*
X661656Y684297D01*
X659460Y684886D01*
D02*
G37*
G36*
X622011D02*
X619738D01*
X617541Y684297D01*
X615572Y683160D01*
X613964Y681553D01*
X612827Y679583D01*
X612239Y677387D01*
Y675113D01*
X612827Y672917D01*
X613964Y670947D01*
X615572Y669340D01*
X617541Y668203D01*
X619738Y667614D01*
X622011D01*
X624208Y668203D01*
X626177Y669340D01*
X627785Y670947D01*
X628922Y672917D01*
X629510Y675113D01*
Y677387D01*
X628922Y679583D01*
X627785Y681553D01*
X626177Y683160D01*
X624208Y684297D01*
X622011Y684886D01*
D02*
G37*
G36*
X584563D02*
X582289D01*
X580093Y684297D01*
X578123Y683160D01*
X576515Y681553D01*
X575378Y679583D01*
X574790Y677387D01*
Y675113D01*
X575378Y672917D01*
X576515Y670947D01*
X578123Y669340D01*
X580093Y668203D01*
X582289Y667614D01*
X584563D01*
X586759Y668203D01*
X588729Y669340D01*
X590336Y670947D01*
X591473Y672917D01*
X592062Y675113D01*
Y677387D01*
X591473Y679583D01*
X590336Y681553D01*
X588729Y683160D01*
X586759Y684297D01*
X584563Y684886D01*
D02*
G37*
G36*
X547114D02*
X544840D01*
X542644Y684297D01*
X540675Y683160D01*
X539067Y681553D01*
X537930Y679583D01*
X537341Y677387D01*
Y675113D01*
X537930Y672917D01*
X539067Y670947D01*
X540675Y669340D01*
X542644Y668203D01*
X544840Y667614D01*
X547114D01*
X549311Y668203D01*
X551280Y669340D01*
X552888Y670947D01*
X554025Y672917D01*
X554613Y675113D01*
Y677387D01*
X554025Y679583D01*
X552888Y681553D01*
X551280Y683160D01*
X549311Y684297D01*
X547114Y684886D01*
D02*
G37*
G36*
X509666D02*
X507392D01*
X505196Y684297D01*
X503226Y683160D01*
X501618Y681553D01*
X500481Y679583D01*
X499893Y677387D01*
Y675113D01*
X500481Y672917D01*
X501618Y670947D01*
X503226Y669340D01*
X505196Y668203D01*
X507392Y667614D01*
X509666D01*
X511862Y668203D01*
X513831Y669340D01*
X515439Y670947D01*
X516576Y672917D01*
X517165Y675113D01*
Y677387D01*
X516576Y679583D01*
X515439Y681553D01*
X513831Y683160D01*
X511862Y684297D01*
X509666Y684886D01*
D02*
G37*
G36*
X472217D02*
X469943D01*
X467747Y684297D01*
X465778Y683160D01*
X464170Y681553D01*
X463033Y679583D01*
X462444Y677387D01*
Y675113D01*
X463033Y672917D01*
X464170Y670947D01*
X465778Y669340D01*
X467747Y668203D01*
X469943Y667614D01*
X472217D01*
X474414Y668203D01*
X476383Y669340D01*
X477991Y670947D01*
X479128Y672917D01*
X479716Y675113D01*
Y677387D01*
X479128Y679583D01*
X477991Y681553D01*
X476383Y683160D01*
X474414Y684297D01*
X472217Y684886D01*
D02*
G37*
G36*
X434769D02*
X432495D01*
X430298Y684297D01*
X428329Y683160D01*
X426721Y681553D01*
X425584Y679583D01*
X424996Y677387D01*
Y675113D01*
X425584Y672917D01*
X426721Y670947D01*
X428329Y669340D01*
X430298Y668203D01*
X432495Y667614D01*
X434769D01*
X436965Y668203D01*
X438934Y669340D01*
X440542Y670947D01*
X441679Y672917D01*
X442268Y675113D01*
Y677387D01*
X441679Y679583D01*
X440542Y681553D01*
X438934Y683160D01*
X436965Y684297D01*
X434769Y684886D01*
D02*
G37*
G36*
X397320D02*
X395046D01*
X392850Y684297D01*
X390881Y683160D01*
X389273Y681553D01*
X388136Y679583D01*
X387547Y677387D01*
Y675113D01*
X388136Y672917D01*
X389273Y670947D01*
X390881Y669340D01*
X392850Y668203D01*
X395046Y667614D01*
X397320D01*
X399516Y668203D01*
X401486Y669340D01*
X403094Y670947D01*
X404231Y672917D01*
X404819Y675113D01*
Y677387D01*
X404231Y679583D01*
X403094Y681553D01*
X401486Y683160D01*
X399516Y684297D01*
X397320Y684886D01*
D02*
G37*
G36*
X359871D02*
X357598D01*
X355401Y684297D01*
X353432Y683160D01*
X351824Y681553D01*
X350687Y679583D01*
X350099Y677387D01*
Y675113D01*
X350687Y672917D01*
X351824Y670947D01*
X353432Y669340D01*
X355401Y668203D01*
X357598Y667614D01*
X359871D01*
X362068Y668203D01*
X364037Y669340D01*
X365645Y670947D01*
X366782Y672917D01*
X367371Y675113D01*
Y677387D01*
X366782Y679583D01*
X365645Y681553D01*
X364037Y683160D01*
X362068Y684297D01*
X359871Y684886D01*
D02*
G37*
G36*
X322423D02*
X320149D01*
X317953Y684297D01*
X315983Y683160D01*
X314375Y681553D01*
X313239Y679583D01*
X312650Y677387D01*
Y675113D01*
X313239Y672917D01*
X314375Y670947D01*
X315983Y669340D01*
X317953Y668203D01*
X320149Y667614D01*
X322423D01*
X324619Y668203D01*
X326589Y669340D01*
X328196Y670947D01*
X329333Y672917D01*
X329922Y675113D01*
Y677387D01*
X329333Y679583D01*
X328196Y681553D01*
X326589Y683160D01*
X324619Y684297D01*
X322423Y684886D01*
D02*
G37*
G36*
X284974D02*
X282701D01*
X280504Y684297D01*
X278535Y683160D01*
X276927Y681553D01*
X275790Y679583D01*
X275201Y677387D01*
Y675113D01*
X275790Y672917D01*
X276927Y670947D01*
X278535Y669340D01*
X280504Y668203D01*
X282701Y667614D01*
X284974D01*
X287171Y668203D01*
X289140Y669340D01*
X290748Y670947D01*
X291885Y672917D01*
X292473Y675113D01*
Y677387D01*
X291885Y679583D01*
X290748Y681553D01*
X289140Y683160D01*
X287171Y684297D01*
X284974Y684886D01*
D02*
G37*
G36*
X247526D02*
X245252D01*
X243055Y684297D01*
X241086Y683160D01*
X239478Y681553D01*
X238341Y679583D01*
X237753Y677387D01*
Y675113D01*
X238341Y672917D01*
X239478Y670947D01*
X241086Y669340D01*
X243055Y668203D01*
X245252Y667614D01*
X247526D01*
X249722Y668203D01*
X251691Y669340D01*
X253299Y670947D01*
X254436Y672917D01*
X255025Y675113D01*
Y677387D01*
X254436Y679583D01*
X253299Y681553D01*
X251691Y683160D01*
X249722Y684297D01*
X247526Y684886D01*
D02*
G37*
G36*
X1432364Y654000D02*
X1427636D01*
X1423000Y653078D01*
X1418632Y651268D01*
X1414701Y648642D01*
X1411358Y645299D01*
X1408732Y641368D01*
X1406922Y637001D01*
X1406000Y632364D01*
Y627636D01*
X1406922Y622999D01*
X1408732Y618632D01*
X1411358Y614701D01*
X1414701Y611358D01*
X1418632Y608731D01*
X1423000Y606922D01*
X1427636Y606000D01*
X1432364D01*
X1437001Y606922D01*
X1441368Y608731D01*
X1445299Y611358D01*
X1448642Y614701D01*
X1451268Y618632D01*
X1453078Y622999D01*
X1454000Y627636D01*
Y632364D01*
X1453078Y637001D01*
X1451268Y641368D01*
X1448642Y645299D01*
X1445299Y648642D01*
X1441368Y651268D01*
X1437001Y653078D01*
X1432364Y654000D01*
D02*
G37*
G36*
X752364D02*
X747636D01*
X742999Y653078D01*
X738632Y651268D01*
X734701Y648642D01*
X731358Y645299D01*
X728732Y641368D01*
X726922Y637001D01*
X726000Y632364D01*
Y627636D01*
X726922Y622999D01*
X728732Y618632D01*
X731358Y614701D01*
X734701Y611358D01*
X738632Y608731D01*
X742999Y606922D01*
X747636Y606000D01*
X752364D01*
X757001Y606922D01*
X761368Y608731D01*
X765299Y611358D01*
X768642Y614701D01*
X771268Y618632D01*
X773078Y622999D01*
X774000Y627636D01*
Y632364D01*
X773078Y637001D01*
X771268Y641368D01*
X768642Y645299D01*
X765299Y648642D01*
X761368Y651268D01*
X757001Y653078D01*
X752364Y654000D01*
D02*
G37*
G36*
X72364D02*
X67636D01*
X63000Y653078D01*
X58632Y651268D01*
X54701Y648642D01*
X51358Y645299D01*
X48731Y641368D01*
X46922Y637001D01*
X46000Y632364D01*
Y627636D01*
X46922Y622999D01*
X48731Y618632D01*
X51358Y614701D01*
X54701Y611358D01*
X58632Y608731D01*
X63000Y606922D01*
X67636Y606000D01*
X72364D01*
X77001Y606922D01*
X81368Y608731D01*
X85299Y611358D01*
X88642Y614701D01*
X91269Y618632D01*
X93078Y622999D01*
X94000Y627636D01*
Y632364D01*
X93078Y637001D01*
X91269Y641368D01*
X88642Y645299D01*
X85299Y648642D01*
X81368Y651268D01*
X77001Y653078D01*
X72364Y654000D01*
D02*
G37*
G36*
X337260Y607599D02*
X334518D01*
Y600508D01*
X341610D01*
Y603250D01*
X341278Y604915D01*
X340336Y606326D01*
X338924Y607268D01*
X337260Y607599D01*
D02*
G37*
G36*
X333502D02*
X330760D01*
X329095Y607268D01*
X327684Y606326D01*
X326742Y604915D01*
X326410Y603250D01*
Y600508D01*
X333502D01*
Y607599D01*
D02*
G37*
G36*
X300000Y607516D02*
X298020D01*
X296109Y607004D01*
X294395Y606014D01*
X292996Y604615D01*
X292006Y602901D01*
X291494Y600989D01*
Y599011D01*
X292006Y597099D01*
X292996Y595385D01*
X294395Y593986D01*
X296109Y592996D01*
X298020Y592484D01*
X300000D01*
X301911Y592996D01*
X303625Y593986D01*
X305024Y595385D01*
X306014Y597099D01*
X306526Y599011D01*
Y600989D01*
X306014Y602901D01*
X305024Y604615D01*
X303625Y606014D01*
X301911Y607004D01*
X300000Y607516D01*
D02*
G37*
G36*
X341610Y599492D02*
X334518D01*
Y592400D01*
X337260D01*
X338924Y592732D01*
X340336Y593674D01*
X341278Y595085D01*
X341610Y596750D01*
Y599492D01*
D02*
G37*
G36*
X333502D02*
X326410D01*
Y596750D01*
X326742Y595085D01*
X327684Y593674D01*
X329095Y592732D01*
X330760Y592400D01*
X333502D01*
Y599492D01*
D02*
G37*
G36*
X214819Y573516D02*
X214008D01*
Y564008D01*
X223516D01*
Y564819D01*
X222833Y567366D01*
X221515Y569650D01*
X219650Y571515D01*
X217366Y572833D01*
X214819Y573516D01*
D02*
G37*
G36*
X212992D02*
X212181D01*
X209634Y572833D01*
X207350Y571515D01*
X205485Y569650D01*
X204167Y567366D01*
X203484Y564819D01*
Y564008D01*
X212992D01*
Y573516D01*
D02*
G37*
G36*
X189419D02*
X188608D01*
Y564008D01*
X198116D01*
Y564819D01*
X197433Y567366D01*
X196115Y569650D01*
X194250Y571515D01*
X191966Y572833D01*
X189419Y573516D01*
D02*
G37*
G36*
X187592D02*
X186781D01*
X184234Y572833D01*
X181950Y571515D01*
X180085Y569650D01*
X178767Y567366D01*
X178084Y564819D01*
Y564008D01*
X187592D01*
Y573516D01*
D02*
G37*
G36*
X164019D02*
X163208D01*
Y564008D01*
X172716D01*
Y564819D01*
X172033Y567366D01*
X170715Y569650D01*
X168850Y571515D01*
X166566Y572833D01*
X164019Y573516D01*
D02*
G37*
G36*
X162192D02*
X161381D01*
X158834Y572833D01*
X156550Y571515D01*
X154685Y569650D01*
X153367Y567366D01*
X152684Y564819D01*
Y564008D01*
X162192D01*
Y573516D01*
D02*
G37*
G36*
X138619D02*
X137808D01*
Y564008D01*
X147316D01*
Y564819D01*
X146633Y567366D01*
X145315Y569650D01*
X143450Y571515D01*
X141166Y572833D01*
X138619Y573516D01*
D02*
G37*
G36*
X136792D02*
X135981D01*
X133434Y572833D01*
X131150Y571515D01*
X129285Y569650D01*
X127967Y567366D01*
X127284Y564819D01*
Y564008D01*
X136792D01*
Y573516D01*
D02*
G37*
G36*
X113219D02*
X112408D01*
Y564008D01*
X121916D01*
Y564819D01*
X121233Y567366D01*
X119915Y569650D01*
X118050Y571515D01*
X115766Y572833D01*
X113219Y573516D01*
D02*
G37*
G36*
X111392D02*
X110581D01*
X108034Y572833D01*
X105750Y571515D01*
X103885Y569650D01*
X102567Y567366D01*
X101884Y564819D01*
Y564008D01*
X111392D01*
Y573516D01*
D02*
G37*
G36*
X87819D02*
X87008D01*
Y564008D01*
X96516D01*
Y564819D01*
X95833Y567366D01*
X94515Y569650D01*
X92650Y571515D01*
X90366Y572833D01*
X87819Y573516D01*
D02*
G37*
G36*
X85992D02*
X85181D01*
X82634Y572833D01*
X80350Y571515D01*
X78485Y569650D01*
X77167Y567366D01*
X76484Y564819D01*
Y564008D01*
X85992D01*
Y573516D01*
D02*
G37*
G36*
X1414819D02*
X1412181D01*
X1409634Y572833D01*
X1407350Y571515D01*
X1405485Y569650D01*
X1404167Y567366D01*
X1403484Y564819D01*
Y562181D01*
X1404167Y559634D01*
X1405485Y557350D01*
X1407350Y555485D01*
X1409634Y554167D01*
X1412181Y553484D01*
X1414819D01*
X1417366Y554167D01*
X1419650Y555485D01*
X1421515Y557350D01*
X1422833Y559634D01*
X1423516Y562181D01*
Y564819D01*
X1422833Y567366D01*
X1421515Y569650D01*
X1419650Y571515D01*
X1417366Y572833D01*
X1414819Y573516D01*
D02*
G37*
G36*
X1389419D02*
X1386781D01*
X1384234Y572833D01*
X1381950Y571515D01*
X1380085Y569650D01*
X1378767Y567366D01*
X1378084Y564819D01*
Y562181D01*
X1378767Y559634D01*
X1380085Y557350D01*
X1381950Y555485D01*
X1384234Y554167D01*
X1386781Y553484D01*
X1389419D01*
X1391966Y554167D01*
X1394250Y555485D01*
X1396115Y557350D01*
X1397433Y559634D01*
X1398116Y562181D01*
Y564819D01*
X1397433Y567366D01*
X1396115Y569650D01*
X1394250Y571515D01*
X1391966Y572833D01*
X1389419Y573516D01*
D02*
G37*
G36*
X1364019D02*
X1361381D01*
X1358834Y572833D01*
X1356550Y571515D01*
X1354685Y569650D01*
X1353367Y567366D01*
X1352684Y564819D01*
Y562181D01*
X1353367Y559634D01*
X1354685Y557350D01*
X1356550Y555485D01*
X1358834Y554167D01*
X1361381Y553484D01*
X1364019D01*
X1366566Y554167D01*
X1368850Y555485D01*
X1370715Y557350D01*
X1372033Y559634D01*
X1372716Y562181D01*
Y564819D01*
X1372033Y567366D01*
X1370715Y569650D01*
X1368850Y571515D01*
X1366566Y572833D01*
X1364019Y573516D01*
D02*
G37*
G36*
X1338619D02*
X1335981D01*
X1333434Y572833D01*
X1331150Y571515D01*
X1329285Y569650D01*
X1327967Y567366D01*
X1327284Y564819D01*
Y562181D01*
X1327967Y559634D01*
X1329285Y557350D01*
X1331150Y555485D01*
X1333434Y554167D01*
X1335981Y553484D01*
X1338619D01*
X1341166Y554167D01*
X1343450Y555485D01*
X1345315Y557350D01*
X1346633Y559634D01*
X1347316Y562181D01*
Y564819D01*
X1346633Y567366D01*
X1345315Y569650D01*
X1343450Y571515D01*
X1341166Y572833D01*
X1338619Y573516D01*
D02*
G37*
G36*
X1313219D02*
X1310581D01*
X1308034Y572833D01*
X1305750Y571515D01*
X1303885Y569650D01*
X1302567Y567366D01*
X1301884Y564819D01*
Y562181D01*
X1302567Y559634D01*
X1303885Y557350D01*
X1305750Y555485D01*
X1308034Y554167D01*
X1310581Y553484D01*
X1313219D01*
X1315766Y554167D01*
X1318050Y555485D01*
X1319915Y557350D01*
X1321233Y559634D01*
X1321916Y562181D01*
Y564819D01*
X1321233Y567366D01*
X1319915Y569650D01*
X1318050Y571515D01*
X1315766Y572833D01*
X1313219Y573516D01*
D02*
G37*
G36*
X1287819D02*
X1285181D01*
X1282634Y572833D01*
X1280350Y571515D01*
X1278485Y569650D01*
X1277167Y567366D01*
X1276484Y564819D01*
Y562181D01*
X1277167Y559634D01*
X1278485Y557350D01*
X1280350Y555485D01*
X1282634Y554167D01*
X1285181Y553484D01*
X1287819D01*
X1290366Y554167D01*
X1292650Y555485D01*
X1294515Y557350D01*
X1295833Y559634D01*
X1296516Y562181D01*
Y564819D01*
X1295833Y567366D01*
X1294515Y569650D01*
X1292650Y571515D01*
X1290366Y572833D01*
X1287819Y573516D01*
D02*
G37*
G36*
X223516Y562992D02*
X214008D01*
Y553484D01*
X214819D01*
X217366Y554167D01*
X219650Y555485D01*
X221515Y557350D01*
X222833Y559634D01*
X223516Y562181D01*
Y562992D01*
D02*
G37*
G36*
X212992D02*
X203484D01*
Y562181D01*
X204167Y559634D01*
X205485Y557350D01*
X207350Y555485D01*
X209634Y554167D01*
X212181Y553484D01*
X212992D01*
Y562992D01*
D02*
G37*
G36*
X198116D02*
X188608D01*
Y553484D01*
X189419D01*
X191966Y554167D01*
X194250Y555485D01*
X196115Y557350D01*
X197433Y559634D01*
X198116Y562181D01*
Y562992D01*
D02*
G37*
G36*
X187592D02*
X178084D01*
Y562181D01*
X178767Y559634D01*
X180085Y557350D01*
X181950Y555485D01*
X184234Y554167D01*
X186781Y553484D01*
X187592D01*
Y562992D01*
D02*
G37*
G36*
X172716D02*
X163208D01*
Y553484D01*
X164019D01*
X166566Y554167D01*
X168850Y555485D01*
X170715Y557350D01*
X172033Y559634D01*
X172716Y562181D01*
Y562992D01*
D02*
G37*
G36*
X162192D02*
X152684D01*
Y562181D01*
X153367Y559634D01*
X154685Y557350D01*
X156550Y555485D01*
X158834Y554167D01*
X161381Y553484D01*
X162192D01*
Y562992D01*
D02*
G37*
G36*
X147316D02*
X137808D01*
Y553484D01*
X138619D01*
X141166Y554167D01*
X143450Y555485D01*
X145315Y557350D01*
X146633Y559634D01*
X147316Y562181D01*
Y562992D01*
D02*
G37*
G36*
X136792D02*
X127284D01*
Y562181D01*
X127967Y559634D01*
X129285Y557350D01*
X131150Y555485D01*
X133434Y554167D01*
X135981Y553484D01*
X136792D01*
Y562992D01*
D02*
G37*
G36*
X121916D02*
X112408D01*
Y553484D01*
X113219D01*
X115766Y554167D01*
X118050Y555485D01*
X119915Y557350D01*
X121233Y559634D01*
X121916Y562181D01*
Y562992D01*
D02*
G37*
G36*
X111392D02*
X101884D01*
Y562181D01*
X102567Y559634D01*
X103885Y557350D01*
X105750Y555485D01*
X108034Y554167D01*
X110581Y553484D01*
X111392D01*
Y562992D01*
D02*
G37*
G36*
X96516D02*
X87008D01*
Y553484D01*
X87819D01*
X90366Y554167D01*
X92650Y555485D01*
X94515Y557350D01*
X95833Y559634D01*
X96516Y562181D01*
Y562992D01*
D02*
G37*
G36*
X85992D02*
X76484D01*
Y562181D01*
X77167Y559634D01*
X78485Y557350D01*
X80350Y555485D01*
X82634Y554167D01*
X85181Y553484D01*
X85992D01*
Y562992D01*
D02*
G37*
G36*
X1156300Y608600D02*
X1113750D01*
X1112972Y608278D01*
X1112650Y607500D01*
Y553210D01*
X1112972Y552432D01*
X1113750Y552110D01*
X1116336D01*
X1116651Y551980D01*
X1118349D01*
X1118664Y552110D01*
X1123836D01*
X1124151Y551980D01*
X1125849D01*
X1126164Y552110D01*
X1156300D01*
X1157078Y552432D01*
X1157400Y553210D01*
Y607500D01*
X1157078Y608278D01*
X1156300Y608600D01*
D02*
G37*
G36*
X1225000Y607890D02*
X1182450D01*
X1181672Y607568D01*
X1181350Y606790D01*
Y552500D01*
X1181672Y551722D01*
X1182450Y551400D01*
X1225000D01*
X1225778Y551722D01*
X1226100Y552500D01*
Y606790D01*
X1225778Y607568D01*
X1225000Y607890D01*
D02*
G37*
G36*
X214819Y548116D02*
X214008D01*
Y538608D01*
X223516D01*
Y539419D01*
X222833Y541966D01*
X221515Y544250D01*
X219650Y546115D01*
X217366Y547433D01*
X214819Y548116D01*
D02*
G37*
G36*
X212992D02*
X212181D01*
X209634Y547433D01*
X207350Y546115D01*
X205485Y544250D01*
X204167Y541966D01*
X203484Y539419D01*
Y538608D01*
X212992D01*
Y548116D01*
D02*
G37*
G36*
X189419D02*
X188608D01*
Y538608D01*
X198116D01*
Y539419D01*
X197433Y541966D01*
X196115Y544250D01*
X194250Y546115D01*
X191966Y547433D01*
X189419Y548116D01*
D02*
G37*
G36*
X187592D02*
X186781D01*
X184234Y547433D01*
X181950Y546115D01*
X180085Y544250D01*
X178767Y541966D01*
X178084Y539419D01*
Y538608D01*
X187592D01*
Y548116D01*
D02*
G37*
G36*
X164019D02*
X163208D01*
Y538608D01*
X172716D01*
Y539419D01*
X172033Y541966D01*
X170715Y544250D01*
X168850Y546115D01*
X166566Y547433D01*
X164019Y548116D01*
D02*
G37*
G36*
X162192D02*
X161381D01*
X158834Y547433D01*
X156550Y546115D01*
X154685Y544250D01*
X153367Y541966D01*
X152684Y539419D01*
Y538608D01*
X162192D01*
Y548116D01*
D02*
G37*
G36*
X138619D02*
X137808D01*
Y538608D01*
X147316D01*
Y539419D01*
X146633Y541966D01*
X145315Y544250D01*
X143450Y546115D01*
X141166Y547433D01*
X138619Y548116D01*
D02*
G37*
G36*
X136792D02*
X135981D01*
X133434Y547433D01*
X131150Y546115D01*
X129285Y544250D01*
X127967Y541966D01*
X127284Y539419D01*
Y538608D01*
X136792D01*
Y548116D01*
D02*
G37*
G36*
X113219D02*
X112408D01*
Y538608D01*
X121916D01*
Y539419D01*
X121233Y541966D01*
X119915Y544250D01*
X118050Y546115D01*
X115766Y547433D01*
X113219Y548116D01*
D02*
G37*
G36*
X111392D02*
X110581D01*
X108034Y547433D01*
X105750Y546115D01*
X103885Y544250D01*
X102567Y541966D01*
X101884Y539419D01*
Y538608D01*
X111392D01*
Y548116D01*
D02*
G37*
G36*
X87819D02*
X87008D01*
Y538608D01*
X96516D01*
Y539419D01*
X95833Y541966D01*
X94515Y544250D01*
X92650Y546115D01*
X90366Y547433D01*
X87819Y548116D01*
D02*
G37*
G36*
X85992D02*
X85181D01*
X82634Y547433D01*
X80350Y546115D01*
X78485Y544250D01*
X77167Y541966D01*
X76484Y539419D01*
Y538608D01*
X85992D01*
Y548116D01*
D02*
G37*
G36*
X430916Y556416D02*
X409084D01*
Y534584D01*
X430916D01*
Y556416D01*
D02*
G37*
G36*
X1414819Y548116D02*
X1412181D01*
X1409634Y547433D01*
X1407350Y546115D01*
X1405485Y544250D01*
X1404167Y541966D01*
X1403484Y539419D01*
Y536781D01*
X1404167Y534234D01*
X1405485Y531950D01*
X1407350Y530085D01*
X1409634Y528767D01*
X1412181Y528084D01*
X1414819D01*
X1417366Y528767D01*
X1419650Y530085D01*
X1421515Y531950D01*
X1422833Y534234D01*
X1423516Y536781D01*
Y539419D01*
X1422833Y541966D01*
X1421515Y544250D01*
X1419650Y546115D01*
X1417366Y547433D01*
X1414819Y548116D01*
D02*
G37*
G36*
X1389419D02*
X1386781D01*
X1384234Y547433D01*
X1381950Y546115D01*
X1380085Y544250D01*
X1378767Y541966D01*
X1378084Y539419D01*
Y536781D01*
X1378767Y534234D01*
X1380085Y531950D01*
X1381950Y530085D01*
X1384234Y528767D01*
X1386781Y528084D01*
X1389419D01*
X1391966Y528767D01*
X1394250Y530085D01*
X1396115Y531950D01*
X1397433Y534234D01*
X1398116Y536781D01*
Y539419D01*
X1397433Y541966D01*
X1396115Y544250D01*
X1394250Y546115D01*
X1391966Y547433D01*
X1389419Y548116D01*
D02*
G37*
G36*
X1364019D02*
X1361381D01*
X1358834Y547433D01*
X1356550Y546115D01*
X1354685Y544250D01*
X1353367Y541966D01*
X1352684Y539419D01*
Y536781D01*
X1353367Y534234D01*
X1354685Y531950D01*
X1356550Y530085D01*
X1358834Y528767D01*
X1361381Y528084D01*
X1364019D01*
X1366566Y528767D01*
X1368850Y530085D01*
X1370715Y531950D01*
X1372033Y534234D01*
X1372716Y536781D01*
Y539419D01*
X1372033Y541966D01*
X1370715Y544250D01*
X1368850Y546115D01*
X1366566Y547433D01*
X1364019Y548116D01*
D02*
G37*
G36*
X1338619D02*
X1335981D01*
X1333434Y547433D01*
X1331150Y546115D01*
X1329285Y544250D01*
X1327967Y541966D01*
X1327284Y539419D01*
Y536781D01*
X1327967Y534234D01*
X1329285Y531950D01*
X1331150Y530085D01*
X1333434Y528767D01*
X1335981Y528084D01*
X1338619D01*
X1341166Y528767D01*
X1343450Y530085D01*
X1345315Y531950D01*
X1346633Y534234D01*
X1347316Y536781D01*
Y539419D01*
X1346633Y541966D01*
X1345315Y544250D01*
X1343450Y546115D01*
X1341166Y547433D01*
X1338619Y548116D01*
D02*
G37*
G36*
X1313219D02*
X1310581D01*
X1308034Y547433D01*
X1305750Y546115D01*
X1303885Y544250D01*
X1302567Y541966D01*
X1301884Y539419D01*
Y536781D01*
X1302567Y534234D01*
X1303885Y531950D01*
X1305750Y530085D01*
X1308034Y528767D01*
X1310581Y528084D01*
X1313219D01*
X1315766Y528767D01*
X1318050Y530085D01*
X1319915Y531950D01*
X1321233Y534234D01*
X1321916Y536781D01*
Y539419D01*
X1321233Y541966D01*
X1319915Y544250D01*
X1318050Y546115D01*
X1315766Y547433D01*
X1313219Y548116D01*
D02*
G37*
G36*
X1287819D02*
X1285181D01*
X1282634Y547433D01*
X1280350Y546115D01*
X1278485Y544250D01*
X1277167Y541966D01*
X1276484Y539419D01*
Y536781D01*
X1277167Y534234D01*
X1278485Y531950D01*
X1280350Y530085D01*
X1282634Y528767D01*
X1285181Y528084D01*
X1287819D01*
X1290366Y528767D01*
X1292650Y530085D01*
X1294515Y531950D01*
X1295833Y534234D01*
X1296516Y536781D01*
Y539419D01*
X1295833Y541966D01*
X1294515Y544250D01*
X1292650Y546115D01*
X1290366Y547433D01*
X1287819Y548116D01*
D02*
G37*
G36*
X223516Y537592D02*
X214008D01*
Y528084D01*
X214819D01*
X217366Y528767D01*
X219650Y530085D01*
X221515Y531950D01*
X222833Y534234D01*
X223516Y536781D01*
Y537592D01*
D02*
G37*
G36*
X212992D02*
X203484D01*
Y536781D01*
X204167Y534234D01*
X205485Y531950D01*
X207350Y530085D01*
X209634Y528767D01*
X212181Y528084D01*
X212992D01*
Y537592D01*
D02*
G37*
G36*
X198116D02*
X188608D01*
Y528084D01*
X189419D01*
X191966Y528767D01*
X194250Y530085D01*
X196115Y531950D01*
X197433Y534234D01*
X198116Y536781D01*
Y537592D01*
D02*
G37*
G36*
X187592D02*
X178084D01*
Y536781D01*
X178767Y534234D01*
X180085Y531950D01*
X181950Y530085D01*
X184234Y528767D01*
X186781Y528084D01*
X187592D01*
Y537592D01*
D02*
G37*
G36*
X172716D02*
X163208D01*
Y528084D01*
X164019D01*
X166566Y528767D01*
X168850Y530085D01*
X170715Y531950D01*
X172033Y534234D01*
X172716Y536781D01*
Y537592D01*
D02*
G37*
G36*
X162192D02*
X152684D01*
Y536781D01*
X153367Y534234D01*
X154685Y531950D01*
X156550Y530085D01*
X158834Y528767D01*
X161381Y528084D01*
X162192D01*
Y537592D01*
D02*
G37*
G36*
X147316D02*
X137808D01*
Y528084D01*
X138619D01*
X141166Y528767D01*
X143450Y530085D01*
X145315Y531950D01*
X146633Y534234D01*
X147316Y536781D01*
Y537592D01*
D02*
G37*
G36*
X136792D02*
X127284D01*
Y536781D01*
X127967Y534234D01*
X129285Y531950D01*
X131150Y530085D01*
X133434Y528767D01*
X135981Y528084D01*
X136792D01*
Y537592D01*
D02*
G37*
G36*
X121916D02*
X112408D01*
Y528084D01*
X113219D01*
X115766Y528767D01*
X118050Y530085D01*
X119915Y531950D01*
X121233Y534234D01*
X121916Y536781D01*
Y537592D01*
D02*
G37*
G36*
X111392D02*
X101884D01*
Y536781D01*
X102567Y534234D01*
X103885Y531950D01*
X105750Y530085D01*
X108034Y528767D01*
X110581Y528084D01*
X111392D01*
Y537592D01*
D02*
G37*
G36*
X96516D02*
X87008D01*
Y528084D01*
X87819D01*
X90366Y528767D01*
X92650Y530085D01*
X94515Y531950D01*
X95833Y534234D01*
X96516Y536781D01*
Y537592D01*
D02*
G37*
G36*
X85992D02*
X76484D01*
Y536781D01*
X77167Y534234D01*
X78485Y531950D01*
X80350Y530085D01*
X82634Y528767D01*
X85181Y528084D01*
X85992D01*
Y537592D01*
D02*
G37*
G36*
X421437Y530916D02*
X420508D01*
Y520508D01*
X430916D01*
Y521437D01*
X430172Y524213D01*
X428735Y526703D01*
X426703Y528735D01*
X424213Y530172D01*
X421437Y530916D01*
D02*
G37*
G36*
X419492D02*
X418563D01*
X415787Y530172D01*
X413297Y528735D01*
X411265Y526703D01*
X409828Y524213D01*
X409084Y521437D01*
Y520508D01*
X419492D01*
Y530916D01*
D02*
G37*
G36*
X214819Y522716D02*
X214008D01*
Y513208D01*
X223516D01*
Y514019D01*
X222833Y516566D01*
X221515Y518850D01*
X219650Y520715D01*
X217366Y522033D01*
X214819Y522716D01*
D02*
G37*
G36*
X212992D02*
X212181D01*
X209634Y522033D01*
X207350Y520715D01*
X205485Y518850D01*
X204167Y516566D01*
X203484Y514019D01*
Y513208D01*
X212992D01*
Y522716D01*
D02*
G37*
G36*
X189419D02*
X188608D01*
Y513208D01*
X198116D01*
Y514019D01*
X197433Y516566D01*
X196115Y518850D01*
X194250Y520715D01*
X191966Y522033D01*
X189419Y522716D01*
D02*
G37*
G36*
X187592D02*
X186781D01*
X184234Y522033D01*
X181950Y520715D01*
X180085Y518850D01*
X178767Y516566D01*
X178084Y514019D01*
Y513208D01*
X187592D01*
Y522716D01*
D02*
G37*
G36*
X164019D02*
X163208D01*
Y513208D01*
X172716D01*
Y514019D01*
X172033Y516566D01*
X170715Y518850D01*
X168850Y520715D01*
X166566Y522033D01*
X164019Y522716D01*
D02*
G37*
G36*
X162192D02*
X161381D01*
X158834Y522033D01*
X156550Y520715D01*
X154685Y518850D01*
X153367Y516566D01*
X152684Y514019D01*
Y513208D01*
X162192D01*
Y522716D01*
D02*
G37*
G36*
X138619D02*
X137808D01*
Y513208D01*
X147316D01*
Y514019D01*
X146633Y516566D01*
X145315Y518850D01*
X143450Y520715D01*
X141166Y522033D01*
X138619Y522716D01*
D02*
G37*
G36*
X136792D02*
X135981D01*
X133434Y522033D01*
X131150Y520715D01*
X129285Y518850D01*
X127967Y516566D01*
X127284Y514019D01*
Y513208D01*
X136792D01*
Y522716D01*
D02*
G37*
G36*
X113219D02*
X112408D01*
Y513208D01*
X121916D01*
Y514019D01*
X121233Y516566D01*
X119915Y518850D01*
X118050Y520715D01*
X115766Y522033D01*
X113219Y522716D01*
D02*
G37*
G36*
X111392D02*
X110581D01*
X108034Y522033D01*
X105750Y520715D01*
X103885Y518850D01*
X102567Y516566D01*
X101884Y514019D01*
Y513208D01*
X111392D01*
Y522716D01*
D02*
G37*
G36*
X87819D02*
X87008D01*
Y513208D01*
X96516D01*
Y514019D01*
X95833Y516566D01*
X94515Y518850D01*
X92650Y520715D01*
X90366Y522033D01*
X87819Y522716D01*
D02*
G37*
G36*
X85992D02*
X85181D01*
X82634Y522033D01*
X80350Y520715D01*
X78485Y518850D01*
X77167Y516566D01*
X76484Y514019D01*
Y513208D01*
X85992D01*
Y522716D01*
D02*
G37*
G36*
X354826Y537276D02*
X343918D01*
Y512868D01*
X354826D01*
Y537276D01*
D02*
G37*
G36*
X342902D02*
X331994D01*
Y512868D01*
X342902D01*
Y537276D01*
D02*
G37*
G36*
X430916Y519492D02*
X420508D01*
Y509084D01*
X421437D01*
X424213Y509828D01*
X426703Y511265D01*
X428735Y513297D01*
X430172Y515787D01*
X430916Y518563D01*
Y519492D01*
D02*
G37*
G36*
X419492D02*
X409084D01*
Y518563D01*
X409828Y515787D01*
X411265Y513297D01*
X413297Y511265D01*
X415787Y509828D01*
X418563Y509084D01*
X419492D01*
Y519492D01*
D02*
G37*
G36*
X1414819Y522716D02*
X1412181D01*
X1409634Y522033D01*
X1407350Y520715D01*
X1405485Y518850D01*
X1404167Y516566D01*
X1403484Y514019D01*
Y511381D01*
X1404167Y508834D01*
X1405485Y506550D01*
X1407350Y504685D01*
X1409634Y503367D01*
X1412181Y502684D01*
X1414819D01*
X1417366Y503367D01*
X1419650Y504685D01*
X1421515Y506550D01*
X1422833Y508834D01*
X1423516Y511381D01*
Y514019D01*
X1422833Y516566D01*
X1421515Y518850D01*
X1419650Y520715D01*
X1417366Y522033D01*
X1414819Y522716D01*
D02*
G37*
G36*
X1389419D02*
X1386781D01*
X1384234Y522033D01*
X1381950Y520715D01*
X1380085Y518850D01*
X1378767Y516566D01*
X1378084Y514019D01*
Y511381D01*
X1378767Y508834D01*
X1380085Y506550D01*
X1381950Y504685D01*
X1384234Y503367D01*
X1386781Y502684D01*
X1389419D01*
X1391966Y503367D01*
X1394250Y504685D01*
X1396115Y506550D01*
X1397433Y508834D01*
X1398116Y511381D01*
Y514019D01*
X1397433Y516566D01*
X1396115Y518850D01*
X1394250Y520715D01*
X1391966Y522033D01*
X1389419Y522716D01*
D02*
G37*
G36*
X1364019D02*
X1361381D01*
X1358834Y522033D01*
X1356550Y520715D01*
X1354685Y518850D01*
X1353367Y516566D01*
X1352684Y514019D01*
Y511381D01*
X1353367Y508834D01*
X1354685Y506550D01*
X1356550Y504685D01*
X1358834Y503367D01*
X1361381Y502684D01*
X1364019D01*
X1366566Y503367D01*
X1368850Y504685D01*
X1370715Y506550D01*
X1372033Y508834D01*
X1372716Y511381D01*
Y514019D01*
X1372033Y516566D01*
X1370715Y518850D01*
X1368850Y520715D01*
X1366566Y522033D01*
X1364019Y522716D01*
D02*
G37*
G36*
X1338619D02*
X1335981D01*
X1333434Y522033D01*
X1331150Y520715D01*
X1329285Y518850D01*
X1327967Y516566D01*
X1327284Y514019D01*
Y511381D01*
X1327967Y508834D01*
X1329285Y506550D01*
X1331150Y504685D01*
X1333434Y503367D01*
X1335981Y502684D01*
X1338619D01*
X1341166Y503367D01*
X1343450Y504685D01*
X1345315Y506550D01*
X1346633Y508834D01*
X1347316Y511381D01*
Y514019D01*
X1346633Y516566D01*
X1345315Y518850D01*
X1343450Y520715D01*
X1341166Y522033D01*
X1338619Y522716D01*
D02*
G37*
G36*
X1313219D02*
X1310581D01*
X1308034Y522033D01*
X1305750Y520715D01*
X1303885Y518850D01*
X1302567Y516566D01*
X1301884Y514019D01*
Y511381D01*
X1302567Y508834D01*
X1303885Y506550D01*
X1305750Y504685D01*
X1308034Y503367D01*
X1310581Y502684D01*
X1313219D01*
X1315766Y503367D01*
X1318050Y504685D01*
X1319915Y506550D01*
X1321233Y508834D01*
X1321916Y511381D01*
Y514019D01*
X1321233Y516566D01*
X1319915Y518850D01*
X1318050Y520715D01*
X1315766Y522033D01*
X1313219Y522716D01*
D02*
G37*
G36*
X1287819D02*
X1285181D01*
X1282634Y522033D01*
X1280350Y520715D01*
X1278485Y518850D01*
X1277167Y516566D01*
X1276484Y514019D01*
Y511381D01*
X1277167Y508834D01*
X1278485Y506550D01*
X1280350Y504685D01*
X1282634Y503367D01*
X1285181Y502684D01*
X1287819D01*
X1290366Y503367D01*
X1292650Y504685D01*
X1294515Y506550D01*
X1295833Y508834D01*
X1296516Y511381D01*
Y514019D01*
X1295833Y516566D01*
X1294515Y518850D01*
X1292650Y520715D01*
X1290366Y522033D01*
X1287819Y522716D01*
D02*
G37*
G36*
X223516Y512192D02*
X214008D01*
Y502684D01*
X214819D01*
X217366Y503367D01*
X219650Y504685D01*
X221515Y506550D01*
X222833Y508834D01*
X223516Y511381D01*
Y512192D01*
D02*
G37*
G36*
X212992D02*
X203484D01*
Y511381D01*
X204167Y508834D01*
X205485Y506550D01*
X207350Y504685D01*
X209634Y503367D01*
X212181Y502684D01*
X212992D01*
Y512192D01*
D02*
G37*
G36*
X198116D02*
X188608D01*
Y502684D01*
X189419D01*
X191966Y503367D01*
X194250Y504685D01*
X196115Y506550D01*
X197433Y508834D01*
X198116Y511381D01*
Y512192D01*
D02*
G37*
G36*
X187592D02*
X178084D01*
Y511381D01*
X178767Y508834D01*
X180085Y506550D01*
X181950Y504685D01*
X184234Y503367D01*
X186781Y502684D01*
X187592D01*
Y512192D01*
D02*
G37*
G36*
X172716D02*
X163208D01*
Y502684D01*
X164019D01*
X166566Y503367D01*
X168850Y504685D01*
X170715Y506550D01*
X172033Y508834D01*
X172716Y511381D01*
Y512192D01*
D02*
G37*
G36*
X162192D02*
X152684D01*
Y511381D01*
X153367Y508834D01*
X154685Y506550D01*
X156550Y504685D01*
X158834Y503367D01*
X161381Y502684D01*
X162192D01*
Y512192D01*
D02*
G37*
G36*
X147316D02*
X137808D01*
Y502684D01*
X138619D01*
X141166Y503367D01*
X143450Y504685D01*
X145315Y506550D01*
X146633Y508834D01*
X147316Y511381D01*
Y512192D01*
D02*
G37*
G36*
X136792D02*
X127284D01*
Y511381D01*
X127967Y508834D01*
X129285Y506550D01*
X131150Y504685D01*
X133434Y503367D01*
X135981Y502684D01*
X136792D01*
Y512192D01*
D02*
G37*
G36*
X121916D02*
X112408D01*
Y502684D01*
X113219D01*
X115766Y503367D01*
X118050Y504685D01*
X119915Y506550D01*
X121233Y508834D01*
X121916Y511381D01*
Y512192D01*
D02*
G37*
G36*
X111392D02*
X101884D01*
Y511381D01*
X102567Y508834D01*
X103885Y506550D01*
X105750Y504685D01*
X108034Y503367D01*
X110581Y502684D01*
X111392D01*
Y512192D01*
D02*
G37*
G36*
X96516D02*
X87008D01*
Y502684D01*
X87819D01*
X90366Y503367D01*
X92650Y504685D01*
X94515Y506550D01*
X95833Y508834D01*
X96516Y511381D01*
Y512192D01*
D02*
G37*
G36*
X85992D02*
X76484D01*
Y511381D01*
X77167Y508834D01*
X78485Y506550D01*
X80350Y504685D01*
X82634Y503367D01*
X85181Y502684D01*
X85992D01*
Y512192D01*
D02*
G37*
G36*
X214819Y497316D02*
X214008D01*
Y487808D01*
X223516D01*
Y488619D01*
X222833Y491166D01*
X221515Y493450D01*
X219650Y495315D01*
X217366Y496633D01*
X214819Y497316D01*
D02*
G37*
G36*
X212992D02*
X212181D01*
X209634Y496633D01*
X207350Y495315D01*
X205485Y493450D01*
X204167Y491166D01*
X203484Y488619D01*
Y487808D01*
X212992D01*
Y497316D01*
D02*
G37*
G36*
X189419D02*
X188608D01*
Y487808D01*
X198116D01*
Y488619D01*
X197433Y491166D01*
X196115Y493450D01*
X194250Y495315D01*
X191966Y496633D01*
X189419Y497316D01*
D02*
G37*
G36*
X187592D02*
X186781D01*
X184234Y496633D01*
X181950Y495315D01*
X180085Y493450D01*
X178767Y491166D01*
X178084Y488619D01*
Y487808D01*
X187592D01*
Y497316D01*
D02*
G37*
G36*
X164019D02*
X163208D01*
Y487808D01*
X172716D01*
Y488619D01*
X172033Y491166D01*
X170715Y493450D01*
X168850Y495315D01*
X166566Y496633D01*
X164019Y497316D01*
D02*
G37*
G36*
X162192D02*
X161381D01*
X158834Y496633D01*
X156550Y495315D01*
X154685Y493450D01*
X153367Y491166D01*
X152684Y488619D01*
Y487808D01*
X162192D01*
Y497316D01*
D02*
G37*
G36*
X138619D02*
X137808D01*
Y487808D01*
X147316D01*
Y488619D01*
X146633Y491166D01*
X145315Y493450D01*
X143450Y495315D01*
X141166Y496633D01*
X138619Y497316D01*
D02*
G37*
G36*
X136792D02*
X135981D01*
X133434Y496633D01*
X131150Y495315D01*
X129285Y493450D01*
X127967Y491166D01*
X127284Y488619D01*
Y487808D01*
X136792D01*
Y497316D01*
D02*
G37*
G36*
X113219D02*
X112408D01*
Y487808D01*
X121916D01*
Y488619D01*
X121233Y491166D01*
X119915Y493450D01*
X118050Y495315D01*
X115766Y496633D01*
X113219Y497316D01*
D02*
G37*
G36*
X111392D02*
X110581D01*
X108034Y496633D01*
X105750Y495315D01*
X103885Y493450D01*
X102567Y491166D01*
X101884Y488619D01*
Y487808D01*
X111392D01*
Y497316D01*
D02*
G37*
G36*
X87819D02*
X87008D01*
Y487808D01*
X96516D01*
Y488619D01*
X95833Y491166D01*
X94515Y493450D01*
X92650Y495315D01*
X90366Y496633D01*
X87819Y497316D01*
D02*
G37*
G36*
X85992D02*
X85181D01*
X82634Y496633D01*
X80350Y495315D01*
X78485Y493450D01*
X77167Y491166D01*
X76484Y488619D01*
Y487808D01*
X85992D01*
Y497316D01*
D02*
G37*
G36*
X354826Y511852D02*
X343918D01*
Y487444D01*
X354826D01*
Y511852D01*
D02*
G37*
G36*
X342902D02*
X331994D01*
Y487444D01*
X342902D01*
Y511852D01*
D02*
G37*
G36*
X302550Y541100D02*
X260000D01*
X259222Y540778D01*
X258900Y540000D01*
Y485710D01*
X259222Y484932D01*
X260000Y484610D01*
X262586D01*
X262901Y484480D01*
X264599D01*
X264914Y484610D01*
X270086D01*
X270401Y484480D01*
X272099D01*
X272414Y484610D01*
X302550D01*
X303328Y484932D01*
X303650Y485710D01*
Y540000D01*
X303328Y540778D01*
X302550Y541100D01*
D02*
G37*
G36*
X1414819Y497316D02*
X1412181D01*
X1409634Y496633D01*
X1407350Y495315D01*
X1405485Y493450D01*
X1404167Y491166D01*
X1403484Y488619D01*
Y485981D01*
X1404167Y483434D01*
X1405485Y481150D01*
X1407350Y479285D01*
X1409634Y477967D01*
X1412181Y477284D01*
X1414819D01*
X1417366Y477967D01*
X1419650Y479285D01*
X1421515Y481150D01*
X1422833Y483434D01*
X1423516Y485981D01*
Y488619D01*
X1422833Y491166D01*
X1421515Y493450D01*
X1419650Y495315D01*
X1417366Y496633D01*
X1414819Y497316D01*
D02*
G37*
G36*
X1389419D02*
X1386781D01*
X1384234Y496633D01*
X1381950Y495315D01*
X1380085Y493450D01*
X1378767Y491166D01*
X1378084Y488619D01*
Y485981D01*
X1378767Y483434D01*
X1380085Y481150D01*
X1381950Y479285D01*
X1384234Y477967D01*
X1386781Y477284D01*
X1389419D01*
X1391966Y477967D01*
X1394250Y479285D01*
X1396115Y481150D01*
X1397433Y483434D01*
X1398116Y485981D01*
Y488619D01*
X1397433Y491166D01*
X1396115Y493450D01*
X1394250Y495315D01*
X1391966Y496633D01*
X1389419Y497316D01*
D02*
G37*
G36*
X1364019D02*
X1361381D01*
X1358834Y496633D01*
X1356550Y495315D01*
X1354685Y493450D01*
X1353367Y491166D01*
X1352684Y488619D01*
Y485981D01*
X1353367Y483434D01*
X1354685Y481150D01*
X1356550Y479285D01*
X1358834Y477967D01*
X1361381Y477284D01*
X1364019D01*
X1366566Y477967D01*
X1368850Y479285D01*
X1370715Y481150D01*
X1372033Y483434D01*
X1372716Y485981D01*
Y488619D01*
X1372033Y491166D01*
X1370715Y493450D01*
X1368850Y495315D01*
X1366566Y496633D01*
X1364019Y497316D01*
D02*
G37*
G36*
X1338619D02*
X1335981D01*
X1333434Y496633D01*
X1331150Y495315D01*
X1329285Y493450D01*
X1327967Y491166D01*
X1327284Y488619D01*
Y485981D01*
X1327967Y483434D01*
X1329285Y481150D01*
X1331150Y479285D01*
X1333434Y477967D01*
X1335981Y477284D01*
X1338619D01*
X1341166Y477967D01*
X1343450Y479285D01*
X1345315Y481150D01*
X1346633Y483434D01*
X1347316Y485981D01*
Y488619D01*
X1346633Y491166D01*
X1345315Y493450D01*
X1343450Y495315D01*
X1341166Y496633D01*
X1338619Y497316D01*
D02*
G37*
G36*
X1313219D02*
X1310581D01*
X1308034Y496633D01*
X1305750Y495315D01*
X1303885Y493450D01*
X1302567Y491166D01*
X1301884Y488619D01*
Y485981D01*
X1302567Y483434D01*
X1303885Y481150D01*
X1305750Y479285D01*
X1308034Y477967D01*
X1310581Y477284D01*
X1313219D01*
X1315766Y477967D01*
X1318050Y479285D01*
X1319915Y481150D01*
X1321233Y483434D01*
X1321916Y485981D01*
Y488619D01*
X1321233Y491166D01*
X1319915Y493450D01*
X1318050Y495315D01*
X1315766Y496633D01*
X1313219Y497316D01*
D02*
G37*
G36*
X1287819D02*
X1285181D01*
X1282634Y496633D01*
X1280350Y495315D01*
X1278485Y493450D01*
X1277167Y491166D01*
X1276484Y488619D01*
Y485981D01*
X1277167Y483434D01*
X1278485Y481150D01*
X1280350Y479285D01*
X1282634Y477967D01*
X1285181Y477284D01*
X1287819D01*
X1290366Y477967D01*
X1292650Y479285D01*
X1294515Y481150D01*
X1295833Y483434D01*
X1296516Y485981D01*
Y488619D01*
X1295833Y491166D01*
X1294515Y493450D01*
X1292650Y495315D01*
X1290366Y496633D01*
X1287819Y497316D01*
D02*
G37*
G36*
X223516Y486792D02*
X214008D01*
Y477284D01*
X214819D01*
X217366Y477967D01*
X219650Y479285D01*
X221515Y481150D01*
X222833Y483434D01*
X223516Y485981D01*
Y486792D01*
D02*
G37*
G36*
X212992D02*
X203484D01*
Y485981D01*
X204167Y483434D01*
X205485Y481150D01*
X207350Y479285D01*
X209634Y477967D01*
X212181Y477284D01*
X212992D01*
Y486792D01*
D02*
G37*
G36*
X198116D02*
X188608D01*
Y477284D01*
X189419D01*
X191966Y477967D01*
X194250Y479285D01*
X196115Y481150D01*
X197433Y483434D01*
X198116Y485981D01*
Y486792D01*
D02*
G37*
G36*
X187592D02*
X178084D01*
Y485981D01*
X178767Y483434D01*
X180085Y481150D01*
X181950Y479285D01*
X184234Y477967D01*
X186781Y477284D01*
X187592D01*
Y486792D01*
D02*
G37*
G36*
X172716D02*
X163208D01*
Y477284D01*
X164019D01*
X166566Y477967D01*
X168850Y479285D01*
X170715Y481150D01*
X172033Y483434D01*
X172716Y485981D01*
Y486792D01*
D02*
G37*
G36*
X162192D02*
X152684D01*
Y485981D01*
X153367Y483434D01*
X154685Y481150D01*
X156550Y479285D01*
X158834Y477967D01*
X161381Y477284D01*
X162192D01*
Y486792D01*
D02*
G37*
G36*
X147316D02*
X137808D01*
Y477284D01*
X138619D01*
X141166Y477967D01*
X143450Y479285D01*
X145315Y481150D01*
X146633Y483434D01*
X147316Y485981D01*
Y486792D01*
D02*
G37*
G36*
X136792D02*
X127284D01*
Y485981D01*
X127967Y483434D01*
X129285Y481150D01*
X131150Y479285D01*
X133434Y477967D01*
X135981Y477284D01*
X136792D01*
Y486792D01*
D02*
G37*
G36*
X121916D02*
X112408D01*
Y477284D01*
X113219D01*
X115766Y477967D01*
X118050Y479285D01*
X119915Y481150D01*
X121233Y483434D01*
X121916Y485981D01*
Y486792D01*
D02*
G37*
G36*
X111392D02*
X101884D01*
Y485981D01*
X102567Y483434D01*
X103885Y481150D01*
X105750Y479285D01*
X108034Y477967D01*
X110581Y477284D01*
X111392D01*
Y486792D01*
D02*
G37*
G36*
X96516D02*
X87008D01*
Y477284D01*
X87819D01*
X90366Y477967D01*
X92650Y479285D01*
X94515Y481150D01*
X95833Y483434D01*
X96516Y485981D01*
Y486792D01*
D02*
G37*
G36*
X85992D02*
X76484D01*
Y485981D01*
X77167Y483434D01*
X78485Y481150D01*
X80350Y479285D01*
X82634Y477967D01*
X85181Y477284D01*
X85992D01*
Y486792D01*
D02*
G37*
G36*
X1225000Y532890D02*
X1182450D01*
X1181672Y532568D01*
X1181350Y531790D01*
Y477500D01*
X1181672Y476722D01*
X1182450Y476400D01*
X1225000D01*
X1225778Y476722D01*
X1226100Y477500D01*
Y531790D01*
X1225778Y532568D01*
X1225000Y532890D01*
D02*
G37*
G36*
X1156300Y529850D02*
X1113750D01*
X1112972Y529528D01*
X1112650Y528750D01*
Y474460D01*
X1112972Y473682D01*
X1113750Y473360D01*
X1116336D01*
X1116651Y473230D01*
X1118349D01*
X1118664Y473360D01*
X1123836D01*
X1124151Y473230D01*
X1125849D01*
X1126164Y473360D01*
X1156300D01*
X1157078Y473682D01*
X1157400Y474460D01*
Y528750D01*
X1157078Y529528D01*
X1156300Y529850D01*
D02*
G37*
G36*
X214819Y471916D02*
X214008D01*
Y462408D01*
X223516D01*
Y463219D01*
X222833Y465766D01*
X221515Y468050D01*
X219650Y469915D01*
X217366Y471233D01*
X214819Y471916D01*
D02*
G37*
G36*
X212992D02*
X212181D01*
X209634Y471233D01*
X207350Y469915D01*
X205485Y468050D01*
X204167Y465766D01*
X203484Y463219D01*
Y462408D01*
X212992D01*
Y471916D01*
D02*
G37*
G36*
X189419D02*
X188608D01*
Y462408D01*
X198116D01*
Y463219D01*
X197433Y465766D01*
X196115Y468050D01*
X194250Y469915D01*
X191966Y471233D01*
X189419Y471916D01*
D02*
G37*
G36*
X187592D02*
X186781D01*
X184234Y471233D01*
X181950Y469915D01*
X180085Y468050D01*
X178767Y465766D01*
X178084Y463219D01*
Y462408D01*
X187592D01*
Y471916D01*
D02*
G37*
G36*
X164019D02*
X163208D01*
Y462408D01*
X172716D01*
Y463219D01*
X172033Y465766D01*
X170715Y468050D01*
X168850Y469915D01*
X166566Y471233D01*
X164019Y471916D01*
D02*
G37*
G36*
X162192D02*
X161381D01*
X158834Y471233D01*
X156550Y469915D01*
X154685Y468050D01*
X153367Y465766D01*
X152684Y463219D01*
Y462408D01*
X162192D01*
Y471916D01*
D02*
G37*
G36*
X138619D02*
X137808D01*
Y462408D01*
X147316D01*
Y463219D01*
X146633Y465766D01*
X145315Y468050D01*
X143450Y469915D01*
X141166Y471233D01*
X138619Y471916D01*
D02*
G37*
G36*
X136792D02*
X135981D01*
X133434Y471233D01*
X131150Y469915D01*
X129285Y468050D01*
X127967Y465766D01*
X127284Y463219D01*
Y462408D01*
X136792D01*
Y471916D01*
D02*
G37*
G36*
X113219D02*
X112408D01*
Y462408D01*
X121916D01*
Y463219D01*
X121233Y465766D01*
X119915Y468050D01*
X118050Y469915D01*
X115766Y471233D01*
X113219Y471916D01*
D02*
G37*
G36*
X111392D02*
X110581D01*
X108034Y471233D01*
X105750Y469915D01*
X103885Y468050D01*
X102567Y465766D01*
X101884Y463219D01*
Y462408D01*
X111392D01*
Y471916D01*
D02*
G37*
G36*
X87819D02*
X87008D01*
Y462408D01*
X96516D01*
Y463219D01*
X95833Y465766D01*
X94515Y468050D01*
X92650Y469915D01*
X90366Y471233D01*
X87819Y471916D01*
D02*
G37*
G36*
X85992D02*
X85181D01*
X82634Y471233D01*
X80350Y469915D01*
X78485Y468050D01*
X77167Y465766D01*
X76484Y463219D01*
Y462408D01*
X85992D01*
Y471916D01*
D02*
G37*
G36*
X1414819D02*
X1412181D01*
X1409634Y471233D01*
X1407350Y469915D01*
X1405485Y468050D01*
X1404167Y465766D01*
X1403484Y463219D01*
Y460581D01*
X1404167Y458034D01*
X1405485Y455750D01*
X1407350Y453885D01*
X1409634Y452567D01*
X1412181Y451884D01*
X1414819D01*
X1417366Y452567D01*
X1419650Y453885D01*
X1421515Y455750D01*
X1422833Y458034D01*
X1423516Y460581D01*
Y463219D01*
X1422833Y465766D01*
X1421515Y468050D01*
X1419650Y469915D01*
X1417366Y471233D01*
X1414819Y471916D01*
D02*
G37*
G36*
X1389419D02*
X1386781D01*
X1384234Y471233D01*
X1381950Y469915D01*
X1380085Y468050D01*
X1378767Y465766D01*
X1378084Y463219D01*
Y460581D01*
X1378767Y458034D01*
X1380085Y455750D01*
X1381950Y453885D01*
X1384234Y452567D01*
X1386781Y451884D01*
X1389419D01*
X1391966Y452567D01*
X1394250Y453885D01*
X1396115Y455750D01*
X1397433Y458034D01*
X1398116Y460581D01*
Y463219D01*
X1397433Y465766D01*
X1396115Y468050D01*
X1394250Y469915D01*
X1391966Y471233D01*
X1389419Y471916D01*
D02*
G37*
G36*
X1364019D02*
X1361381D01*
X1358834Y471233D01*
X1356550Y469915D01*
X1354685Y468050D01*
X1353367Y465766D01*
X1352684Y463219D01*
Y460581D01*
X1353367Y458034D01*
X1354685Y455750D01*
X1356550Y453885D01*
X1358834Y452567D01*
X1361381Y451884D01*
X1364019D01*
X1366566Y452567D01*
X1368850Y453885D01*
X1370715Y455750D01*
X1372033Y458034D01*
X1372716Y460581D01*
Y463219D01*
X1372033Y465766D01*
X1370715Y468050D01*
X1368850Y469915D01*
X1366566Y471233D01*
X1364019Y471916D01*
D02*
G37*
G36*
X1338619D02*
X1335981D01*
X1333434Y471233D01*
X1331150Y469915D01*
X1329285Y468050D01*
X1327967Y465766D01*
X1327284Y463219D01*
Y460581D01*
X1327967Y458034D01*
X1329285Y455750D01*
X1331150Y453885D01*
X1333434Y452567D01*
X1335981Y451884D01*
X1338619D01*
X1341166Y452567D01*
X1343450Y453885D01*
X1345315Y455750D01*
X1346633Y458034D01*
X1347316Y460581D01*
Y463219D01*
X1346633Y465766D01*
X1345315Y468050D01*
X1343450Y469915D01*
X1341166Y471233D01*
X1338619Y471916D01*
D02*
G37*
G36*
X1313219D02*
X1310581D01*
X1308034Y471233D01*
X1305750Y469915D01*
X1303885Y468050D01*
X1302567Y465766D01*
X1301884Y463219D01*
Y460581D01*
X1302567Y458034D01*
X1303885Y455750D01*
X1305750Y453885D01*
X1308034Y452567D01*
X1310581Y451884D01*
X1313219D01*
X1315766Y452567D01*
X1318050Y453885D01*
X1319915Y455750D01*
X1321233Y458034D01*
X1321916Y460581D01*
Y463219D01*
X1321233Y465766D01*
X1319915Y468050D01*
X1318050Y469915D01*
X1315766Y471233D01*
X1313219Y471916D01*
D02*
G37*
G36*
X1287819D02*
X1285181D01*
X1282634Y471233D01*
X1280350Y469915D01*
X1278485Y468050D01*
X1277167Y465766D01*
X1276484Y463219D01*
Y460581D01*
X1277167Y458034D01*
X1278485Y455750D01*
X1280350Y453885D01*
X1282634Y452567D01*
X1285181Y451884D01*
X1287819D01*
X1290366Y452567D01*
X1292650Y453885D01*
X1294515Y455750D01*
X1295833Y458034D01*
X1296516Y460581D01*
Y463219D01*
X1295833Y465766D01*
X1294515Y468050D01*
X1292650Y469915D01*
X1290366Y471233D01*
X1287819Y471916D01*
D02*
G37*
G36*
X223516Y461392D02*
X214008D01*
Y451884D01*
X214819D01*
X217366Y452567D01*
X219650Y453885D01*
X221515Y455750D01*
X222833Y458034D01*
X223516Y460581D01*
Y461392D01*
D02*
G37*
G36*
X212992D02*
X203484D01*
Y460581D01*
X204167Y458034D01*
X205485Y455750D01*
X207350Y453885D01*
X209634Y452567D01*
X212181Y451884D01*
X212992D01*
Y461392D01*
D02*
G37*
G36*
X198116D02*
X188608D01*
Y451884D01*
X189419D01*
X191966Y452567D01*
X194250Y453885D01*
X196115Y455750D01*
X197433Y458034D01*
X198116Y460581D01*
Y461392D01*
D02*
G37*
G36*
X187592D02*
X178084D01*
Y460581D01*
X178767Y458034D01*
X180085Y455750D01*
X181950Y453885D01*
X184234Y452567D01*
X186781Y451884D01*
X187592D01*
Y461392D01*
D02*
G37*
G36*
X172716D02*
X163208D01*
Y451884D01*
X164019D01*
X166566Y452567D01*
X168850Y453885D01*
X170715Y455750D01*
X172033Y458034D01*
X172716Y460581D01*
Y461392D01*
D02*
G37*
G36*
X162192D02*
X152684D01*
Y460581D01*
X153367Y458034D01*
X154685Y455750D01*
X156550Y453885D01*
X158834Y452567D01*
X161381Y451884D01*
X162192D01*
Y461392D01*
D02*
G37*
G36*
X147316D02*
X137808D01*
Y451884D01*
X138619D01*
X141166Y452567D01*
X143450Y453885D01*
X145315Y455750D01*
X146633Y458034D01*
X147316Y460581D01*
Y461392D01*
D02*
G37*
G36*
X136792D02*
X127284D01*
Y460581D01*
X127967Y458034D01*
X129285Y455750D01*
X131150Y453885D01*
X133434Y452567D01*
X135981Y451884D01*
X136792D01*
Y461392D01*
D02*
G37*
G36*
X121916D02*
X112408D01*
Y451884D01*
X113219D01*
X115766Y452567D01*
X118050Y453885D01*
X119915Y455750D01*
X121233Y458034D01*
X121916Y460581D01*
Y461392D01*
D02*
G37*
G36*
X111392D02*
X101884D01*
Y460581D01*
X102567Y458034D01*
X103885Y455750D01*
X105750Y453885D01*
X108034Y452567D01*
X110581Y451884D01*
X111392D01*
Y461392D01*
D02*
G37*
G36*
X96516D02*
X87008D01*
Y451884D01*
X87819D01*
X90366Y452567D01*
X92650Y453885D01*
X94515Y455750D01*
X95833Y458034D01*
X96516Y460581D01*
Y461392D01*
D02*
G37*
G36*
X85992D02*
X76484D01*
Y460581D01*
X77167Y458034D01*
X78485Y455750D01*
X80350Y453885D01*
X82634Y452567D01*
X85181Y451884D01*
X85992D01*
Y461392D01*
D02*
G37*
G36*
X214819Y446516D02*
X214008D01*
Y437008D01*
X223516D01*
Y437819D01*
X222833Y440366D01*
X221515Y442650D01*
X219650Y444515D01*
X217366Y445833D01*
X214819Y446516D01*
D02*
G37*
G36*
X212992D02*
X212181D01*
X209634Y445833D01*
X207350Y444515D01*
X205485Y442650D01*
X204167Y440366D01*
X203484Y437819D01*
Y437008D01*
X212992D01*
Y446516D01*
D02*
G37*
G36*
X189419D02*
X188608D01*
Y437008D01*
X198116D01*
Y437819D01*
X197433Y440366D01*
X196115Y442650D01*
X194250Y444515D01*
X191966Y445833D01*
X189419Y446516D01*
D02*
G37*
G36*
X187592D02*
X186781D01*
X184234Y445833D01*
X181950Y444515D01*
X180085Y442650D01*
X178767Y440366D01*
X178084Y437819D01*
Y437008D01*
X187592D01*
Y446516D01*
D02*
G37*
G36*
X164019D02*
X163208D01*
Y437008D01*
X172716D01*
Y437819D01*
X172033Y440366D01*
X170715Y442650D01*
X168850Y444515D01*
X166566Y445833D01*
X164019Y446516D01*
D02*
G37*
G36*
X162192D02*
X161381D01*
X158834Y445833D01*
X156550Y444515D01*
X154685Y442650D01*
X153367Y440366D01*
X152684Y437819D01*
Y437008D01*
X162192D01*
Y446516D01*
D02*
G37*
G36*
X138619D02*
X137808D01*
Y437008D01*
X147316D01*
Y437819D01*
X146633Y440366D01*
X145315Y442650D01*
X143450Y444515D01*
X141166Y445833D01*
X138619Y446516D01*
D02*
G37*
G36*
X136792D02*
X135981D01*
X133434Y445833D01*
X131150Y444515D01*
X129285Y442650D01*
X127967Y440366D01*
X127284Y437819D01*
Y437008D01*
X136792D01*
Y446516D01*
D02*
G37*
G36*
X113219D02*
X112408D01*
Y437008D01*
X121916D01*
Y437819D01*
X121233Y440366D01*
X119915Y442650D01*
X118050Y444515D01*
X115766Y445833D01*
X113219Y446516D01*
D02*
G37*
G36*
X111392D02*
X110581D01*
X108034Y445833D01*
X105750Y444515D01*
X103885Y442650D01*
X102567Y440366D01*
X101884Y437819D01*
Y437008D01*
X111392D01*
Y446516D01*
D02*
G37*
G36*
X87819D02*
X87008D01*
Y437008D01*
X96516D01*
Y437819D01*
X95833Y440366D01*
X94515Y442650D01*
X92650Y444515D01*
X90366Y445833D01*
X87819Y446516D01*
D02*
G37*
G36*
X85992D02*
X85181D01*
X82634Y445833D01*
X80350Y444515D01*
X78485Y442650D01*
X77167Y440366D01*
X76484Y437819D01*
Y437008D01*
X85992D01*
Y446516D01*
D02*
G37*
G36*
X354826Y460836D02*
X343918D01*
Y436428D01*
X354826D01*
Y460836D01*
D02*
G37*
G36*
X342902D02*
X331994D01*
Y436428D01*
X342902D01*
Y460836D01*
D02*
G37*
G36*
X1414819Y446516D02*
X1412181D01*
X1409634Y445833D01*
X1407350Y444515D01*
X1405485Y442650D01*
X1404167Y440366D01*
X1403484Y437819D01*
Y435181D01*
X1404167Y432634D01*
X1405485Y430350D01*
X1407350Y428485D01*
X1409634Y427167D01*
X1412181Y426484D01*
X1414819D01*
X1417366Y427167D01*
X1419650Y428485D01*
X1421515Y430350D01*
X1422833Y432634D01*
X1423516Y435181D01*
Y437819D01*
X1422833Y440366D01*
X1421515Y442650D01*
X1419650Y444515D01*
X1417366Y445833D01*
X1414819Y446516D01*
D02*
G37*
G36*
X1389419D02*
X1386781D01*
X1384234Y445833D01*
X1381950Y444515D01*
X1380085Y442650D01*
X1378767Y440366D01*
X1378084Y437819D01*
Y435181D01*
X1378767Y432634D01*
X1380085Y430350D01*
X1381950Y428485D01*
X1384234Y427167D01*
X1386781Y426484D01*
X1389419D01*
X1391966Y427167D01*
X1394250Y428485D01*
X1396115Y430350D01*
X1397433Y432634D01*
X1398116Y435181D01*
Y437819D01*
X1397433Y440366D01*
X1396115Y442650D01*
X1394250Y444515D01*
X1391966Y445833D01*
X1389419Y446516D01*
D02*
G37*
G36*
X1364019D02*
X1361381D01*
X1358834Y445833D01*
X1356550Y444515D01*
X1354685Y442650D01*
X1353367Y440366D01*
X1352684Y437819D01*
Y435181D01*
X1353367Y432634D01*
X1354685Y430350D01*
X1356550Y428485D01*
X1358834Y427167D01*
X1361381Y426484D01*
X1364019D01*
X1366566Y427167D01*
X1368850Y428485D01*
X1370715Y430350D01*
X1372033Y432634D01*
X1372716Y435181D01*
Y437819D01*
X1372033Y440366D01*
X1370715Y442650D01*
X1368850Y444515D01*
X1366566Y445833D01*
X1364019Y446516D01*
D02*
G37*
G36*
X1338619D02*
X1335981D01*
X1333434Y445833D01*
X1331150Y444515D01*
X1329285Y442650D01*
X1327967Y440366D01*
X1327284Y437819D01*
Y435181D01*
X1327967Y432634D01*
X1329285Y430350D01*
X1331150Y428485D01*
X1333434Y427167D01*
X1335981Y426484D01*
X1338619D01*
X1341166Y427167D01*
X1343450Y428485D01*
X1345315Y430350D01*
X1346633Y432634D01*
X1347316Y435181D01*
Y437819D01*
X1346633Y440366D01*
X1345315Y442650D01*
X1343450Y444515D01*
X1341166Y445833D01*
X1338619Y446516D01*
D02*
G37*
G36*
X1313219D02*
X1310581D01*
X1308034Y445833D01*
X1305750Y444515D01*
X1303885Y442650D01*
X1302567Y440366D01*
X1301884Y437819D01*
Y435181D01*
X1302567Y432634D01*
X1303885Y430350D01*
X1305750Y428485D01*
X1308034Y427167D01*
X1310581Y426484D01*
X1313219D01*
X1315766Y427167D01*
X1318050Y428485D01*
X1319915Y430350D01*
X1321233Y432634D01*
X1321916Y435181D01*
Y437819D01*
X1321233Y440366D01*
X1319915Y442650D01*
X1318050Y444515D01*
X1315766Y445833D01*
X1313219Y446516D01*
D02*
G37*
G36*
X1287819D02*
X1285181D01*
X1282634Y445833D01*
X1280350Y444515D01*
X1278485Y442650D01*
X1277167Y440366D01*
X1276484Y437819D01*
Y435181D01*
X1277167Y432634D01*
X1278485Y430350D01*
X1280350Y428485D01*
X1282634Y427167D01*
X1285181Y426484D01*
X1287819D01*
X1290366Y427167D01*
X1292650Y428485D01*
X1294515Y430350D01*
X1295833Y432634D01*
X1296516Y435181D01*
Y437819D01*
X1295833Y440366D01*
X1294515Y442650D01*
X1292650Y444515D01*
X1290366Y445833D01*
X1287819Y446516D01*
D02*
G37*
G36*
X223516Y435992D02*
X214008D01*
Y426484D01*
X214819D01*
X217366Y427167D01*
X219650Y428485D01*
X221515Y430350D01*
X222833Y432634D01*
X223516Y435181D01*
Y435992D01*
D02*
G37*
G36*
X212992D02*
X203484D01*
Y435181D01*
X204167Y432634D01*
X205485Y430350D01*
X207350Y428485D01*
X209634Y427167D01*
X212181Y426484D01*
X212992D01*
Y435992D01*
D02*
G37*
G36*
X198116D02*
X188608D01*
Y426484D01*
X189419D01*
X191966Y427167D01*
X194250Y428485D01*
X196115Y430350D01*
X197433Y432634D01*
X198116Y435181D01*
Y435992D01*
D02*
G37*
G36*
X187592D02*
X178084D01*
Y435181D01*
X178767Y432634D01*
X180085Y430350D01*
X181950Y428485D01*
X184234Y427167D01*
X186781Y426484D01*
X187592D01*
Y435992D01*
D02*
G37*
G36*
X172716D02*
X163208D01*
Y426484D01*
X164019D01*
X166566Y427167D01*
X168850Y428485D01*
X170715Y430350D01*
X172033Y432634D01*
X172716Y435181D01*
Y435992D01*
D02*
G37*
G36*
X162192D02*
X152684D01*
Y435181D01*
X153367Y432634D01*
X154685Y430350D01*
X156550Y428485D01*
X158834Y427167D01*
X161381Y426484D01*
X162192D01*
Y435992D01*
D02*
G37*
G36*
X147316D02*
X137808D01*
Y426484D01*
X138619D01*
X141166Y427167D01*
X143450Y428485D01*
X145315Y430350D01*
X146633Y432634D01*
X147316Y435181D01*
Y435992D01*
D02*
G37*
G36*
X136792D02*
X127284D01*
Y435181D01*
X127967Y432634D01*
X129285Y430350D01*
X131150Y428485D01*
X133434Y427167D01*
X135981Y426484D01*
X136792D01*
Y435992D01*
D02*
G37*
G36*
X121916D02*
X112408D01*
Y426484D01*
X113219D01*
X115766Y427167D01*
X118050Y428485D01*
X119915Y430350D01*
X121233Y432634D01*
X121916Y435181D01*
Y435992D01*
D02*
G37*
G36*
X111392D02*
X101884D01*
Y435181D01*
X102567Y432634D01*
X103885Y430350D01*
X105750Y428485D01*
X108034Y427167D01*
X110581Y426484D01*
X111392D01*
Y435992D01*
D02*
G37*
G36*
X96516D02*
X87008D01*
Y426484D01*
X87819D01*
X90366Y427167D01*
X92650Y428485D01*
X94515Y430350D01*
X95833Y432634D01*
X96516Y435181D01*
Y435992D01*
D02*
G37*
G36*
X85992D02*
X76484D01*
Y435181D01*
X77167Y432634D01*
X78485Y430350D01*
X80350Y428485D01*
X82634Y427167D01*
X85181Y426484D01*
X85992D01*
Y435992D01*
D02*
G37*
G36*
X566992Y425047D02*
X559173D01*
Y417766D01*
X566992D01*
Y425047D01*
D02*
G37*
G36*
X354826Y435412D02*
X343918D01*
Y411004D01*
X354826D01*
Y435412D01*
D02*
G37*
G36*
X342902D02*
X331994D01*
Y411004D01*
X342902D01*
Y435412D01*
D02*
G37*
G36*
X566992Y416750D02*
X559173D01*
Y409469D01*
X566992D01*
Y416750D01*
D02*
G37*
G36*
X551250Y432350D02*
X530000D01*
X529222Y432028D01*
X528900Y431250D01*
Y408750D01*
X529222Y407972D01*
X530000Y407650D01*
X551250D01*
X552028Y407972D01*
X552350Y408750D01*
Y431250D01*
X552028Y432028D01*
X551250Y432350D01*
D02*
G37*
G36*
X302550Y462350D02*
X260000D01*
X259222Y462028D01*
X258900Y461250D01*
Y406960D01*
X259222Y406182D01*
X260000Y405860D01*
X262586D01*
X262901Y405730D01*
X264599D01*
X264914Y405860D01*
X270086D01*
X270401Y405730D01*
X272099D01*
X272414Y405860D01*
X302550D01*
X303328Y406182D01*
X303650Y406960D01*
Y461250D01*
X303328Y462028D01*
X302550Y462350D01*
D02*
G37*
G36*
X1030000Y500140D02*
X1024998Y499647D01*
X1020188Y498188D01*
X1015755Y495818D01*
X1011870Y492630D01*
X1008681Y488745D01*
X1006312Y484312D01*
X1004853Y479502D01*
X1004361Y474500D01*
Y425500D01*
X1004853Y420498D01*
X1006312Y415688D01*
X1008681Y411255D01*
X1011870Y407370D01*
X1015755Y404182D01*
X1020188Y401812D01*
X1024998Y400353D01*
X1030000Y399860D01*
X1035002Y400353D01*
X1039812Y401812D01*
X1044245Y404182D01*
X1048130Y407370D01*
X1051318Y411255D01*
X1053688Y415688D01*
X1055147Y420498D01*
X1055639Y425500D01*
Y474500D01*
X1055147Y479502D01*
X1053688Y484312D01*
X1051318Y488745D01*
X1048130Y492630D01*
X1044245Y495818D01*
X1039812Y498188D01*
X1035002Y499647D01*
X1030000Y500140D01*
D02*
G37*
G36*
X575827Y405531D02*
X559173D01*
Y399831D01*
X548266D01*
Y404516D01*
X531734D01*
Y390484D01*
X548266D01*
Y395169D01*
X559173D01*
Y389953D01*
X561081D01*
X561759Y388683D01*
X561691Y388581D01*
X560000D01*
X559108Y388403D01*
X558352Y387898D01*
X555852Y385398D01*
X555347Y384642D01*
X555169Y383750D01*
Y379145D01*
X555109Y379000D01*
Y374000D01*
X555590Y372840D01*
X556750Y372359D01*
X558250D01*
X559410Y372840D01*
X559891Y374000D01*
Y379000D01*
X559831Y379145D01*
Y382785D01*
X560965Y383919D01*
X563750D01*
X564642Y384097D01*
X565398Y384602D01*
X569148Y388352D01*
X569653Y389108D01*
X569821Y389953D01*
X575827D01*
Y405531D01*
D02*
G37*
G36*
X1225000Y455390D02*
X1182450D01*
X1181672Y455068D01*
X1181350Y454290D01*
Y400000D01*
X1181672Y399222D01*
X1182450Y398900D01*
X1225000D01*
X1225778Y399222D01*
X1226100Y400000D01*
Y454290D01*
X1225778Y455068D01*
X1225000Y455390D01*
D02*
G37*
G36*
X1156300Y453600D02*
X1113750D01*
X1112972Y453278D01*
X1112650Y452500D01*
Y398210D01*
X1112972Y397432D01*
X1113750Y397110D01*
X1116336D01*
X1116651Y396980D01*
X1118349D01*
X1118664Y397110D01*
X1123836D01*
X1124151Y396980D01*
X1125849D01*
X1126164Y397110D01*
X1156300D01*
X1157078Y397432D01*
X1157400Y398210D01*
Y452500D01*
X1157078Y453278D01*
X1156300Y453600D01*
D02*
G37*
G36*
X1222099Y380520D02*
X1220401D01*
X1220086Y380390D01*
X1214914D01*
X1214599Y380520D01*
X1212901D01*
X1212586Y380390D01*
X1182450D01*
X1181672Y380068D01*
X1181350Y379290D01*
Y325000D01*
X1181672Y324222D01*
X1182450Y323900D01*
X1225000D01*
X1225778Y324222D01*
X1226100Y325000D01*
Y379290D01*
X1225778Y380068D01*
X1225000Y380390D01*
X1222414D01*
X1222099Y380520D01*
D02*
G37*
G36*
X575827Y425047D02*
X568008D01*
Y417258D01*
Y409469D01*
X575827D01*
Y412075D01*
X577097Y412705D01*
X577669Y412270D01*
Y388393D01*
X570852Y381576D01*
X570347Y380819D01*
X570169Y379927D01*
Y379145D01*
X570109Y379000D01*
Y377008D01*
X574891D01*
Y379000D01*
X574884Y379016D01*
X581648Y385779D01*
X582153Y386535D01*
X582331Y387427D01*
Y413750D01*
X582153Y414642D01*
X581648Y415398D01*
X578781Y418265D01*
X578025Y418771D01*
X577133Y418948D01*
X575827D01*
Y425047D01*
D02*
G37*
G36*
X574891Y375992D02*
X573008D01*
Y372359D01*
X573250D01*
X574410Y372840D01*
X574891Y374000D01*
Y375992D01*
D02*
G37*
G36*
X571992D02*
X570109D01*
Y374000D01*
X570590Y372840D01*
X571750Y372359D01*
X571992D01*
Y375992D01*
D02*
G37*
G36*
X354826Y383126D02*
X343918D01*
Y358718D01*
X354826D01*
Y383126D01*
D02*
G37*
G36*
X342902D02*
X331994D01*
Y358718D01*
X342902D01*
Y383126D01*
D02*
G37*
G36*
X853750Y588600D02*
X466250D01*
X465472Y588278D01*
X442972Y565778D01*
X442650Y565000D01*
Y514206D01*
X435794Y507350D01*
X411250D01*
X410472Y507028D01*
X404222Y500778D01*
X403900Y500000D01*
Y461250D01*
X404222Y460472D01*
X407972Y456722D01*
X408750Y456400D01*
X579544Y456400D01*
X583900Y452044D01*
Y381100D01*
X580000D01*
X579222Y380778D01*
X576722Y378278D01*
X576400Y377500D01*
Y371250D01*
X576722Y370472D01*
X577090Y370320D01*
X577597Y369126D01*
X577620Y368880D01*
X577359Y368250D01*
Y366750D01*
X577840Y365590D01*
Y365348D01*
X577771Y364244D01*
X577359Y363250D01*
Y361750D01*
X577771Y360756D01*
X577840Y360590D01*
Y359410D01*
X577771Y359244D01*
X577359Y358250D01*
Y356750D01*
X577628Y356101D01*
X576939Y354831D01*
X574770D01*
Y355750D01*
X574642Y356060D01*
Y367990D01*
X574158Y369158D01*
X572990Y369642D01*
X566060D01*
X565750Y369770D01*
X564250D01*
X563940Y369642D01*
X557010D01*
X555842Y369158D01*
X555358Y367990D01*
Y356060D01*
X555230Y355750D01*
Y354831D01*
X553061D01*
X552372Y356101D01*
X552641Y356750D01*
Y358250D01*
X552160Y359410D01*
X552160Y360590D01*
X552641Y361750D01*
Y363250D01*
X552229Y364244D01*
X552160Y364410D01*
Y365590D01*
X552229Y365756D01*
X552641Y366750D01*
Y368250D01*
X552160Y369410D01*
X552160Y370590D01*
X552641Y371750D01*
Y373250D01*
X552160Y374410D01*
X551000Y374891D01*
X546000D01*
X545855Y374831D01*
X532453D01*
X532331Y374953D01*
Y378512D01*
X532153Y379404D01*
X531648Y380160D01*
X530160Y381648D01*
X529404Y382153D01*
X528512Y382331D01*
X523547D01*
Y387327D01*
X512350D01*
Y390000D01*
X512028Y390778D01*
X511250Y391100D01*
X487500D01*
X486722Y390778D01*
X486400Y390000D01*
Y345000D01*
X486722Y344222D01*
X487500Y343900D01*
X511250D01*
X512028Y344222D01*
X512350Y345000D01*
Y347234D01*
X523266D01*
Y352669D01*
X526012D01*
X526904Y352847D01*
X527660Y353352D01*
X528899Y354591D01*
X529876Y354320D01*
X530169Y354111D01*
Y343465D01*
X529035Y342331D01*
X507500D01*
X506608Y342153D01*
X505852Y341648D01*
X500852Y336648D01*
X500347Y335892D01*
X500169Y335000D01*
Y333016D01*
X494984D01*
Y316984D01*
X498419D01*
Y311716D01*
X488352Y301648D01*
X487847Y300892D01*
X487669Y300000D01*
Y288077D01*
X482681D01*
Y276467D01*
X497319D01*
Y288077D01*
X492331D01*
Y299035D01*
X502398Y309102D01*
X502903Y309858D01*
X503081Y310750D01*
Y316984D01*
X506516D01*
Y333016D01*
X505438D01*
X505082Y334286D01*
X508465Y337669D01*
X530000D01*
X530892Y337847D01*
X531648Y338352D01*
X532746Y339450D01*
X533919Y338964D01*
Y327453D01*
X533797Y327331D01*
X525016D01*
Y333016D01*
X513484D01*
Y316984D01*
X516919D01*
Y290547D01*
X512173D01*
Y276969D01*
X527827D01*
Y281427D01*
X542234D01*
Y276734D01*
X557766D01*
Y280169D01*
X567734D01*
Y277984D01*
X582266D01*
Y280669D01*
X592173D01*
Y276969D01*
X607827D01*
Y290547D01*
X592173D01*
Y285331D01*
X582266D01*
Y288016D01*
X567734D01*
Y284831D01*
X557766D01*
Y288266D01*
X542234D01*
Y286089D01*
X527827D01*
Y290547D01*
X521581D01*
Y316984D01*
X525016D01*
Y322669D01*
X534762D01*
X535654Y322847D01*
X536410Y323352D01*
X537898Y324840D01*
X538403Y325596D01*
X538581Y326488D01*
Y355047D01*
X538703Y355169D01*
X543939D01*
X544628Y353899D01*
X544359Y353250D01*
Y351750D01*
X544771Y350756D01*
X544840Y350590D01*
Y349410D01*
X544771Y349244D01*
X544359Y348250D01*
Y346750D01*
X544628Y346101D01*
X544040Y344935D01*
X543947Y344823D01*
X543096Y344653D01*
X542340Y344148D01*
X540852Y342660D01*
X540347Y341904D01*
X540169Y341012D01*
Y316968D01*
X540347Y316076D01*
X540852Y315320D01*
X541980Y314192D01*
Y312901D01*
X542630Y311331D01*
X543831Y310130D01*
X545401Y309480D01*
X547099D01*
X548669Y310130D01*
X549870Y311331D01*
X550520Y312901D01*
Y314599D01*
X549870Y316169D01*
X548669Y317370D01*
X547099Y318020D01*
X545401D01*
X544831Y319159D01*
Y334219D01*
X546000Y335109D01*
X551000D01*
X552160Y335590D01*
X552641Y336750D01*
Y338250D01*
X552160Y339410D01*
X552160Y340590D01*
X552641Y341750D01*
Y343250D01*
X552229Y344244D01*
X552160Y344410D01*
Y345590D01*
X552229Y345756D01*
X552641Y346750D01*
Y348250D01*
X552372Y348899D01*
X553061Y350169D01*
X555358D01*
Y342010D01*
X555842Y340842D01*
X557010Y340358D01*
X563940D01*
X564250Y340230D01*
X565750D01*
X566060Y340358D01*
X571345D01*
X572793Y338911D01*
X572267Y337641D01*
X571750D01*
X570590Y337160D01*
X570109Y336000D01*
Y331000D01*
X570169Y330855D01*
Y323750D01*
X570347Y322858D01*
X570852Y322102D01*
X599602Y293352D01*
X600358Y292847D01*
X601250Y292669D01*
X619035D01*
X619918Y291786D01*
X619392Y290516D01*
X616734D01*
Y277984D01*
X633266D01*
Y281919D01*
X641234D01*
Y277468D01*
X639964Y276619D01*
X639599Y276770D01*
X637901D01*
X636331Y276120D01*
X636311Y276100D01*
X635000D01*
X634222Y275778D01*
X633900Y275000D01*
Y274451D01*
X632630Y273925D01*
X630778Y275778D01*
X630000Y276100D01*
X617500D01*
X616722Y275778D01*
X612370Y271425D01*
X611100Y271951D01*
Y272500D01*
X610778Y273278D01*
X610000Y273600D01*
X592500D01*
X591722Y273278D01*
X591400Y272500D01*
Y242600D01*
X577837D01*
X577060Y242278D01*
X574222Y239440D01*
X573900Y238662D01*
X573900Y227500D01*
X574222Y226722D01*
X575472Y225472D01*
X576250Y225150D01*
X609443D01*
X610360Y224177D01*
X610434Y223977D01*
X610329Y223600D01*
X477500D01*
X476722Y223278D01*
X452044Y198600D01*
X407500D01*
X406722Y198278D01*
X401722Y193278D01*
X401400Y192500D01*
Y177500D01*
X401722Y176722D01*
X406722Y171722D01*
X407500Y171400D01*
X415463D01*
X415787Y170172D01*
X413297Y168735D01*
X411265Y166703D01*
X409828Y164213D01*
X409084Y161437D01*
Y158563D01*
X409828Y155787D01*
X411265Y153297D01*
X413297Y151265D01*
X415787Y149828D01*
X418563Y149084D01*
X421437D01*
X424213Y149828D01*
X426703Y151265D01*
X428735Y153297D01*
X430172Y155787D01*
X430916Y158563D01*
Y161437D01*
X430172Y164213D01*
X428735Y166703D01*
X426703Y168735D01*
X424213Y170172D01*
X424537Y171400D01*
X852500D01*
X853278Y171722D01*
X870778Y189222D01*
X871100Y190000D01*
Y571250D01*
X870778Y572028D01*
X854528Y588278D01*
X853750Y588600D01*
D02*
G37*
G36*
X354826Y357702D02*
X343918D01*
Y333294D01*
X354826D01*
Y357702D01*
D02*
G37*
G36*
X342902D02*
X331994D01*
Y333294D01*
X342902D01*
Y357702D01*
D02*
G37*
G36*
X302550Y386100D02*
X260000D01*
X259222Y385778D01*
X258900Y385000D01*
Y330710D01*
X259222Y329932D01*
X260000Y329610D01*
X262586D01*
X262901Y329480D01*
X264599D01*
X264914Y329610D01*
X270086D01*
X270401Y329480D01*
X272099D01*
X272414Y329610D01*
X302550D01*
X303328Y329932D01*
X303650Y330710D01*
Y385000D01*
X303328Y385778D01*
X302550Y386100D01*
D02*
G37*
G36*
X1156300Y378600D02*
X1113750D01*
X1112972Y378278D01*
X1112650Y377500D01*
Y323210D01*
X1112972Y322432D01*
X1113750Y322110D01*
X1156300D01*
X1157078Y322432D01*
X1157400Y323210D01*
Y377500D01*
X1157078Y378278D01*
X1156300Y378600D01*
D02*
G37*
G36*
X558250Y337641D02*
X556750D01*
X555590Y337160D01*
X555109Y336000D01*
Y331000D01*
X555169Y330855D01*
Y327500D01*
X555347Y326608D01*
X555852Y325852D01*
X556500Y325204D01*
Y324304D01*
X557033Y323017D01*
X558017Y322033D01*
X559304Y321500D01*
X560696D01*
X561983Y322033D01*
X562967Y323017D01*
X563500Y324304D01*
Y325696D01*
X562967Y326983D01*
X561983Y327967D01*
X560696Y328500D01*
X559831D01*
Y330855D01*
X559891Y331000D01*
Y336000D01*
X559410Y337160D01*
X558250Y337641D01*
D02*
G37*
G36*
X1222099Y304270D02*
X1220401D01*
X1220086Y304140D01*
X1214914D01*
X1214599Y304270D01*
X1212901D01*
X1212586Y304140D01*
X1182450D01*
X1181672Y303818D01*
X1181350Y303040D01*
Y248750D01*
X1181672Y247972D01*
X1182450Y247650D01*
X1225000D01*
X1225778Y247972D01*
X1226100Y248750D01*
Y303040D01*
X1225778Y303818D01*
X1225000Y304140D01*
X1222414D01*
X1222099Y304270D01*
D02*
G37*
G36*
X354826Y306686D02*
X343918D01*
Y282278D01*
X354826D01*
Y306686D01*
D02*
G37*
G36*
X342902D02*
X331994D01*
Y282278D01*
X342902D01*
Y306686D01*
D02*
G37*
G36*
X497319Y273533D02*
X482681D01*
Y261923D01*
X497319D01*
Y265397D01*
X512173D01*
Y259453D01*
X527827D01*
Y273031D01*
X512173D01*
Y270059D01*
X497319D01*
Y273533D01*
D02*
G37*
G36*
X354826Y281262D02*
X343918D01*
Y256854D01*
X354826D01*
Y281262D01*
D02*
G37*
G36*
X342902D02*
X331994D01*
Y256854D01*
X342902D01*
Y281262D01*
D02*
G37*
G36*
X302550Y311100D02*
X260000D01*
X259222Y310778D01*
X258900Y310000D01*
Y255710D01*
X259222Y254932D01*
X260000Y254610D01*
X302550D01*
X303328Y254932D01*
X303650Y255710D01*
Y310000D01*
X303328Y310778D01*
X302550Y311100D01*
D02*
G37*
G36*
X1414819Y273516D02*
X1412181D01*
X1409634Y272833D01*
X1407350Y271515D01*
X1405485Y269650D01*
X1404167Y267366D01*
X1403484Y264819D01*
Y262181D01*
X1404167Y259634D01*
X1405485Y257350D01*
X1407350Y255485D01*
X1409634Y254167D01*
X1412181Y253484D01*
X1414819D01*
X1417366Y254167D01*
X1419650Y255485D01*
X1421515Y257350D01*
X1422833Y259634D01*
X1423516Y262181D01*
Y264819D01*
X1422833Y267366D01*
X1421515Y269650D01*
X1419650Y271515D01*
X1417366Y272833D01*
X1414819Y273516D01*
D02*
G37*
G36*
X1389419D02*
X1386781D01*
X1384234Y272833D01*
X1381950Y271515D01*
X1380085Y269650D01*
X1378767Y267366D01*
X1378084Y264819D01*
Y262181D01*
X1378767Y259634D01*
X1380085Y257350D01*
X1381950Y255485D01*
X1384234Y254167D01*
X1386781Y253484D01*
X1389419D01*
X1391966Y254167D01*
X1394250Y255485D01*
X1396115Y257350D01*
X1397433Y259634D01*
X1398116Y262181D01*
Y264819D01*
X1397433Y267366D01*
X1396115Y269650D01*
X1394250Y271515D01*
X1391966Y272833D01*
X1389419Y273516D01*
D02*
G37*
G36*
X1364019D02*
X1361381D01*
X1358834Y272833D01*
X1356550Y271515D01*
X1354685Y269650D01*
X1353367Y267366D01*
X1352684Y264819D01*
Y262181D01*
X1353367Y259634D01*
X1354685Y257350D01*
X1356550Y255485D01*
X1358834Y254167D01*
X1361381Y253484D01*
X1364019D01*
X1366566Y254167D01*
X1368850Y255485D01*
X1370715Y257350D01*
X1372033Y259634D01*
X1372716Y262181D01*
Y264819D01*
X1372033Y267366D01*
X1370715Y269650D01*
X1368850Y271515D01*
X1366566Y272833D01*
X1364019Y273516D01*
D02*
G37*
G36*
X1338619D02*
X1335981D01*
X1333434Y272833D01*
X1331150Y271515D01*
X1329285Y269650D01*
X1327967Y267366D01*
X1327284Y264819D01*
Y262181D01*
X1327967Y259634D01*
X1329285Y257350D01*
X1331150Y255485D01*
X1333434Y254167D01*
X1335981Y253484D01*
X1338619D01*
X1341166Y254167D01*
X1343450Y255485D01*
X1345315Y257350D01*
X1346633Y259634D01*
X1347316Y262181D01*
Y264819D01*
X1346633Y267366D01*
X1345315Y269650D01*
X1343450Y271515D01*
X1341166Y272833D01*
X1338619Y273516D01*
D02*
G37*
G36*
X1313219D02*
X1310581D01*
X1308034Y272833D01*
X1305750Y271515D01*
X1303885Y269650D01*
X1302567Y267366D01*
X1301884Y264819D01*
Y262181D01*
X1302567Y259634D01*
X1303885Y257350D01*
X1305750Y255485D01*
X1308034Y254167D01*
X1310581Y253484D01*
X1313219D01*
X1315766Y254167D01*
X1318050Y255485D01*
X1319915Y257350D01*
X1321233Y259634D01*
X1321916Y262181D01*
Y264819D01*
X1321233Y267366D01*
X1319915Y269650D01*
X1318050Y271515D01*
X1315766Y272833D01*
X1313219Y273516D01*
D02*
G37*
G36*
X1287819D02*
X1285181D01*
X1282634Y272833D01*
X1280350Y271515D01*
X1278485Y269650D01*
X1277167Y267366D01*
X1276484Y264819D01*
Y262181D01*
X1277167Y259634D01*
X1278485Y257350D01*
X1280350Y255485D01*
X1282634Y254167D01*
X1285181Y253484D01*
X1287819D01*
X1290366Y254167D01*
X1292650Y255485D01*
X1294515Y257350D01*
X1295833Y259634D01*
X1296516Y262181D01*
Y264819D01*
X1295833Y267366D01*
X1294515Y269650D01*
X1292650Y271515D01*
X1290366Y272833D01*
X1287819Y273516D01*
D02*
G37*
G36*
X214819D02*
X212181D01*
X209634Y272833D01*
X207350Y271515D01*
X205485Y269650D01*
X204167Y267366D01*
X203484Y264819D01*
Y262181D01*
X204167Y259634D01*
X205485Y257350D01*
X207350Y255485D01*
X209634Y254167D01*
X212181Y253484D01*
X214819D01*
X217366Y254167D01*
X219650Y255485D01*
X221515Y257350D01*
X222833Y259634D01*
X223516Y262181D01*
Y264819D01*
X222833Y267366D01*
X221515Y269650D01*
X219650Y271515D01*
X217366Y272833D01*
X214819Y273516D01*
D02*
G37*
G36*
X189419D02*
X186781D01*
X184234Y272833D01*
X181950Y271515D01*
X180085Y269650D01*
X178767Y267366D01*
X178084Y264819D01*
Y262181D01*
X178767Y259634D01*
X180085Y257350D01*
X181950Y255485D01*
X184234Y254167D01*
X186781Y253484D01*
X189419D01*
X191966Y254167D01*
X194250Y255485D01*
X196115Y257350D01*
X197433Y259634D01*
X198116Y262181D01*
Y264819D01*
X197433Y267366D01*
X196115Y269650D01*
X194250Y271515D01*
X191966Y272833D01*
X189419Y273516D01*
D02*
G37*
G36*
X164019D02*
X161381D01*
X158834Y272833D01*
X156550Y271515D01*
X154685Y269650D01*
X153367Y267366D01*
X152684Y264819D01*
Y262181D01*
X153367Y259634D01*
X154685Y257350D01*
X156550Y255485D01*
X158834Y254167D01*
X161381Y253484D01*
X164019D01*
X166566Y254167D01*
X168850Y255485D01*
X170715Y257350D01*
X172033Y259634D01*
X172716Y262181D01*
Y264819D01*
X172033Y267366D01*
X170715Y269650D01*
X168850Y271515D01*
X166566Y272833D01*
X164019Y273516D01*
D02*
G37*
G36*
X138619D02*
X135981D01*
X133434Y272833D01*
X131150Y271515D01*
X129285Y269650D01*
X127967Y267366D01*
X127284Y264819D01*
Y262181D01*
X127967Y259634D01*
X129285Y257350D01*
X131150Y255485D01*
X133434Y254167D01*
X135981Y253484D01*
X138619D01*
X141166Y254167D01*
X143450Y255485D01*
X145315Y257350D01*
X146633Y259634D01*
X147316Y262181D01*
Y264819D01*
X146633Y267366D01*
X145315Y269650D01*
X143450Y271515D01*
X141166Y272833D01*
X138619Y273516D01*
D02*
G37*
G36*
X113219D02*
X110581D01*
X108034Y272833D01*
X105750Y271515D01*
X103885Y269650D01*
X102567Y267366D01*
X101884Y264819D01*
Y262181D01*
X102567Y259634D01*
X103885Y257350D01*
X105750Y255485D01*
X108034Y254167D01*
X110581Y253484D01*
X113219D01*
X115766Y254167D01*
X118050Y255485D01*
X119915Y257350D01*
X121233Y259634D01*
X121916Y262181D01*
Y264819D01*
X121233Y267366D01*
X119915Y269650D01*
X118050Y271515D01*
X115766Y272833D01*
X113219Y273516D01*
D02*
G37*
G36*
X87819D02*
X85181D01*
X82634Y272833D01*
X80350Y271515D01*
X78485Y269650D01*
X77167Y267366D01*
X76484Y264819D01*
Y262181D01*
X77167Y259634D01*
X78485Y257350D01*
X80350Y255485D01*
X82634Y254167D01*
X85181Y253484D01*
X87819D01*
X90366Y254167D01*
X92650Y255485D01*
X94515Y257350D01*
X95833Y259634D01*
X96516Y262181D01*
Y264819D01*
X95833Y267366D01*
X94515Y269650D01*
X92650Y271515D01*
X90366Y272833D01*
X87819Y273516D01*
D02*
G37*
G36*
X587500Y274850D02*
X562500D01*
X561722Y274528D01*
X561400Y273750D01*
Y252500D01*
X561722Y251722D01*
X562500Y251400D01*
X587500D01*
X588278Y251722D01*
X588600Y252500D01*
Y273750D01*
X588278Y274528D01*
X587500Y274850D01*
D02*
G37*
G36*
X1156300Y301100D02*
X1113750D01*
X1112972Y300778D01*
X1112650Y300000D01*
Y245710D01*
X1112972Y244932D01*
X1113750Y244610D01*
X1156300D01*
X1157078Y244932D01*
X1157400Y245710D01*
Y300000D01*
X1157078Y300778D01*
X1156300Y301100D01*
D02*
G37*
G36*
X1414819Y248116D02*
X1412181D01*
X1409634Y247433D01*
X1407350Y246115D01*
X1405485Y244250D01*
X1404167Y241966D01*
X1403484Y239419D01*
Y236781D01*
X1404167Y234234D01*
X1405485Y231950D01*
X1407350Y230085D01*
X1409634Y228767D01*
X1412181Y228084D01*
X1414819D01*
X1417366Y228767D01*
X1419650Y230085D01*
X1421515Y231950D01*
X1422833Y234234D01*
X1423516Y236781D01*
Y239419D01*
X1422833Y241966D01*
X1421515Y244250D01*
X1419650Y246115D01*
X1417366Y247433D01*
X1414819Y248116D01*
D02*
G37*
G36*
X1389419D02*
X1386781D01*
X1384234Y247433D01*
X1381950Y246115D01*
X1380085Y244250D01*
X1378767Y241966D01*
X1378084Y239419D01*
Y236781D01*
X1378767Y234234D01*
X1380085Y231950D01*
X1381950Y230085D01*
X1384234Y228767D01*
X1386781Y228084D01*
X1389419D01*
X1391966Y228767D01*
X1394250Y230085D01*
X1396115Y231950D01*
X1397433Y234234D01*
X1398116Y236781D01*
Y239419D01*
X1397433Y241966D01*
X1396115Y244250D01*
X1394250Y246115D01*
X1391966Y247433D01*
X1389419Y248116D01*
D02*
G37*
G36*
X1364019D02*
X1361381D01*
X1358834Y247433D01*
X1356550Y246115D01*
X1354685Y244250D01*
X1353367Y241966D01*
X1352684Y239419D01*
Y236781D01*
X1353367Y234234D01*
X1354685Y231950D01*
X1356550Y230085D01*
X1358834Y228767D01*
X1361381Y228084D01*
X1364019D01*
X1366566Y228767D01*
X1368850Y230085D01*
X1370715Y231950D01*
X1372033Y234234D01*
X1372716Y236781D01*
Y239419D01*
X1372033Y241966D01*
X1370715Y244250D01*
X1368850Y246115D01*
X1366566Y247433D01*
X1364019Y248116D01*
D02*
G37*
G36*
X1338619D02*
X1335981D01*
X1333434Y247433D01*
X1331150Y246115D01*
X1329285Y244250D01*
X1327967Y241966D01*
X1327284Y239419D01*
Y236781D01*
X1327967Y234234D01*
X1329285Y231950D01*
X1331150Y230085D01*
X1333434Y228767D01*
X1335981Y228084D01*
X1338619D01*
X1341166Y228767D01*
X1343450Y230085D01*
X1345315Y231950D01*
X1346633Y234234D01*
X1347316Y236781D01*
Y239419D01*
X1346633Y241966D01*
X1345315Y244250D01*
X1343450Y246115D01*
X1341166Y247433D01*
X1338619Y248116D01*
D02*
G37*
G36*
X1313219D02*
X1310581D01*
X1308034Y247433D01*
X1305750Y246115D01*
X1303885Y244250D01*
X1302567Y241966D01*
X1301884Y239419D01*
Y236781D01*
X1302567Y234234D01*
X1303885Y231950D01*
X1305750Y230085D01*
X1308034Y228767D01*
X1310581Y228084D01*
X1313219D01*
X1315766Y228767D01*
X1318050Y230085D01*
X1319915Y231950D01*
X1321233Y234234D01*
X1321916Y236781D01*
Y239419D01*
X1321233Y241966D01*
X1319915Y244250D01*
X1318050Y246115D01*
X1315766Y247433D01*
X1313219Y248116D01*
D02*
G37*
G36*
X1287819D02*
X1285181D01*
X1282634Y247433D01*
X1280350Y246115D01*
X1278485Y244250D01*
X1277167Y241966D01*
X1276484Y239419D01*
Y236781D01*
X1277167Y234234D01*
X1278485Y231950D01*
X1280350Y230085D01*
X1282634Y228767D01*
X1285181Y228084D01*
X1287819D01*
X1290366Y228767D01*
X1292650Y230085D01*
X1294515Y231950D01*
X1295833Y234234D01*
X1296516Y236781D01*
Y239419D01*
X1295833Y241966D01*
X1294515Y244250D01*
X1292650Y246115D01*
X1290366Y247433D01*
X1287819Y248116D01*
D02*
G37*
G36*
X214819D02*
X212181D01*
X209634Y247433D01*
X207350Y246115D01*
X205485Y244250D01*
X204167Y241966D01*
X203484Y239419D01*
Y236781D01*
X204167Y234234D01*
X205485Y231950D01*
X207350Y230085D01*
X209634Y228767D01*
X212181Y228084D01*
X214819D01*
X217366Y228767D01*
X219650Y230085D01*
X221515Y231950D01*
X222833Y234234D01*
X223516Y236781D01*
Y239419D01*
X222833Y241966D01*
X221515Y244250D01*
X219650Y246115D01*
X217366Y247433D01*
X214819Y248116D01*
D02*
G37*
G36*
X189419D02*
X186781D01*
X184234Y247433D01*
X181950Y246115D01*
X180085Y244250D01*
X178767Y241966D01*
X178084Y239419D01*
Y236781D01*
X178767Y234234D01*
X180085Y231950D01*
X181950Y230085D01*
X184234Y228767D01*
X186781Y228084D01*
X189419D01*
X191966Y228767D01*
X194250Y230085D01*
X196115Y231950D01*
X197433Y234234D01*
X198116Y236781D01*
Y239419D01*
X197433Y241966D01*
X196115Y244250D01*
X194250Y246115D01*
X191966Y247433D01*
X189419Y248116D01*
D02*
G37*
G36*
X164019D02*
X161381D01*
X158834Y247433D01*
X156550Y246115D01*
X154685Y244250D01*
X153367Y241966D01*
X152684Y239419D01*
Y236781D01*
X153367Y234234D01*
X154685Y231950D01*
X156550Y230085D01*
X158834Y228767D01*
X161381Y228084D01*
X164019D01*
X166566Y228767D01*
X168850Y230085D01*
X170715Y231950D01*
X172033Y234234D01*
X172716Y236781D01*
Y239419D01*
X172033Y241966D01*
X170715Y244250D01*
X168850Y246115D01*
X166566Y247433D01*
X164019Y248116D01*
D02*
G37*
G36*
X138619D02*
X135981D01*
X133434Y247433D01*
X131150Y246115D01*
X129285Y244250D01*
X127967Y241966D01*
X127284Y239419D01*
Y236781D01*
X127967Y234234D01*
X129285Y231950D01*
X131150Y230085D01*
X133434Y228767D01*
X135981Y228084D01*
X138619D01*
X141166Y228767D01*
X143450Y230085D01*
X145315Y231950D01*
X146633Y234234D01*
X147316Y236781D01*
Y239419D01*
X146633Y241966D01*
X145315Y244250D01*
X143450Y246115D01*
X141166Y247433D01*
X138619Y248116D01*
D02*
G37*
G36*
X113219D02*
X110581D01*
X108034Y247433D01*
X105750Y246115D01*
X103885Y244250D01*
X102567Y241966D01*
X101884Y239419D01*
Y236781D01*
X102567Y234234D01*
X103885Y231950D01*
X105750Y230085D01*
X108034Y228767D01*
X110581Y228084D01*
X113219D01*
X115766Y228767D01*
X118050Y230085D01*
X119915Y231950D01*
X121233Y234234D01*
X121916Y236781D01*
Y239419D01*
X121233Y241966D01*
X119915Y244250D01*
X118050Y246115D01*
X115766Y247433D01*
X113219Y248116D01*
D02*
G37*
G36*
X87819D02*
X85181D01*
X82634Y247433D01*
X80350Y246115D01*
X78485Y244250D01*
X77167Y241966D01*
X76484Y239419D01*
Y236781D01*
X77167Y234234D01*
X78485Y231950D01*
X80350Y230085D01*
X82634Y228767D01*
X85181Y228084D01*
X87819D01*
X90366Y228767D01*
X92650Y230085D01*
X94515Y231950D01*
X95833Y234234D01*
X96516Y236781D01*
Y239419D01*
X95833Y241966D01*
X94515Y244250D01*
X92650Y246115D01*
X90366Y247433D01*
X87819Y248116D01*
D02*
G37*
G36*
X557766Y273266D02*
X542234D01*
Y261734D01*
X547669D01*
Y249000D01*
X547847Y248108D01*
X548352Y247352D01*
X561443Y234261D01*
Y227443D01*
X571540D01*
Y242557D01*
X561443D01*
Y242513D01*
X560270Y242027D01*
X552331Y249965D01*
Y261734D01*
X557766D01*
Y273266D01*
D02*
G37*
G36*
X1222099Y225520D02*
X1220401D01*
X1220086Y225390D01*
X1214914D01*
X1214599Y225520D01*
X1212901D01*
X1212586Y225390D01*
X1182450D01*
X1181672Y225068D01*
X1181350Y224290D01*
Y170000D01*
X1181672Y169222D01*
X1182450Y168900D01*
X1225000D01*
X1225778Y169222D01*
X1226100Y170000D01*
Y224290D01*
X1225778Y225068D01*
X1225000Y225390D01*
X1222414D01*
X1222099Y225520D01*
D02*
G37*
G36*
X354826Y230246D02*
X343918D01*
Y205838D01*
X354826D01*
Y230246D01*
D02*
G37*
G36*
X342902D02*
X331994D01*
Y205838D01*
X342902D01*
Y230246D01*
D02*
G37*
G36*
X1414819Y222716D02*
X1412181D01*
X1409634Y222033D01*
X1407350Y220715D01*
X1405485Y218850D01*
X1404167Y216566D01*
X1403484Y214019D01*
Y211381D01*
X1404167Y208834D01*
X1405485Y206550D01*
X1407350Y204685D01*
X1409634Y203367D01*
X1412181Y202684D01*
X1414819D01*
X1417366Y203367D01*
X1419650Y204685D01*
X1421515Y206550D01*
X1422833Y208834D01*
X1423516Y211381D01*
Y214019D01*
X1422833Y216566D01*
X1421515Y218850D01*
X1419650Y220715D01*
X1417366Y222033D01*
X1414819Y222716D01*
D02*
G37*
G36*
X1389419D02*
X1386781D01*
X1384234Y222033D01*
X1381950Y220715D01*
X1380085Y218850D01*
X1378767Y216566D01*
X1378084Y214019D01*
Y211381D01*
X1378767Y208834D01*
X1380085Y206550D01*
X1381950Y204685D01*
X1384234Y203367D01*
X1386781Y202684D01*
X1389419D01*
X1391966Y203367D01*
X1394250Y204685D01*
X1396115Y206550D01*
X1397433Y208834D01*
X1398116Y211381D01*
Y214019D01*
X1397433Y216566D01*
X1396115Y218850D01*
X1394250Y220715D01*
X1391966Y222033D01*
X1389419Y222716D01*
D02*
G37*
G36*
X1364019D02*
X1361381D01*
X1358834Y222033D01*
X1356550Y220715D01*
X1354685Y218850D01*
X1353367Y216566D01*
X1352684Y214019D01*
Y211381D01*
X1353367Y208834D01*
X1354685Y206550D01*
X1356550Y204685D01*
X1358834Y203367D01*
X1361381Y202684D01*
X1364019D01*
X1366566Y203367D01*
X1368850Y204685D01*
X1370715Y206550D01*
X1372033Y208834D01*
X1372716Y211381D01*
Y214019D01*
X1372033Y216566D01*
X1370715Y218850D01*
X1368850Y220715D01*
X1366566Y222033D01*
X1364019Y222716D01*
D02*
G37*
G36*
X1338619D02*
X1335981D01*
X1333434Y222033D01*
X1331150Y220715D01*
X1329285Y218850D01*
X1327967Y216566D01*
X1327284Y214019D01*
Y211381D01*
X1327967Y208834D01*
X1329285Y206550D01*
X1331150Y204685D01*
X1333434Y203367D01*
X1335981Y202684D01*
X1338619D01*
X1341166Y203367D01*
X1343450Y204685D01*
X1345315Y206550D01*
X1346633Y208834D01*
X1347316Y211381D01*
Y214019D01*
X1346633Y216566D01*
X1345315Y218850D01*
X1343450Y220715D01*
X1341166Y222033D01*
X1338619Y222716D01*
D02*
G37*
G36*
X1313219D02*
X1310581D01*
X1308034Y222033D01*
X1305750Y220715D01*
X1303885Y218850D01*
X1302567Y216566D01*
X1301884Y214019D01*
Y211381D01*
X1302567Y208834D01*
X1303885Y206550D01*
X1305750Y204685D01*
X1308034Y203367D01*
X1310581Y202684D01*
X1313219D01*
X1315766Y203367D01*
X1318050Y204685D01*
X1319915Y206550D01*
X1321233Y208834D01*
X1321916Y211381D01*
Y214019D01*
X1321233Y216566D01*
X1319915Y218850D01*
X1318050Y220715D01*
X1315766Y222033D01*
X1313219Y222716D01*
D02*
G37*
G36*
X1287819D02*
X1285181D01*
X1282634Y222033D01*
X1280350Y220715D01*
X1278485Y218850D01*
X1277167Y216566D01*
X1276484Y214019D01*
Y211381D01*
X1277167Y208834D01*
X1278485Y206550D01*
X1280350Y204685D01*
X1282634Y203367D01*
X1285181Y202684D01*
X1287819D01*
X1290366Y203367D01*
X1292650Y204685D01*
X1294515Y206550D01*
X1295833Y208834D01*
X1296516Y211381D01*
Y214019D01*
X1295833Y216566D01*
X1294515Y218850D01*
X1292650Y220715D01*
X1290366Y222033D01*
X1287819Y222716D01*
D02*
G37*
G36*
X214819D02*
X212181D01*
X209634Y222033D01*
X207350Y220715D01*
X205485Y218850D01*
X204167Y216566D01*
X203484Y214019D01*
Y211381D01*
X204167Y208834D01*
X205485Y206550D01*
X207350Y204685D01*
X209634Y203367D01*
X212181Y202684D01*
X214819D01*
X217366Y203367D01*
X219650Y204685D01*
X221515Y206550D01*
X222833Y208834D01*
X223516Y211381D01*
Y214019D01*
X222833Y216566D01*
X221515Y218850D01*
X219650Y220715D01*
X217366Y222033D01*
X214819Y222716D01*
D02*
G37*
G36*
X189419D02*
X186781D01*
X184234Y222033D01*
X181950Y220715D01*
X180085Y218850D01*
X178767Y216566D01*
X178084Y214019D01*
Y211381D01*
X178767Y208834D01*
X180085Y206550D01*
X181950Y204685D01*
X184234Y203367D01*
X186781Y202684D01*
X189419D01*
X191966Y203367D01*
X194250Y204685D01*
X196115Y206550D01*
X197433Y208834D01*
X198116Y211381D01*
Y214019D01*
X197433Y216566D01*
X196115Y218850D01*
X194250Y220715D01*
X191966Y222033D01*
X189419Y222716D01*
D02*
G37*
G36*
X164019D02*
X161381D01*
X158834Y222033D01*
X156550Y220715D01*
X154685Y218850D01*
X153367Y216566D01*
X152684Y214019D01*
Y211381D01*
X153367Y208834D01*
X154685Y206550D01*
X156550Y204685D01*
X158834Y203367D01*
X161381Y202684D01*
X164019D01*
X166566Y203367D01*
X168850Y204685D01*
X170715Y206550D01*
X172033Y208834D01*
X172716Y211381D01*
Y214019D01*
X172033Y216566D01*
X170715Y218850D01*
X168850Y220715D01*
X166566Y222033D01*
X164019Y222716D01*
D02*
G37*
G36*
X138619D02*
X135981D01*
X133434Y222033D01*
X131150Y220715D01*
X129285Y218850D01*
X127967Y216566D01*
X127284Y214019D01*
Y211381D01*
X127967Y208834D01*
X129285Y206550D01*
X131150Y204685D01*
X133434Y203367D01*
X135981Y202684D01*
X138619D01*
X141166Y203367D01*
X143450Y204685D01*
X145315Y206550D01*
X146633Y208834D01*
X147316Y211381D01*
Y214019D01*
X146633Y216566D01*
X145315Y218850D01*
X143450Y220715D01*
X141166Y222033D01*
X138619Y222716D01*
D02*
G37*
G36*
X113219D02*
X110581D01*
X108034Y222033D01*
X105750Y220715D01*
X103885Y218850D01*
X102567Y216566D01*
X101884Y214019D01*
Y211381D01*
X102567Y208834D01*
X103885Y206550D01*
X105750Y204685D01*
X108034Y203367D01*
X110581Y202684D01*
X113219D01*
X115766Y203367D01*
X118050Y204685D01*
X119915Y206550D01*
X121233Y208834D01*
X121916Y211381D01*
Y214019D01*
X121233Y216566D01*
X119915Y218850D01*
X118050Y220715D01*
X115766Y222033D01*
X113219Y222716D01*
D02*
G37*
G36*
X87819D02*
X85181D01*
X82634Y222033D01*
X80350Y220715D01*
X78485Y218850D01*
X77167Y216566D01*
X76484Y214019D01*
Y211381D01*
X77167Y208834D01*
X78485Y206550D01*
X80350Y204685D01*
X82634Y203367D01*
X85181Y202684D01*
X87819D01*
X90366Y203367D01*
X92650Y204685D01*
X94515Y206550D01*
X95833Y208834D01*
X96516Y211381D01*
Y214019D01*
X95833Y216566D01*
X94515Y218850D01*
X92650Y220715D01*
X90366Y222033D01*
X87819Y222716D01*
D02*
G37*
G36*
X430916Y221916D02*
X409084D01*
Y200084D01*
X430916D01*
Y221916D01*
D02*
G37*
G36*
X354826Y204822D02*
X343918D01*
Y180414D01*
X354826D01*
Y204822D01*
D02*
G37*
G36*
X342902D02*
X331994D01*
Y180414D01*
X342902D01*
Y204822D01*
D02*
G37*
G36*
X1414819Y197316D02*
X1412181D01*
X1409634Y196633D01*
X1407350Y195315D01*
X1405485Y193450D01*
X1404167Y191166D01*
X1403484Y188619D01*
Y185981D01*
X1404167Y183434D01*
X1405485Y181150D01*
X1407350Y179285D01*
X1409634Y177967D01*
X1412181Y177284D01*
X1414819D01*
X1417366Y177967D01*
X1419650Y179285D01*
X1421515Y181150D01*
X1422833Y183434D01*
X1423516Y185981D01*
Y188619D01*
X1422833Y191166D01*
X1421515Y193450D01*
X1419650Y195315D01*
X1417366Y196633D01*
X1414819Y197316D01*
D02*
G37*
G36*
X1389419D02*
X1386781D01*
X1384234Y196633D01*
X1381950Y195315D01*
X1380085Y193450D01*
X1378767Y191166D01*
X1378084Y188619D01*
Y185981D01*
X1378767Y183434D01*
X1380085Y181150D01*
X1381950Y179285D01*
X1384234Y177967D01*
X1386781Y177284D01*
X1389419D01*
X1391966Y177967D01*
X1394250Y179285D01*
X1396115Y181150D01*
X1397433Y183434D01*
X1398116Y185981D01*
Y188619D01*
X1397433Y191166D01*
X1396115Y193450D01*
X1394250Y195315D01*
X1391966Y196633D01*
X1389419Y197316D01*
D02*
G37*
G36*
X1364019D02*
X1361381D01*
X1358834Y196633D01*
X1356550Y195315D01*
X1354685Y193450D01*
X1353367Y191166D01*
X1352684Y188619D01*
Y185981D01*
X1353367Y183434D01*
X1354685Y181150D01*
X1356550Y179285D01*
X1358834Y177967D01*
X1361381Y177284D01*
X1364019D01*
X1366566Y177967D01*
X1368850Y179285D01*
X1370715Y181150D01*
X1372033Y183434D01*
X1372716Y185981D01*
Y188619D01*
X1372033Y191166D01*
X1370715Y193450D01*
X1368850Y195315D01*
X1366566Y196633D01*
X1364019Y197316D01*
D02*
G37*
G36*
X1338619D02*
X1335981D01*
X1333434Y196633D01*
X1331150Y195315D01*
X1329285Y193450D01*
X1327967Y191166D01*
X1327284Y188619D01*
Y185981D01*
X1327967Y183434D01*
X1329285Y181150D01*
X1331150Y179285D01*
X1333434Y177967D01*
X1335981Y177284D01*
X1338619D01*
X1341166Y177967D01*
X1343450Y179285D01*
X1345315Y181150D01*
X1346633Y183434D01*
X1347316Y185981D01*
Y188619D01*
X1346633Y191166D01*
X1345315Y193450D01*
X1343450Y195315D01*
X1341166Y196633D01*
X1338619Y197316D01*
D02*
G37*
G36*
X1313219D02*
X1310581D01*
X1308034Y196633D01*
X1305750Y195315D01*
X1303885Y193450D01*
X1302567Y191166D01*
X1301884Y188619D01*
Y185981D01*
X1302567Y183434D01*
X1303885Y181150D01*
X1305750Y179285D01*
X1308034Y177967D01*
X1310581Y177284D01*
X1313219D01*
X1315766Y177967D01*
X1318050Y179285D01*
X1319915Y181150D01*
X1321233Y183434D01*
X1321916Y185981D01*
Y188619D01*
X1321233Y191166D01*
X1319915Y193450D01*
X1318050Y195315D01*
X1315766Y196633D01*
X1313219Y197316D01*
D02*
G37*
G36*
X1287819D02*
X1285181D01*
X1282634Y196633D01*
X1280350Y195315D01*
X1278485Y193450D01*
X1277167Y191166D01*
X1276484Y188619D01*
Y185981D01*
X1277167Y183434D01*
X1278485Y181150D01*
X1280350Y179285D01*
X1282634Y177967D01*
X1285181Y177284D01*
X1287819D01*
X1290366Y177967D01*
X1292650Y179285D01*
X1294515Y181150D01*
X1295833Y183434D01*
X1296516Y185981D01*
Y188619D01*
X1295833Y191166D01*
X1294515Y193450D01*
X1292650Y195315D01*
X1290366Y196633D01*
X1287819Y197316D01*
D02*
G37*
G36*
X214819D02*
X212181D01*
X209634Y196633D01*
X207350Y195315D01*
X205485Y193450D01*
X204167Y191166D01*
X203484Y188619D01*
Y185981D01*
X204167Y183434D01*
X205485Y181150D01*
X207350Y179285D01*
X209634Y177967D01*
X212181Y177284D01*
X214819D01*
X217366Y177967D01*
X219650Y179285D01*
X221515Y181150D01*
X222833Y183434D01*
X223516Y185981D01*
Y188619D01*
X222833Y191166D01*
X221515Y193450D01*
X219650Y195315D01*
X217366Y196633D01*
X214819Y197316D01*
D02*
G37*
G36*
X189419D02*
X186781D01*
X184234Y196633D01*
X181950Y195315D01*
X180085Y193450D01*
X178767Y191166D01*
X178084Y188619D01*
Y185981D01*
X178767Y183434D01*
X180085Y181150D01*
X181950Y179285D01*
X184234Y177967D01*
X186781Y177284D01*
X189419D01*
X191966Y177967D01*
X194250Y179285D01*
X196115Y181150D01*
X197433Y183434D01*
X198116Y185981D01*
Y188619D01*
X197433Y191166D01*
X196115Y193450D01*
X194250Y195315D01*
X191966Y196633D01*
X189419Y197316D01*
D02*
G37*
G36*
X164019D02*
X161381D01*
X158834Y196633D01*
X156550Y195315D01*
X154685Y193450D01*
X153367Y191166D01*
X152684Y188619D01*
Y185981D01*
X153367Y183434D01*
X154685Y181150D01*
X156550Y179285D01*
X158834Y177967D01*
X161381Y177284D01*
X164019D01*
X166566Y177967D01*
X168850Y179285D01*
X170715Y181150D01*
X172033Y183434D01*
X172716Y185981D01*
Y188619D01*
X172033Y191166D01*
X170715Y193450D01*
X168850Y195315D01*
X166566Y196633D01*
X164019Y197316D01*
D02*
G37*
G36*
X138619D02*
X135981D01*
X133434Y196633D01*
X131150Y195315D01*
X129285Y193450D01*
X127967Y191166D01*
X127284Y188619D01*
Y185981D01*
X127967Y183434D01*
X129285Y181150D01*
X131150Y179285D01*
X133434Y177967D01*
X135981Y177284D01*
X138619D01*
X141166Y177967D01*
X143450Y179285D01*
X145315Y181150D01*
X146633Y183434D01*
X147316Y185981D01*
Y188619D01*
X146633Y191166D01*
X145315Y193450D01*
X143450Y195315D01*
X141166Y196633D01*
X138619Y197316D01*
D02*
G37*
G36*
X113219D02*
X110581D01*
X108034Y196633D01*
X105750Y195315D01*
X103885Y193450D01*
X102567Y191166D01*
X101884Y188619D01*
Y185981D01*
X102567Y183434D01*
X103885Y181150D01*
X105750Y179285D01*
X108034Y177967D01*
X110581Y177284D01*
X113219D01*
X115766Y177967D01*
X118050Y179285D01*
X119915Y181150D01*
X121233Y183434D01*
X121916Y185981D01*
Y188619D01*
X121233Y191166D01*
X119915Y193450D01*
X118050Y195315D01*
X115766Y196633D01*
X113219Y197316D01*
D02*
G37*
G36*
X87819D02*
X85181D01*
X82634Y196633D01*
X80350Y195315D01*
X78485Y193450D01*
X77167Y191166D01*
X76484Y188619D01*
Y185981D01*
X77167Y183434D01*
X78485Y181150D01*
X80350Y179285D01*
X82634Y177967D01*
X85181Y177284D01*
X87819D01*
X90366Y177967D01*
X92650Y179285D01*
X94515Y181150D01*
X95833Y183434D01*
X96516Y185981D01*
Y188619D01*
X95833Y191166D01*
X94515Y193450D01*
X92650Y195315D01*
X90366Y196633D01*
X87819Y197316D01*
D02*
G37*
G36*
X302550Y233600D02*
X260000D01*
X259222Y233278D01*
X258900Y232500D01*
Y178210D01*
X259222Y177432D01*
X260000Y177110D01*
X302550D01*
X303328Y177432D01*
X303650Y178210D01*
Y232500D01*
X303328Y233278D01*
X302550Y233600D01*
D02*
G37*
G36*
X1156300Y226100D02*
X1113750D01*
X1112972Y225778D01*
X1112650Y225000D01*
Y170710D01*
X1112972Y169932D01*
X1113750Y169610D01*
X1156300D01*
X1157078Y169932D01*
X1157400Y170710D01*
Y225000D01*
X1157078Y225778D01*
X1156300Y226100D01*
D02*
G37*
G36*
X1414819Y171916D02*
X1412181D01*
X1409634Y171233D01*
X1407350Y169915D01*
X1405485Y168050D01*
X1404167Y165766D01*
X1403484Y163219D01*
Y160581D01*
X1404167Y158034D01*
X1405485Y155750D01*
X1407350Y153885D01*
X1409634Y152567D01*
X1412181Y151884D01*
X1414819D01*
X1417366Y152567D01*
X1419650Y153885D01*
X1421515Y155750D01*
X1422833Y158034D01*
X1423516Y160581D01*
Y163219D01*
X1422833Y165766D01*
X1421515Y168050D01*
X1419650Y169915D01*
X1417366Y171233D01*
X1414819Y171916D01*
D02*
G37*
G36*
X1389419D02*
X1386781D01*
X1384234Y171233D01*
X1381950Y169915D01*
X1380085Y168050D01*
X1378767Y165766D01*
X1378084Y163219D01*
Y160581D01*
X1378767Y158034D01*
X1380085Y155750D01*
X1381950Y153885D01*
X1384234Y152567D01*
X1386781Y151884D01*
X1389419D01*
X1391966Y152567D01*
X1394250Y153885D01*
X1396115Y155750D01*
X1397433Y158034D01*
X1398116Y160581D01*
Y163219D01*
X1397433Y165766D01*
X1396115Y168050D01*
X1394250Y169915D01*
X1391966Y171233D01*
X1389419Y171916D01*
D02*
G37*
G36*
X1364019D02*
X1361381D01*
X1358834Y171233D01*
X1356550Y169915D01*
X1354685Y168050D01*
X1353367Y165766D01*
X1352684Y163219D01*
Y160581D01*
X1353367Y158034D01*
X1354685Y155750D01*
X1356550Y153885D01*
X1358834Y152567D01*
X1361381Y151884D01*
X1364019D01*
X1366566Y152567D01*
X1368850Y153885D01*
X1370715Y155750D01*
X1372033Y158034D01*
X1372716Y160581D01*
Y163219D01*
X1372033Y165766D01*
X1370715Y168050D01*
X1368850Y169915D01*
X1366566Y171233D01*
X1364019Y171916D01*
D02*
G37*
G36*
X1338619D02*
X1335981D01*
X1333434Y171233D01*
X1331150Y169915D01*
X1329285Y168050D01*
X1327967Y165766D01*
X1327284Y163219D01*
Y160581D01*
X1327967Y158034D01*
X1329285Y155750D01*
X1331150Y153885D01*
X1333434Y152567D01*
X1335981Y151884D01*
X1338619D01*
X1341166Y152567D01*
X1343450Y153885D01*
X1345315Y155750D01*
X1346633Y158034D01*
X1347316Y160581D01*
Y163219D01*
X1346633Y165766D01*
X1345315Y168050D01*
X1343450Y169915D01*
X1341166Y171233D01*
X1338619Y171916D01*
D02*
G37*
G36*
X1313219D02*
X1310581D01*
X1308034Y171233D01*
X1305750Y169915D01*
X1303885Y168050D01*
X1302567Y165766D01*
X1301884Y163219D01*
Y160581D01*
X1302567Y158034D01*
X1303885Y155750D01*
X1305750Y153885D01*
X1308034Y152567D01*
X1310581Y151884D01*
X1313219D01*
X1315766Y152567D01*
X1318050Y153885D01*
X1319915Y155750D01*
X1321233Y158034D01*
X1321916Y160581D01*
Y163219D01*
X1321233Y165766D01*
X1319915Y168050D01*
X1318050Y169915D01*
X1315766Y171233D01*
X1313219Y171916D01*
D02*
G37*
G36*
X1287819D02*
X1285181D01*
X1282634Y171233D01*
X1280350Y169915D01*
X1278485Y168050D01*
X1277167Y165766D01*
X1276484Y163219D01*
Y160581D01*
X1277167Y158034D01*
X1278485Y155750D01*
X1280350Y153885D01*
X1282634Y152567D01*
X1285181Y151884D01*
X1287819D01*
X1290366Y152567D01*
X1292650Y153885D01*
X1294515Y155750D01*
X1295833Y158034D01*
X1296516Y160581D01*
Y163219D01*
X1295833Y165766D01*
X1294515Y168050D01*
X1292650Y169915D01*
X1290366Y171233D01*
X1287819Y171916D01*
D02*
G37*
G36*
X214819D02*
X212181D01*
X209634Y171233D01*
X207350Y169915D01*
X205485Y168050D01*
X204167Y165766D01*
X203484Y163219D01*
Y160581D01*
X204167Y158034D01*
X205485Y155750D01*
X207350Y153885D01*
X209634Y152567D01*
X212181Y151884D01*
X214819D01*
X217366Y152567D01*
X219650Y153885D01*
X221515Y155750D01*
X222833Y158034D01*
X223516Y160581D01*
Y163219D01*
X222833Y165766D01*
X221515Y168050D01*
X219650Y169915D01*
X217366Y171233D01*
X214819Y171916D01*
D02*
G37*
G36*
X189419D02*
X186781D01*
X184234Y171233D01*
X181950Y169915D01*
X180085Y168050D01*
X178767Y165766D01*
X178084Y163219D01*
Y160581D01*
X178767Y158034D01*
X180085Y155750D01*
X181950Y153885D01*
X184234Y152567D01*
X186781Y151884D01*
X189419D01*
X191966Y152567D01*
X194250Y153885D01*
X196115Y155750D01*
X197433Y158034D01*
X198116Y160581D01*
Y163219D01*
X197433Y165766D01*
X196115Y168050D01*
X194250Y169915D01*
X191966Y171233D01*
X189419Y171916D01*
D02*
G37*
G36*
X164019D02*
X161381D01*
X158834Y171233D01*
X156550Y169915D01*
X154685Y168050D01*
X153367Y165766D01*
X152684Y163219D01*
Y160581D01*
X153367Y158034D01*
X154685Y155750D01*
X156550Y153885D01*
X158834Y152567D01*
X161381Y151884D01*
X164019D01*
X166566Y152567D01*
X168850Y153885D01*
X170715Y155750D01*
X172033Y158034D01*
X172716Y160581D01*
Y163219D01*
X172033Y165766D01*
X170715Y168050D01*
X168850Y169915D01*
X166566Y171233D01*
X164019Y171916D01*
D02*
G37*
G36*
X138619D02*
X135981D01*
X133434Y171233D01*
X131150Y169915D01*
X129285Y168050D01*
X127967Y165766D01*
X127284Y163219D01*
Y160581D01*
X127967Y158034D01*
X129285Y155750D01*
X131150Y153885D01*
X133434Y152567D01*
X135981Y151884D01*
X138619D01*
X141166Y152567D01*
X143450Y153885D01*
X145315Y155750D01*
X146633Y158034D01*
X147316Y160581D01*
Y163219D01*
X146633Y165766D01*
X145315Y168050D01*
X143450Y169915D01*
X141166Y171233D01*
X138619Y171916D01*
D02*
G37*
G36*
X113219D02*
X110581D01*
X108034Y171233D01*
X105750Y169915D01*
X103885Y168050D01*
X102567Y165766D01*
X101884Y163219D01*
Y160581D01*
X102567Y158034D01*
X103885Y155750D01*
X105750Y153885D01*
X108034Y152567D01*
X110581Y151884D01*
X113219D01*
X115766Y152567D01*
X118050Y153885D01*
X119915Y155750D01*
X121233Y158034D01*
X121916Y160581D01*
Y163219D01*
X121233Y165766D01*
X119915Y168050D01*
X118050Y169915D01*
X115766Y171233D01*
X113219Y171916D01*
D02*
G37*
G36*
X87819D02*
X85181D01*
X82634Y171233D01*
X80350Y169915D01*
X78485Y168050D01*
X77167Y165766D01*
X76484Y163219D01*
Y160581D01*
X77167Y158034D01*
X78485Y155750D01*
X80350Y153885D01*
X82634Y152567D01*
X85181Y151884D01*
X87819D01*
X90366Y152567D01*
X92650Y153885D01*
X94515Y155750D01*
X95833Y158034D01*
X96516Y160581D01*
Y163219D01*
X95833Y165766D01*
X94515Y168050D01*
X92650Y169915D01*
X90366Y171233D01*
X87819Y171916D01*
D02*
G37*
G36*
X354826Y153806D02*
X343918D01*
Y129398D01*
X354826D01*
Y153806D01*
D02*
G37*
G36*
X342902D02*
X331994D01*
Y129398D01*
X342902D01*
Y153806D01*
D02*
G37*
G36*
X1414819Y146516D02*
X1412181D01*
X1409634Y145833D01*
X1407350Y144515D01*
X1405485Y142650D01*
X1404167Y140366D01*
X1403484Y137819D01*
Y135181D01*
X1404167Y132634D01*
X1405485Y130350D01*
X1407350Y128485D01*
X1409634Y127167D01*
X1412181Y126484D01*
X1414819D01*
X1417366Y127167D01*
X1419650Y128485D01*
X1421515Y130350D01*
X1422833Y132634D01*
X1423516Y135181D01*
Y137819D01*
X1422833Y140366D01*
X1421515Y142650D01*
X1419650Y144515D01*
X1417366Y145833D01*
X1414819Y146516D01*
D02*
G37*
G36*
X1389419D02*
X1386781D01*
X1384234Y145833D01*
X1381950Y144515D01*
X1380085Y142650D01*
X1378767Y140366D01*
X1378084Y137819D01*
Y135181D01*
X1378767Y132634D01*
X1380085Y130350D01*
X1381950Y128485D01*
X1384234Y127167D01*
X1386781Y126484D01*
X1389419D01*
X1391966Y127167D01*
X1394250Y128485D01*
X1396115Y130350D01*
X1397433Y132634D01*
X1398116Y135181D01*
Y137819D01*
X1397433Y140366D01*
X1396115Y142650D01*
X1394250Y144515D01*
X1391966Y145833D01*
X1389419Y146516D01*
D02*
G37*
G36*
X1364019D02*
X1361381D01*
X1358834Y145833D01*
X1356550Y144515D01*
X1354685Y142650D01*
X1353367Y140366D01*
X1352684Y137819D01*
Y135181D01*
X1353367Y132634D01*
X1354685Y130350D01*
X1356550Y128485D01*
X1358834Y127167D01*
X1361381Y126484D01*
X1364019D01*
X1366566Y127167D01*
X1368850Y128485D01*
X1370715Y130350D01*
X1372033Y132634D01*
X1372716Y135181D01*
Y137819D01*
X1372033Y140366D01*
X1370715Y142650D01*
X1368850Y144515D01*
X1366566Y145833D01*
X1364019Y146516D01*
D02*
G37*
G36*
X1338619D02*
X1335981D01*
X1333434Y145833D01*
X1331150Y144515D01*
X1329285Y142650D01*
X1327967Y140366D01*
X1327284Y137819D01*
Y135181D01*
X1327967Y132634D01*
X1329285Y130350D01*
X1331150Y128485D01*
X1333434Y127167D01*
X1335981Y126484D01*
X1338619D01*
X1341166Y127167D01*
X1343450Y128485D01*
X1345315Y130350D01*
X1346633Y132634D01*
X1347316Y135181D01*
Y137819D01*
X1346633Y140366D01*
X1345315Y142650D01*
X1343450Y144515D01*
X1341166Y145833D01*
X1338619Y146516D01*
D02*
G37*
G36*
X1313219D02*
X1310581D01*
X1308034Y145833D01*
X1305750Y144515D01*
X1303885Y142650D01*
X1302567Y140366D01*
X1301884Y137819D01*
Y135181D01*
X1302567Y132634D01*
X1303885Y130350D01*
X1305750Y128485D01*
X1308034Y127167D01*
X1310581Y126484D01*
X1313219D01*
X1315766Y127167D01*
X1318050Y128485D01*
X1319915Y130350D01*
X1321233Y132634D01*
X1321916Y135181D01*
Y137819D01*
X1321233Y140366D01*
X1319915Y142650D01*
X1318050Y144515D01*
X1315766Y145833D01*
X1313219Y146516D01*
D02*
G37*
G36*
X1287819D02*
X1285181D01*
X1282634Y145833D01*
X1280350Y144515D01*
X1278485Y142650D01*
X1277167Y140366D01*
X1276484Y137819D01*
Y135181D01*
X1277167Y132634D01*
X1278485Y130350D01*
X1280350Y128485D01*
X1282634Y127167D01*
X1285181Y126484D01*
X1287819D01*
X1290366Y127167D01*
X1292650Y128485D01*
X1294515Y130350D01*
X1295833Y132634D01*
X1296516Y135181D01*
Y137819D01*
X1295833Y140366D01*
X1294515Y142650D01*
X1292650Y144515D01*
X1290366Y145833D01*
X1287819Y146516D01*
D02*
G37*
G36*
X214819D02*
X212181D01*
X209634Y145833D01*
X207350Y144515D01*
X205485Y142650D01*
X204167Y140366D01*
X203484Y137819D01*
Y135181D01*
X204167Y132634D01*
X205485Y130350D01*
X207350Y128485D01*
X209634Y127167D01*
X212181Y126484D01*
X214819D01*
X217366Y127167D01*
X219650Y128485D01*
X221515Y130350D01*
X222833Y132634D01*
X223516Y135181D01*
Y137819D01*
X222833Y140366D01*
X221515Y142650D01*
X219650Y144515D01*
X217366Y145833D01*
X214819Y146516D01*
D02*
G37*
G36*
X189419D02*
X186781D01*
X184234Y145833D01*
X181950Y144515D01*
X180085Y142650D01*
X178767Y140366D01*
X178084Y137819D01*
Y135181D01*
X178767Y132634D01*
X180085Y130350D01*
X181950Y128485D01*
X184234Y127167D01*
X186781Y126484D01*
X189419D01*
X191966Y127167D01*
X194250Y128485D01*
X196115Y130350D01*
X197433Y132634D01*
X198116Y135181D01*
Y137819D01*
X197433Y140366D01*
X196115Y142650D01*
X194250Y144515D01*
X191966Y145833D01*
X189419Y146516D01*
D02*
G37*
G36*
X164019D02*
X161381D01*
X158834Y145833D01*
X156550Y144515D01*
X154685Y142650D01*
X153367Y140366D01*
X152684Y137819D01*
Y135181D01*
X153367Y132634D01*
X154685Y130350D01*
X156550Y128485D01*
X158834Y127167D01*
X161381Y126484D01*
X164019D01*
X166566Y127167D01*
X168850Y128485D01*
X170715Y130350D01*
X172033Y132634D01*
X172716Y135181D01*
Y137819D01*
X172033Y140366D01*
X170715Y142650D01*
X168850Y144515D01*
X166566Y145833D01*
X164019Y146516D01*
D02*
G37*
G36*
X138619D02*
X135981D01*
X133434Y145833D01*
X131150Y144515D01*
X129285Y142650D01*
X127967Y140366D01*
X127284Y137819D01*
Y135181D01*
X127967Y132634D01*
X129285Y130350D01*
X131150Y128485D01*
X133434Y127167D01*
X135981Y126484D01*
X138619D01*
X141166Y127167D01*
X143450Y128485D01*
X145315Y130350D01*
X146633Y132634D01*
X147316Y135181D01*
Y137819D01*
X146633Y140366D01*
X145315Y142650D01*
X143450Y144515D01*
X141166Y145833D01*
X138619Y146516D01*
D02*
G37*
G36*
X113219D02*
X110581D01*
X108034Y145833D01*
X105750Y144515D01*
X103885Y142650D01*
X102567Y140366D01*
X101884Y137819D01*
Y135181D01*
X102567Y132634D01*
X103885Y130350D01*
X105750Y128485D01*
X108034Y127167D01*
X110581Y126484D01*
X113219D01*
X115766Y127167D01*
X118050Y128485D01*
X119915Y130350D01*
X121233Y132634D01*
X121916Y135181D01*
Y137819D01*
X121233Y140366D01*
X119915Y142650D01*
X118050Y144515D01*
X115766Y145833D01*
X113219Y146516D01*
D02*
G37*
G36*
X87819D02*
X85181D01*
X82634Y145833D01*
X80350Y144515D01*
X78485Y142650D01*
X77167Y140366D01*
X76484Y137819D01*
Y135181D01*
X77167Y132634D01*
X78485Y130350D01*
X80350Y128485D01*
X82634Y127167D01*
X85181Y126484D01*
X87819D01*
X90366Y127167D01*
X92650Y128485D01*
X94515Y130350D01*
X95833Y132634D01*
X96516Y135181D01*
Y137819D01*
X95833Y140366D01*
X94515Y142650D01*
X92650Y144515D01*
X90366Y145833D01*
X87819Y146516D01*
D02*
G37*
G36*
X1188749Y120016D02*
X1186770D01*
X1184859Y119504D01*
X1183145Y118514D01*
X1181746Y117115D01*
X1180756Y115401D01*
X1180244Y113490D01*
Y111510D01*
X1180756Y109599D01*
X1181746Y107885D01*
X1183145Y106486D01*
X1184859Y105496D01*
X1186770Y104984D01*
X1188749D01*
X1190661Y105496D01*
X1192375Y106486D01*
X1193774Y107885D01*
X1194764Y109599D01*
X1195276Y111510D01*
Y113490D01*
X1194764Y115401D01*
X1193774Y117115D01*
X1192375Y118514D01*
X1190661Y119504D01*
X1188749Y120016D01*
D02*
G37*
G36*
X1156010Y120100D02*
X1149510D01*
X1147846Y119768D01*
X1146434Y118826D01*
X1145491Y117415D01*
X1145160Y115750D01*
Y109250D01*
X1145491Y107585D01*
X1146434Y106174D01*
X1147846Y105232D01*
X1149510Y104901D01*
X1156010D01*
X1157674Y105232D01*
X1159086Y106174D01*
X1160029Y107585D01*
X1160360Y109250D01*
Y115750D01*
X1160029Y117415D01*
X1159086Y118826D01*
X1157674Y119768D01*
X1156010Y120100D01*
D02*
G37*
G36*
X354826Y128382D02*
X343918D01*
Y103974D01*
X354826D01*
Y128382D01*
D02*
G37*
G36*
X342902D02*
X331994D01*
Y103974D01*
X342902D01*
Y128382D01*
D02*
G37*
G36*
X302550Y158600D02*
X260000D01*
X259222Y158278D01*
X258900Y157500D01*
Y103210D01*
X259222Y102432D01*
X260000Y102110D01*
X302550D01*
X303328Y102432D01*
X303650Y103210D01*
Y157500D01*
X303328Y158278D01*
X302550Y158600D01*
D02*
G37*
G36*
X1432364Y94000D02*
X1427636D01*
X1423000Y93078D01*
X1418632Y91269D01*
X1414701Y88642D01*
X1411358Y85299D01*
X1408732Y81368D01*
X1406922Y77001D01*
X1406000Y72364D01*
Y67636D01*
X1406922Y63000D01*
X1408732Y58632D01*
X1411358Y54701D01*
X1414701Y51358D01*
X1418632Y48731D01*
X1423000Y46922D01*
X1427636Y46000D01*
X1432364D01*
X1437001Y46922D01*
X1441368Y48731D01*
X1445299Y51358D01*
X1448642Y54701D01*
X1451268Y58632D01*
X1453078Y63000D01*
X1454000Y67636D01*
Y72364D01*
X1453078Y77001D01*
X1451268Y81368D01*
X1448642Y85299D01*
X1445299Y88642D01*
X1441368Y91269D01*
X1437001Y93078D01*
X1432364Y94000D01*
D02*
G37*
G36*
X752364D02*
X747636D01*
X742999Y93078D01*
X738632Y91269D01*
X734701Y88642D01*
X731358Y85299D01*
X728732Y81368D01*
X726922Y77001D01*
X726000Y72364D01*
Y67636D01*
X726922Y63000D01*
X728732Y58632D01*
X731358Y54701D01*
X734701Y51358D01*
X738632Y48731D01*
X742999Y46922D01*
X747636Y46000D01*
X752364D01*
X757001Y46922D01*
X761368Y48731D01*
X765299Y51358D01*
X768642Y54701D01*
X771268Y58632D01*
X773078Y63000D01*
X774000Y67636D01*
Y72364D01*
X773078Y77001D01*
X771268Y81368D01*
X768642Y85299D01*
X765299Y88642D01*
X761368Y91269D01*
X757001Y93078D01*
X752364Y94000D01*
D02*
G37*
G36*
X72364D02*
X67636D01*
X63000Y93078D01*
X58632Y91269D01*
X54701Y88642D01*
X51358Y85299D01*
X48731Y81368D01*
X46922Y77001D01*
X46000Y72364D01*
Y67636D01*
X46922Y63000D01*
X48731Y58632D01*
X51358Y54701D01*
X54701Y51358D01*
X58632Y48731D01*
X63000Y46922D01*
X67636Y46000D01*
X72364D01*
X77001Y46922D01*
X81368Y48731D01*
X85299Y51358D01*
X88642Y54701D01*
X91269Y58632D01*
X93078Y63000D01*
X94000Y67636D01*
Y72364D01*
X93078Y77001D01*
X91269Y81368D01*
X88642Y85299D01*
X85299Y88642D01*
X81368Y91269D01*
X77001Y93078D01*
X72364Y94000D01*
D02*
G37*
G36*
X1286137Y34886D02*
X1283863D01*
X1281667Y34297D01*
X1279698Y33161D01*
X1278090Y31553D01*
X1276953Y29583D01*
X1276364Y27387D01*
Y25113D01*
X1276953Y22917D01*
X1278090Y20947D01*
X1279698Y19339D01*
X1281667Y18203D01*
X1283863Y17614D01*
X1286137D01*
X1288334Y18203D01*
X1290303Y19339D01*
X1291911Y20947D01*
X1293048Y22917D01*
X1293636Y25113D01*
Y27387D01*
X1293048Y29583D01*
X1291911Y31553D01*
X1290303Y33161D01*
X1288334Y34297D01*
X1286137Y34886D01*
D02*
G37*
G36*
X1247248D02*
X1244974D01*
X1242778Y34297D01*
X1240809Y33161D01*
X1239201Y31553D01*
X1238064Y29583D01*
X1237475Y27387D01*
Y25113D01*
X1238064Y22917D01*
X1239201Y20947D01*
X1240809Y19339D01*
X1242778Y18203D01*
X1244974Y17614D01*
X1247248D01*
X1249445Y18203D01*
X1251414Y19339D01*
X1253022Y20947D01*
X1254159Y22917D01*
X1254747Y25113D01*
Y27387D01*
X1254159Y29583D01*
X1253022Y31553D01*
X1251414Y33161D01*
X1249445Y34297D01*
X1247248Y34886D01*
D02*
G37*
G36*
X1208359D02*
X1206086D01*
X1203889Y34297D01*
X1201920Y33161D01*
X1200312Y31553D01*
X1199175Y29583D01*
X1198587Y27387D01*
Y25113D01*
X1199175Y22917D01*
X1200312Y20947D01*
X1201920Y19339D01*
X1203889Y18203D01*
X1206086Y17614D01*
X1208359D01*
X1210556Y18203D01*
X1212525Y19339D01*
X1214133Y20947D01*
X1215270Y22917D01*
X1215859Y25113D01*
Y27387D01*
X1215270Y29583D01*
X1214133Y31553D01*
X1212525Y33161D01*
X1210556Y34297D01*
X1208359Y34886D01*
D02*
G37*
G36*
X1169471D02*
X1167197D01*
X1165000Y34297D01*
X1163031Y33161D01*
X1161423Y31553D01*
X1160286Y29583D01*
X1159698Y27387D01*
Y25113D01*
X1160286Y22917D01*
X1161423Y20947D01*
X1163031Y19339D01*
X1165000Y18203D01*
X1167197Y17614D01*
X1169471D01*
X1171667Y18203D01*
X1173636Y19339D01*
X1175244Y20947D01*
X1176381Y22917D01*
X1176970Y25113D01*
Y27387D01*
X1176381Y29583D01*
X1175244Y31553D01*
X1173636Y33161D01*
X1171667Y34297D01*
X1169471Y34886D01*
D02*
G37*
G36*
X1130582D02*
X1128308D01*
X1126111Y34297D01*
X1124142Y33161D01*
X1122534Y31553D01*
X1121397Y29583D01*
X1120809Y27387D01*
Y25113D01*
X1121397Y22917D01*
X1122534Y20947D01*
X1124142Y19339D01*
X1126111Y18203D01*
X1128308Y17614D01*
X1130582D01*
X1132778Y18203D01*
X1134747Y19339D01*
X1136355Y20947D01*
X1137492Y22917D01*
X1138081Y25113D01*
Y27387D01*
X1137492Y29583D01*
X1136355Y31553D01*
X1134747Y33161D01*
X1132778Y34297D01*
X1130582Y34886D01*
D02*
G37*
G36*
X1091693D02*
X1089419D01*
X1087222Y34297D01*
X1085253Y33161D01*
X1083645Y31553D01*
X1082508Y29583D01*
X1081920Y27387D01*
Y25113D01*
X1082508Y22917D01*
X1083645Y20947D01*
X1085253Y19339D01*
X1087222Y18203D01*
X1089419Y17614D01*
X1091693D01*
X1093889Y18203D01*
X1095858Y19339D01*
X1097466Y20947D01*
X1098603Y22917D01*
X1099192Y25113D01*
Y27387D01*
X1098603Y29583D01*
X1097466Y31553D01*
X1095858Y33161D01*
X1093889Y34297D01*
X1091693Y34886D01*
D02*
G37*
G36*
X1052804D02*
X1050530D01*
X1048334Y34297D01*
X1046364Y33161D01*
X1044756Y31553D01*
X1043619Y29583D01*
X1043031Y27387D01*
Y25113D01*
X1043619Y22917D01*
X1044756Y20947D01*
X1046364Y19339D01*
X1048334Y18203D01*
X1050530Y17614D01*
X1052804D01*
X1055000Y18203D01*
X1056970Y19339D01*
X1058577Y20947D01*
X1059714Y22917D01*
X1060303Y25113D01*
Y27387D01*
X1059714Y29583D01*
X1058577Y31553D01*
X1056970Y33161D01*
X1055000Y34297D01*
X1052804Y34886D01*
D02*
G37*
G36*
X1013915D02*
X1011641D01*
X1009445Y34297D01*
X1007475Y33161D01*
X1005867Y31553D01*
X1004731Y29583D01*
X1004142Y27387D01*
Y25113D01*
X1004731Y22917D01*
X1005867Y20947D01*
X1007475Y19339D01*
X1009445Y18203D01*
X1011641Y17614D01*
X1013915D01*
X1016111Y18203D01*
X1018081Y19339D01*
X1019688Y20947D01*
X1020825Y22917D01*
X1021414Y25113D01*
Y27387D01*
X1020825Y29583D01*
X1019688Y31553D01*
X1018081Y33161D01*
X1016111Y34297D01*
X1013915Y34886D01*
D02*
G37*
G36*
X975026D02*
X972752D01*
X970556Y34297D01*
X968586Y33161D01*
X966979Y31553D01*
X965842Y29583D01*
X965253Y27387D01*
Y25113D01*
X965842Y22917D01*
X966979Y20947D01*
X968586Y19339D01*
X970556Y18203D01*
X972752Y17614D01*
X975026D01*
X977222Y18203D01*
X979192Y19339D01*
X980800Y20947D01*
X981936Y22917D01*
X982525Y25113D01*
Y27387D01*
X981936Y29583D01*
X980800Y31553D01*
X979192Y33161D01*
X977222Y34297D01*
X975026Y34886D01*
D02*
G37*
G36*
X936137D02*
X933863D01*
X931667Y34297D01*
X929697Y33161D01*
X928090Y31553D01*
X926953Y29583D01*
X926364Y27387D01*
Y25113D01*
X926953Y22917D01*
X928090Y20947D01*
X929697Y19339D01*
X931667Y18203D01*
X933863Y17614D01*
X936137D01*
X938334Y18203D01*
X940303Y19339D01*
X941911Y20947D01*
X943048Y22917D01*
X943636Y25113D01*
Y27387D01*
X943048Y29583D01*
X941911Y31553D01*
X940303Y33161D01*
X938334Y34297D01*
X936137Y34886D01*
D02*
G37*
G36*
X897248D02*
X894974D01*
X892778Y34297D01*
X890809Y33161D01*
X889201Y31553D01*
X888064Y29583D01*
X887475Y27387D01*
Y25113D01*
X888064Y22917D01*
X889201Y20947D01*
X890809Y19339D01*
X892778Y18203D01*
X894974Y17614D01*
X897248D01*
X899445Y18203D01*
X901414Y19339D01*
X903022Y20947D01*
X904159Y22917D01*
X904747Y25113D01*
Y27387D01*
X904159Y29583D01*
X903022Y31553D01*
X901414Y33161D01*
X899445Y34297D01*
X897248Y34886D01*
D02*
G37*
G36*
X858359D02*
X856085D01*
X853889Y34297D01*
X851920Y33161D01*
X850312Y31553D01*
X849175Y29583D01*
X848586Y27387D01*
Y25113D01*
X849175Y22917D01*
X850312Y20947D01*
X851920Y19339D01*
X853889Y18203D01*
X856085Y17614D01*
X858359D01*
X860556Y18203D01*
X862525Y19339D01*
X864133Y20947D01*
X865270Y22917D01*
X865858Y25113D01*
Y27387D01*
X865270Y29583D01*
X864133Y31553D01*
X862525Y33161D01*
X860556Y34297D01*
X858359Y34886D01*
D02*
G37*
G36*
X819470D02*
X817197D01*
X815000Y34297D01*
X813031Y33161D01*
X811423Y31553D01*
X810286Y29583D01*
X809697Y27387D01*
Y25113D01*
X810286Y22917D01*
X811423Y20947D01*
X813031Y19339D01*
X815000Y18203D01*
X817197Y17614D01*
X819470D01*
X821667Y18203D01*
X823636Y19339D01*
X825244Y20947D01*
X826381Y22917D01*
X826970Y25113D01*
Y27387D01*
X826381Y29583D01*
X825244Y31553D01*
X823636Y33161D01*
X821667Y34297D01*
X819470Y34886D01*
D02*
G37*
G36*
X780582D02*
X778308D01*
X776111Y34297D01*
X774142Y33161D01*
X772534Y31553D01*
X771397Y29583D01*
X770809Y27387D01*
Y25113D01*
X771397Y22917D01*
X772534Y20947D01*
X774142Y19339D01*
X776111Y18203D01*
X778308Y17614D01*
X780582D01*
X782778Y18203D01*
X784747Y19339D01*
X786355Y20947D01*
X787492Y22917D01*
X788081Y25113D01*
Y27387D01*
X787492Y29583D01*
X786355Y31553D01*
X784747Y33161D01*
X782778Y34297D01*
X780582Y34886D01*
D02*
G37*
G36*
X741693D02*
X739419D01*
X737222Y34297D01*
X735253Y33161D01*
X733645Y31553D01*
X732508Y29583D01*
X731920Y27387D01*
Y25113D01*
X732508Y22917D01*
X733645Y20947D01*
X735253Y19339D01*
X737222Y18203D01*
X739419Y17614D01*
X741693D01*
X743889Y18203D01*
X745858Y19339D01*
X747466Y20947D01*
X748603Y22917D01*
X749192Y25113D01*
Y27387D01*
X748603Y29583D01*
X747466Y31553D01*
X745858Y33161D01*
X743889Y34297D01*
X741693Y34886D01*
D02*
G37*
G36*
X702804D02*
X700530D01*
X698333Y34297D01*
X696364Y33161D01*
X694756Y31553D01*
X693619Y29583D01*
X693031Y27387D01*
Y25113D01*
X693619Y22917D01*
X694756Y20947D01*
X696364Y19339D01*
X698333Y18203D01*
X700530Y17614D01*
X702804D01*
X705000Y18203D01*
X706969Y19339D01*
X708577Y20947D01*
X709714Y22917D01*
X710303Y25113D01*
Y27387D01*
X709714Y29583D01*
X708577Y31553D01*
X706969Y33161D01*
X705000Y34297D01*
X702804Y34886D01*
D02*
G37*
G36*
X663915D02*
X661641D01*
X659445Y34297D01*
X657475Y33161D01*
X655867Y31553D01*
X654730Y29583D01*
X654142Y27387D01*
Y25113D01*
X654730Y22917D01*
X655867Y20947D01*
X657475Y19339D01*
X659445Y18203D01*
X661641Y17614D01*
X663915D01*
X666111Y18203D01*
X668081Y19339D01*
X669688Y20947D01*
X670825Y22917D01*
X671414Y25113D01*
Y27387D01*
X670825Y29583D01*
X669688Y31553D01*
X668081Y33161D01*
X666111Y34297D01*
X663915Y34886D01*
D02*
G37*
G36*
X625026D02*
X622752D01*
X620556Y34297D01*
X618586Y33161D01*
X616978Y31553D01*
X615841Y29583D01*
X615253Y27387D01*
Y25113D01*
X615841Y22917D01*
X616978Y20947D01*
X618586Y19339D01*
X620556Y18203D01*
X622752Y17614D01*
X625026D01*
X627222Y18203D01*
X629192Y19339D01*
X630799Y20947D01*
X631936Y22917D01*
X632525Y25113D01*
Y27387D01*
X631936Y29583D01*
X630799Y31553D01*
X629192Y33161D01*
X627222Y34297D01*
X625026Y34886D01*
D02*
G37*
G36*
X586137D02*
X583863D01*
X581667Y34297D01*
X579697Y33161D01*
X578089Y31553D01*
X576953Y29583D01*
X576364Y27387D01*
Y25113D01*
X576953Y22917D01*
X578089Y20947D01*
X579697Y19339D01*
X581667Y18203D01*
X583863Y17614D01*
X586137D01*
X588333Y18203D01*
X590303Y19339D01*
X591911Y20947D01*
X593048Y22917D01*
X593636Y25113D01*
Y27387D01*
X593048Y29583D01*
X591911Y31553D01*
X590303Y33161D01*
X588333Y34297D01*
X586137Y34886D01*
D02*
G37*
G36*
X547248D02*
X544974D01*
X542778Y34297D01*
X540808Y33161D01*
X539201Y31553D01*
X538064Y29583D01*
X537475Y27387D01*
Y25113D01*
X538064Y22917D01*
X539201Y20947D01*
X540808Y19339D01*
X542778Y18203D01*
X544974Y17614D01*
X547248D01*
X549445Y18203D01*
X551414Y19339D01*
X553022Y20947D01*
X554159Y22917D01*
X554747Y25113D01*
Y27387D01*
X554159Y29583D01*
X553022Y31553D01*
X551414Y33161D01*
X549445Y34297D01*
X547248Y34886D01*
D02*
G37*
G36*
X508359D02*
X506085D01*
X503889Y34297D01*
X501920Y33161D01*
X500312Y31553D01*
X499175Y29583D01*
X498586Y27387D01*
Y25113D01*
X499175Y22917D01*
X500312Y20947D01*
X501920Y19339D01*
X503889Y18203D01*
X506085Y17614D01*
X508359D01*
X510556Y18203D01*
X512525Y19339D01*
X514133Y20947D01*
X515270Y22917D01*
X515858Y25113D01*
Y27387D01*
X515270Y29583D01*
X514133Y31553D01*
X512525Y33161D01*
X510556Y34297D01*
X508359Y34886D01*
D02*
G37*
G36*
X469470D02*
X467196D01*
X465000Y34297D01*
X463031Y33161D01*
X461423Y31553D01*
X460286Y29583D01*
X459697Y27387D01*
Y25113D01*
X460286Y22917D01*
X461423Y20947D01*
X463031Y19339D01*
X465000Y18203D01*
X467196Y17614D01*
X469470D01*
X471667Y18203D01*
X473636Y19339D01*
X475244Y20947D01*
X476381Y22917D01*
X476969Y25113D01*
Y27387D01*
X476381Y29583D01*
X475244Y31553D01*
X473636Y33161D01*
X471667Y34297D01*
X469470Y34886D01*
D02*
G37*
G36*
X430581D02*
X428307D01*
X426111Y34297D01*
X424142Y33161D01*
X422534Y31553D01*
X421397Y29583D01*
X420808Y27387D01*
Y25113D01*
X421397Y22917D01*
X422534Y20947D01*
X424142Y19339D01*
X426111Y18203D01*
X428307Y17614D01*
X430581D01*
X432778Y18203D01*
X434747Y19339D01*
X436355Y20947D01*
X437492Y22917D01*
X438080Y25113D01*
Y27387D01*
X437492Y29583D01*
X436355Y31553D01*
X434747Y33161D01*
X432778Y34297D01*
X430581Y34886D01*
D02*
G37*
G36*
X391693D02*
X389419D01*
X387222Y34297D01*
X385253Y33161D01*
X383645Y31553D01*
X382508Y29583D01*
X381920Y27387D01*
Y25113D01*
X382508Y22917D01*
X383645Y20947D01*
X385253Y19339D01*
X387222Y18203D01*
X389419Y17614D01*
X391693D01*
X393889Y18203D01*
X395858Y19339D01*
X397466Y20947D01*
X398603Y22917D01*
X399192Y25113D01*
Y27387D01*
X398603Y29583D01*
X397466Y31553D01*
X395858Y33161D01*
X393889Y34297D01*
X391693Y34886D01*
D02*
G37*
G36*
X352804D02*
X350530D01*
X348333Y34297D01*
X346364Y33161D01*
X344756Y31553D01*
X343619Y29583D01*
X343031Y27387D01*
Y25113D01*
X343619Y22917D01*
X344756Y20947D01*
X346364Y19339D01*
X348333Y18203D01*
X350530Y17614D01*
X352804D01*
X355000Y18203D01*
X356969Y19339D01*
X358577Y20947D01*
X359714Y22917D01*
X360303Y25113D01*
Y27387D01*
X359714Y29583D01*
X358577Y31553D01*
X356969Y33161D01*
X355000Y34297D01*
X352804Y34886D01*
D02*
G37*
G36*
X313915D02*
X311641D01*
X309444Y34297D01*
X307475Y33161D01*
X305867Y31553D01*
X304730Y29583D01*
X304142Y27387D01*
Y25113D01*
X304730Y22917D01*
X305867Y20947D01*
X307475Y19339D01*
X309444Y18203D01*
X311641Y17614D01*
X313915D01*
X316111Y18203D01*
X318080Y19339D01*
X319688Y20947D01*
X320825Y22917D01*
X321414Y25113D01*
Y27387D01*
X320825Y29583D01*
X319688Y31553D01*
X318080Y33161D01*
X316111Y34297D01*
X313915Y34886D01*
D02*
G37*
G36*
X275026D02*
X272752D01*
X270555Y34297D01*
X268586Y33161D01*
X266978Y31553D01*
X265841Y29583D01*
X265253Y27387D01*
Y25113D01*
X265841Y22917D01*
X266978Y20947D01*
X268586Y19339D01*
X270555Y18203D01*
X272752Y17614D01*
X275026D01*
X277222Y18203D01*
X279191Y19339D01*
X280799Y20947D01*
X281936Y22917D01*
X282525Y25113D01*
Y27387D01*
X281936Y29583D01*
X280799Y31553D01*
X279191Y33161D01*
X277222Y34297D01*
X275026Y34886D01*
D02*
G37*
G36*
X236137D02*
X233863D01*
X231667Y34297D01*
X229697Y33161D01*
X228090Y31553D01*
X226952Y29583D01*
X226364Y27387D01*
Y25113D01*
X226952Y22917D01*
X228090Y20947D01*
X229697Y19339D01*
X231667Y18203D01*
X233863Y17614D01*
X236137D01*
X238333Y18203D01*
X240303Y19339D01*
X241910Y20947D01*
X243048Y22917D01*
X243636Y25113D01*
Y27387D01*
X243048Y29583D01*
X241910Y31553D01*
X240303Y33161D01*
X238333Y34297D01*
X236137Y34886D01*
D02*
G37*
%LPD*%
G36*
X660150Y278139D02*
X658880Y277397D01*
X658766Y277461D01*
Y292516D01*
X641234D01*
Y286581D01*
X633266D01*
Y290516D01*
X625509D01*
Y291822D01*
X625331Y292714D01*
X624826Y293470D01*
X621648Y296648D01*
X620892Y297153D01*
X620000Y297331D01*
X602215D01*
X578441Y321105D01*
X579267Y322033D01*
X580554Y321500D01*
X581454D01*
X594602Y308352D01*
X595358Y307847D01*
X596250Y307669D01*
X608984D01*
Y302234D01*
X621016D01*
Y317649D01*
X621016Y317766D01*
X621298Y318919D01*
X628702D01*
X628984Y317766D01*
X628984D01*
Y302234D01*
X641016D01*
Y317766D01*
X637331D01*
Y319762D01*
X637153Y320654D01*
X636668Y321380D01*
X636771Y321936D01*
X637067Y322650D01*
X651250D01*
X652028Y322972D01*
X652350Y323750D01*
Y346250D01*
X652028Y347028D01*
X651250Y347350D01*
X626250D01*
X625472Y347028D01*
X625150Y346250D01*
Y323750D01*
X625037Y323581D01*
X617953D01*
X617831Y323703D01*
Y326484D01*
X623516D01*
Y343516D01*
X617831D01*
Y352234D01*
X621016D01*
Y367766D01*
X608984D01*
Y362331D01*
X604806D01*
X603914Y362153D01*
X603158Y361648D01*
X591340Y349831D01*
X586061D01*
X585372Y351101D01*
X585641Y351750D01*
Y353250D01*
X585229Y354244D01*
X585160Y354410D01*
Y355590D01*
X585229Y355756D01*
X585641Y356750D01*
Y358250D01*
X585372Y358899D01*
X586061Y360169D01*
X593280D01*
X594172Y360347D01*
X594928Y360852D01*
X610749Y376673D01*
X623031D01*
Y393327D01*
X607453D01*
Y379969D01*
X593097Y365613D01*
X592873Y365658D01*
X592455Y367036D01*
X597535Y372116D01*
X598312Y373279D01*
X598585Y374650D01*
Y377546D01*
X598620Y377581D01*
X599270Y379151D01*
Y380849D01*
X598620Y382419D01*
X597419Y383620D01*
X595849Y384270D01*
X594151D01*
X592581Y383620D01*
X592370Y383408D01*
X591100Y383934D01*
Y392044D01*
X595456Y396400D01*
X617500D01*
X618278Y396722D01*
X625464Y403909D01*
X626734Y403465D01*
Y402234D01*
X632427D01*
Y393327D01*
X626969D01*
Y376673D01*
X642547D01*
Y393327D01*
X637089D01*
Y402234D01*
X638266D01*
Y417766D01*
X627370D01*
X626734Y417766D01*
X626100Y418773D01*
Y421400D01*
X660150D01*
Y278139D01*
D02*
G37*
G36*
X527669Y377547D02*
Y373988D01*
X527847Y373096D01*
X528352Y372340D01*
X529638Y371054D01*
X529542Y370220D01*
X529293Y369690D01*
X529108Y369653D01*
X528352Y369148D01*
X525852Y366648D01*
X525347Y365892D01*
X525169Y365000D01*
Y357453D01*
X525047Y357331D01*
X523266D01*
Y362766D01*
X512350D01*
Y372673D01*
X523547D01*
Y377669D01*
X527547D01*
X527669Y377547D01*
D02*
G37*
G36*
X608984Y352234D02*
X613169D01*
Y343516D01*
X607484D01*
Y326484D01*
X613169D01*
Y322738D01*
X613347Y321846D01*
X613852Y321090D01*
X615340Y319602D01*
X616096Y319097D01*
X616401Y319036D01*
X616276Y317766D01*
X608984D01*
Y312331D01*
X597215D01*
X584750Y324796D01*
Y325696D01*
X584217Y326983D01*
X583233Y327967D01*
X581946Y328500D01*
X580554D01*
X579267Y327967D01*
X578283Y326983D01*
X577750Y325696D01*
Y324304D01*
X578283Y323017D01*
X577355Y322191D01*
X574831Y324715D01*
Y330855D01*
X574891Y331000D01*
Y335017D01*
X575213Y335297D01*
X576161Y335645D01*
X576608Y335347D01*
X577500Y335169D01*
X578855D01*
X579000Y335109D01*
X584000D01*
X585160Y335590D01*
X585641Y336750D01*
Y337578D01*
X586911Y338104D01*
X591327Y333687D01*
X591380Y332419D01*
X590730Y330849D01*
Y329151D01*
X591380Y327581D01*
X592581Y326380D01*
X594151Y325730D01*
X595849D01*
X597419Y326380D01*
X598620Y327581D01*
X599270Y329151D01*
Y330849D01*
X598620Y332419D01*
X598585Y332454D01*
Y335085D01*
X598312Y336456D01*
X597535Y337620D01*
X591255Y343899D01*
X591781Y345169D01*
X592306D01*
X593198Y345347D01*
X593954Y345852D01*
X605771Y357669D01*
X608984D01*
Y352234D01*
D02*
G37*
G36*
X870000Y571250D02*
Y190000D01*
X852500Y172500D01*
X407500D01*
X402500Y177500D01*
Y192500D01*
X407500Y197500D01*
X452500D01*
X477500Y222500D01*
X612500D01*
Y270000D01*
X617500Y275000D01*
X630000D01*
X632500Y272500D01*
Y252500D01*
X661250D01*
Y422500D01*
X625000D01*
Y405000D01*
X617500Y397500D01*
X595000D01*
X590000Y392500D01*
Y375000D01*
X586250Y371250D01*
X577500D01*
Y377500D01*
X580000Y380000D01*
X585000D01*
Y452500D01*
X580000Y457500D01*
X408750Y457500D01*
X405000Y461250D01*
Y500000D01*
X411250Y506250D01*
X436250D01*
X443750Y513750D01*
Y565000D01*
X466250Y587500D01*
X853750D01*
X870000Y571250D01*
D02*
G37*
G36*
X610000Y226250D02*
X576250D01*
X575000Y227500D01*
X575000Y238662D01*
X577837Y241500D01*
X592500D01*
Y272500D01*
X610000D01*
Y226250D01*
D02*
G37*
%LPC*%
G36*
X641016Y367766D02*
X628984D01*
Y352234D01*
X641016D01*
Y356149D01*
X642286Y356675D01*
X642581Y356380D01*
X644151Y355730D01*
X645849D01*
X647419Y356380D01*
X648620Y357581D01*
X649270Y359151D01*
Y360849D01*
X648620Y362419D01*
X647419Y363620D01*
X645849Y364270D01*
X644151D01*
X642581Y363620D01*
X642286Y363325D01*
X641016Y363851D01*
Y367766D01*
D02*
G37*
%LPD*%
D14*
X572500Y323750D02*
Y333500D01*
Y323750D02*
X601250Y295000D01*
X620000D01*
X581250Y325000D02*
X596250Y310000D01*
X615000D01*
X542500Y316968D02*
Y341012D01*
X543988Y342500D01*
X542500Y316968D02*
X545718Y313750D01*
X546250D01*
X543988Y342500D02*
X548500D01*
X615500Y335000D02*
Y359500D01*
Y322738D02*
Y335000D01*
X633512Y321250D02*
X635000Y319762D01*
X616988Y321250D02*
X633512D01*
X635000Y310000D02*
Y319762D01*
X615500Y322738D02*
X616988Y321250D01*
X577500Y337500D02*
X581500D01*
X572230Y342770D02*
X577500Y337500D01*
X566230Y342770D02*
X572230D01*
X583509Y230000D02*
X584759Y231250D01*
X566491Y230000D02*
Y232509D01*
X572500Y379927D02*
X580000Y387427D01*
Y413750D01*
X572500Y376500D02*
Y379927D01*
X568141Y416617D02*
X577133D01*
X580000Y413750D01*
X567500Y390000D02*
Y397500D01*
X567258D02*
X567500Y397742D01*
X540000Y397500D02*
X567258D01*
X600000Y236250D02*
Y266242D01*
X550000Y249000D02*
X566491Y232509D01*
X550000Y249000D02*
Y267500D01*
X565000Y344000D02*
X566230Y342770D01*
X571000Y353730D02*
Y355000D01*
Y353730D02*
X572230Y352500D01*
X581500D01*
X559000Y353730D02*
Y355000D01*
X548500Y352500D02*
X557770D01*
X559000Y353730D01*
X557500Y383750D02*
X560000Y386250D01*
X557500Y376500D02*
Y383750D01*
X560000Y386250D02*
X563750D01*
X567500Y390000D01*
X592306Y347500D02*
X604806Y360000D01*
X581500Y347500D02*
X592306D01*
X533988Y362500D02*
X548500D01*
X532500Y342500D02*
Y361012D01*
X533988Y362500D01*
X530000Y340000D02*
X532500Y342500D01*
X507500Y340000D02*
X530000D01*
X526012Y355000D02*
X527500Y356488D01*
Y365000D01*
X517500Y355000D02*
X526012D01*
X527500Y365000D02*
X530000Y367500D01*
X548500D01*
X519250Y325000D02*
X534762D01*
X536250Y326488D01*
X537738Y357500D02*
X548500D01*
X536250Y326488D02*
Y356012D01*
X537738Y357500D01*
X645000Y360000D02*
X645000Y360000D01*
X635000Y360000D02*
X645000D01*
X634758Y385000D02*
Y407742D01*
X632500Y410000D02*
X634758Y407742D01*
X581500Y362500D02*
X593280D01*
X615242Y384463D01*
Y385000D01*
X490000Y267728D02*
X518514D01*
X520000Y266242D01*
X490000Y282272D02*
Y300000D01*
X500750Y310750D01*
Y325000D01*
X599242Y283000D02*
X600000Y283758D01*
X575000Y283000D02*
X599242D01*
X574500Y282500D02*
X575000Y283000D01*
X550000Y282500D02*
X574500D01*
X520000Y283758D02*
X548742D01*
X550000Y282500D01*
X519250Y284508D02*
X520000Y283758D01*
X519250Y284508D02*
Y325000D01*
X500750D02*
X502500Y326750D01*
Y335000D02*
X507500Y340000D01*
X502500Y326750D02*
Y335000D01*
X530000Y373988D02*
X531488Y372500D01*
X528512Y380000D02*
X530000Y378512D01*
X531488Y372500D02*
X548500D01*
X517758Y380000D02*
X528512D01*
X530000Y373988D02*
Y378512D01*
X557500Y327500D02*
X560000Y325000D01*
X557500Y327500D02*
Y333500D01*
X604806Y360000D02*
X615000D01*
X615500Y359500D01*
X623178Y286072D02*
Y291822D01*
X620000Y295000D02*
X623178Y291822D01*
Y286072D02*
X625000Y284250D01*
X649750D01*
X650000Y284000D01*
D15*
X595000Y330271D02*
Y335085D01*
X587584Y342500D02*
X595000Y335085D01*
Y374650D02*
Y380000D01*
X587850Y367500D02*
X595000Y374650D01*
X582000Y342500D02*
X587584D01*
X581500Y367500D02*
X587850D01*
D16*
X1143360Y580620D02*
D03*
X1197160D02*
D03*
X1143360Y502910D02*
D03*
X1197160D02*
D03*
X1143360Y426470D02*
D03*
X1197160D02*
D03*
X1143360Y350030D02*
D03*
X1197160D02*
D03*
X1143360Y273590D02*
D03*
X1197160D02*
D03*
X1143360Y197150D02*
D03*
X1197160D02*
D03*
X343410Y435920D02*
D03*
X289610D02*
D03*
Y512360D02*
D03*
X343410D02*
D03*
X289610Y358210D02*
D03*
X343410D02*
D03*
X289610Y281770D02*
D03*
X343410D02*
D03*
X289610Y205330D02*
D03*
X343410D02*
D03*
X289610Y128890D02*
D03*
X343410D02*
D03*
D17*
X583509Y235000D02*
D03*
X566491D02*
D03*
D18*
X540000Y397500D02*
D03*
Y417500D02*
D03*
D19*
X567500Y397742D02*
D03*
Y417258D02*
D03*
D20*
X632500Y410000D02*
D03*
X617500D02*
D03*
X502500Y355000D02*
D03*
X517500D02*
D03*
D21*
X600000Y283758D02*
D03*
Y266242D02*
D03*
X520000Y283758D02*
D03*
Y266242D02*
D03*
D22*
X615500Y335000D02*
D03*
X634500D02*
D03*
D23*
X625000Y265750D02*
D03*
Y284250D02*
D03*
D24*
X490000Y282272D02*
D03*
Y267728D02*
D03*
D25*
X502242Y380000D02*
D03*
X517758D02*
D03*
D26*
X650000Y266000D02*
D03*
Y284000D02*
D03*
D27*
X575000Y283000D02*
D03*
Y267000D02*
D03*
D28*
X550000Y282500D02*
D03*
Y267500D02*
D03*
D29*
X635000Y310000D02*
D03*
X615000D02*
D03*
X635000Y360000D02*
D03*
X615000D02*
D03*
D30*
X519250Y325000D02*
D03*
X500750D02*
D03*
D31*
X572500Y333500D02*
D03*
X557500D02*
D03*
X572500Y376500D02*
D03*
X557500D02*
D03*
D32*
X581500Y372500D02*
D03*
Y367500D02*
D03*
Y362500D02*
D03*
Y357500D02*
D03*
Y352500D02*
D03*
Y347500D02*
D03*
Y342500D02*
D03*
Y337500D02*
D03*
X548500D02*
D03*
Y342500D02*
D03*
Y347500D02*
D03*
Y352500D02*
D03*
Y357500D02*
D03*
Y362500D02*
D03*
Y367500D02*
D03*
Y372500D02*
D03*
D33*
X634758Y385000D02*
D03*
X615242D02*
D03*
D39*
X565000Y355000D02*
D03*
D49*
Y344000D02*
D03*
Y366000D02*
D03*
X571000Y355000D02*
D03*
X559000D02*
D03*
D50*
X566963Y417258D02*
X567500D01*
X568141Y416617D01*
D51*
X1203725Y197145D02*
D03*
X1135025Y197855D02*
D03*
Y272855D02*
D03*
X1203725Y275895D02*
D03*
X1135025Y350355D02*
D03*
X1203725Y352145D02*
D03*
X1135025Y425355D02*
D03*
X1203725Y427145D02*
D03*
X1135025Y501605D02*
D03*
X1203725Y504645D02*
D03*
Y579645D02*
D03*
X1135025Y580355D02*
D03*
X281275Y130355D02*
D03*
Y205355D02*
D03*
Y282855D02*
D03*
Y357855D02*
D03*
Y434105D02*
D03*
Y512855D02*
D03*
D52*
X575000Y263125D02*
D03*
D53*
X540625Y420000D02*
D03*
D54*
X499375Y367500D02*
D03*
D55*
X638750Y335000D02*
D03*
D56*
X646875Y265625D02*
D03*
D57*
X299010Y600000D02*
D03*
X1187760Y112500D02*
D03*
D58*
X334010Y600000D02*
D03*
X1152760Y112500D02*
D03*
D59*
X701667Y26250D02*
D03*
X623889D02*
D03*
X468333D02*
D03*
X429445D02*
D03*
X585000D02*
D03*
X779445D02*
D03*
X818334D02*
D03*
X740556D02*
D03*
X662778D02*
D03*
X546111D02*
D03*
X507222D02*
D03*
X390556D02*
D03*
X351667D02*
D03*
X312778D02*
D03*
X273889D02*
D03*
X235000D02*
D03*
X857222D02*
D03*
X935000D02*
D03*
X1012778D02*
D03*
X973889D02*
D03*
X1168334D02*
D03*
X1129445D02*
D03*
X1246111D02*
D03*
X1207223D02*
D03*
X1090556D02*
D03*
X1051667D02*
D03*
X1090556D02*
D03*
X1285000D02*
D03*
X896111D02*
D03*
X883015Y676250D02*
D03*
X1257500D02*
D03*
X1070257D02*
D03*
X1032809D02*
D03*
X1070257D02*
D03*
X1182603D02*
D03*
X1220052D02*
D03*
X1107706D02*
D03*
X1145154D02*
D03*
X957912D02*
D03*
X995360D02*
D03*
X920463D02*
D03*
X845566D02*
D03*
X283837D02*
D03*
X246389D02*
D03*
X321286D02*
D03*
X358735D02*
D03*
X396183D02*
D03*
X508529D02*
D03*
X545977D02*
D03*
X658323D02*
D03*
X733220D02*
D03*
X808117D02*
D03*
X770669D02*
D03*
X583426D02*
D03*
X433632D02*
D03*
X471080D02*
D03*
X620874D02*
D03*
X695772D02*
D03*
X750000Y70000D02*
D03*
Y630000D02*
D03*
X1430000D02*
D03*
Y70000D02*
D03*
X70000Y630000D02*
D03*
Y70000D02*
D03*
D60*
X137300Y436500D02*
D03*
X111900D02*
D03*
X86500D02*
D03*
X162700D02*
D03*
X188100D02*
D03*
X213500D02*
D03*
Y461900D02*
D03*
Y487300D02*
D03*
Y512700D02*
D03*
Y538100D02*
D03*
Y563500D02*
D03*
X188100D02*
D03*
X162700D02*
D03*
X137300D02*
D03*
X111900D02*
D03*
X86500D02*
D03*
Y538100D02*
D03*
Y512700D02*
D03*
Y487300D02*
D03*
Y461900D02*
D03*
X111900Y538100D02*
D03*
X137300D02*
D03*
X162700D02*
D03*
X188100D02*
D03*
Y512700D02*
D03*
X162700D02*
D03*
X137300D02*
D03*
X111900D02*
D03*
Y487300D02*
D03*
X137300D02*
D03*
X162700D02*
D03*
X188100D02*
D03*
Y461900D02*
D03*
X162700D02*
D03*
X137300D02*
D03*
X111900D02*
D03*
Y161900D02*
D03*
X137300D02*
D03*
X162700D02*
D03*
X188100D02*
D03*
Y187300D02*
D03*
X162700D02*
D03*
X137300D02*
D03*
X111900D02*
D03*
Y212700D02*
D03*
X137300D02*
D03*
X162700D02*
D03*
X188100D02*
D03*
Y238100D02*
D03*
X162700D02*
D03*
X137300D02*
D03*
X111900D02*
D03*
X86500Y161900D02*
D03*
Y187300D02*
D03*
Y212700D02*
D03*
Y238100D02*
D03*
Y263500D02*
D03*
X111900D02*
D03*
X137300D02*
D03*
X162700D02*
D03*
X188100D02*
D03*
X213500D02*
D03*
Y238100D02*
D03*
Y212700D02*
D03*
Y187300D02*
D03*
Y161900D02*
D03*
Y136500D02*
D03*
X188100D02*
D03*
X162700D02*
D03*
X86500D02*
D03*
X111900D02*
D03*
X137300D02*
D03*
X1311900Y461900D02*
D03*
X1337300D02*
D03*
X1362700D02*
D03*
X1388100D02*
D03*
Y487300D02*
D03*
X1362700D02*
D03*
X1337300D02*
D03*
X1311900D02*
D03*
Y512700D02*
D03*
X1337300D02*
D03*
X1362700D02*
D03*
X1388100D02*
D03*
Y538100D02*
D03*
X1362700D02*
D03*
X1337300D02*
D03*
X1311900D02*
D03*
X1286500Y461900D02*
D03*
Y487300D02*
D03*
Y512700D02*
D03*
Y538100D02*
D03*
Y563500D02*
D03*
X1311900D02*
D03*
X1337300D02*
D03*
X1362700D02*
D03*
X1388100D02*
D03*
X1413500D02*
D03*
Y538100D02*
D03*
Y512700D02*
D03*
Y487300D02*
D03*
Y461900D02*
D03*
Y436500D02*
D03*
X1388100D02*
D03*
X1362700D02*
D03*
X1286500D02*
D03*
X1311900D02*
D03*
X1337300D02*
D03*
X1311900Y161900D02*
D03*
X1337300D02*
D03*
X1362700D02*
D03*
X1388100D02*
D03*
Y187300D02*
D03*
X1362700D02*
D03*
X1337300D02*
D03*
X1311900D02*
D03*
Y212700D02*
D03*
X1337300D02*
D03*
X1362700D02*
D03*
X1388100D02*
D03*
Y238100D02*
D03*
X1362700D02*
D03*
X1337300D02*
D03*
X1311900D02*
D03*
X1286500Y161900D02*
D03*
Y187300D02*
D03*
Y212700D02*
D03*
Y238100D02*
D03*
Y263500D02*
D03*
X1311900D02*
D03*
X1337300D02*
D03*
X1362700D02*
D03*
X1388100D02*
D03*
X1413500D02*
D03*
Y238100D02*
D03*
Y212700D02*
D03*
Y187300D02*
D03*
Y161900D02*
D03*
Y136500D02*
D03*
X1388100D02*
D03*
X1362700D02*
D03*
X1286500D02*
D03*
X1311900D02*
D03*
X1337300D02*
D03*
D61*
X420000Y160000D02*
D03*
Y185500D02*
D03*
Y494500D02*
D03*
Y520000D02*
D03*
D62*
Y211000D02*
D03*
Y545500D02*
D03*
D63*
X1030000Y450000D02*
D03*
X830000Y250000D02*
D03*
D64*
X581250Y325000D02*
D03*
X567500Y257500D02*
D03*
X582500D02*
D03*
X577500D02*
D03*
X572500D02*
D03*
X560000Y325000D02*
D03*
D65*
X1221250Y176250D02*
D03*
X1213750D02*
D03*
X1125000Y176250D02*
D03*
X1117500D02*
D03*
X1213750Y183750D02*
D03*
X1221250D02*
D03*
X1117500Y183750D02*
D03*
X1125000D02*
D03*
X1221250Y191250D02*
D03*
X1117500D02*
D03*
X1125000D02*
D03*
X1213750D02*
D03*
Y198750D02*
D03*
X1221250D02*
D03*
X1117500Y198750D02*
D03*
X1125000D02*
D03*
X1117500Y206250D02*
D03*
X1125000D02*
D03*
X1221250D02*
D03*
X1213750D02*
D03*
Y213750D02*
D03*
X1221250D02*
D03*
X1125000Y213750D02*
D03*
X1117500D02*
D03*
X1213750Y221250D02*
D03*
X1221250D02*
D03*
X1125000Y221250D02*
D03*
X1117500D02*
D03*
X1125000Y250000D02*
D03*
X1117500D02*
D03*
X1213750Y255000D02*
D03*
X1221250D02*
D03*
X1125000Y257500D02*
D03*
X1117500D02*
D03*
X1213750Y262500D02*
D03*
X1221250D02*
D03*
X1117500Y265000D02*
D03*
X1125000D02*
D03*
X1221250Y270000D02*
D03*
X1213750D02*
D03*
X1117500Y272500D02*
D03*
X1125000D02*
D03*
X1221250Y277500D02*
D03*
X1213750D02*
D03*
X1117500Y280000D02*
D03*
X1125000D02*
D03*
X1213750Y285000D02*
D03*
X1221250D02*
D03*
X1125000Y287500D02*
D03*
X1117500D02*
D03*
X1221250Y292500D02*
D03*
X1213750D02*
D03*
X1125000Y295000D02*
D03*
X1117500D02*
D03*
X1221250Y300000D02*
D03*
X1213750D02*
D03*
X1125000Y327500D02*
D03*
X1117500D02*
D03*
X1221250Y331250D02*
D03*
X1213750D02*
D03*
X1125000Y335000D02*
D03*
X1117500D02*
D03*
X1221250Y338750D02*
D03*
X1213750D02*
D03*
X1125000Y342500D02*
D03*
X1117500D02*
D03*
X1213750Y346250D02*
D03*
X1221250D02*
D03*
X1125000Y350000D02*
D03*
X1117500D02*
D03*
X1213750Y353750D02*
D03*
X1221250D02*
D03*
X1125000Y357500D02*
D03*
X1117500D02*
D03*
X1221250Y361250D02*
D03*
X1213750D02*
D03*
X1125000Y365000D02*
D03*
X1117500D02*
D03*
X1221250Y368750D02*
D03*
X1213750D02*
D03*
X1125000Y372500D02*
D03*
X1117500D02*
D03*
X1213750Y376250D02*
D03*
X1221250D02*
D03*
X1125000Y401250D02*
D03*
X1117500D02*
D03*
X1213750Y405000D02*
D03*
X1221250D02*
D03*
X1125000Y408750D02*
D03*
X1117500D02*
D03*
X1221250Y412500D02*
D03*
X1213750D02*
D03*
X1117500Y416250D02*
D03*
X1125000D02*
D03*
X1213750Y420000D02*
D03*
X1221250D02*
D03*
X1125000Y423750D02*
D03*
X1117500D02*
D03*
X1221250Y427500D02*
D03*
X1213750D02*
D03*
X1117500Y431250D02*
D03*
X1125000D02*
D03*
X1213750Y435000D02*
D03*
X1221250D02*
D03*
X1125000Y438750D02*
D03*
X1117500D02*
D03*
X1221250Y442500D02*
D03*
X1213750D02*
D03*
X1125000Y446250D02*
D03*
X1117500D02*
D03*
X1213750Y450000D02*
D03*
X1221250D02*
D03*
X1125000Y477500D02*
D03*
X1117500D02*
D03*
X1213750Y482500D02*
D03*
X1221250D02*
D03*
X1125000Y485000D02*
D03*
X1117500D02*
D03*
X1213750Y490000D02*
D03*
X1221250D02*
D03*
X1125000Y492500D02*
D03*
X1117500D02*
D03*
X1213750Y497500D02*
D03*
X1221250D02*
D03*
X1117500Y500000D02*
D03*
X1125000D02*
D03*
X1213750Y505000D02*
D03*
X1221250D02*
D03*
X1117500Y507500D02*
D03*
X1125000D02*
D03*
X1213750Y512500D02*
D03*
X1221250D02*
D03*
X1117500Y515000D02*
D03*
X1125000D02*
D03*
X1213750Y520000D02*
D03*
X1221250D02*
D03*
X1117500Y522500D02*
D03*
X1125000D02*
D03*
X1221250Y527500D02*
D03*
X1213750D02*
D03*
X1221250Y556250D02*
D03*
X1213750D02*
D03*
X1117500Y556250D02*
D03*
X1125000D02*
D03*
X1221250Y563750D02*
D03*
X1213750D02*
D03*
X1125000Y563750D02*
D03*
X1117500D02*
D03*
X1213750Y571250D02*
D03*
X1117500D02*
D03*
X1125000D02*
D03*
X1221250D02*
D03*
X1213750Y578750D02*
D03*
X1221250D02*
D03*
X1117500Y578750D02*
D03*
X1125000D02*
D03*
X1221250Y586250D02*
D03*
X1125000D02*
D03*
X1117500D02*
D03*
X1213750D02*
D03*
Y593750D02*
D03*
X1221250D02*
D03*
X1117500Y593750D02*
D03*
X1125000D02*
D03*
X1221250Y601250D02*
D03*
X1213750D02*
D03*
X1125000Y601250D02*
D03*
X1117500D02*
D03*
X533750Y427500D02*
D03*
X540000D02*
D03*
X546250D02*
D03*
X492500Y372500D02*
D03*
Y378750D02*
D03*
Y385000D02*
D03*
Y348750D02*
D03*
Y355000D02*
D03*
Y361250D02*
D03*
X638750Y272500D02*
D03*
Y266250D02*
D03*
Y260000D02*
D03*
X646250Y341250D02*
D03*
Y335000D02*
D03*
Y328750D02*
D03*
X607500Y435000D02*
D03*
X595000Y441250D02*
D03*
Y435000D02*
D03*
X613750D02*
D03*
Y428750D02*
D03*
X607500Y441250D02*
D03*
X613750D02*
D03*
X595000Y428750D02*
D03*
X601250Y441250D02*
D03*
Y428750D02*
D03*
X607500D02*
D03*
X601250Y435000D02*
D03*
X271250Y108750D02*
D03*
Y116250D02*
D03*
Y123750D02*
D03*
Y131250D02*
D03*
Y138750D02*
D03*
Y146250D02*
D03*
Y153750D02*
D03*
X263750D02*
D03*
Y146250D02*
D03*
Y138750D02*
D03*
Y131250D02*
D03*
Y123750D02*
D03*
Y116250D02*
D03*
Y108750D02*
D03*
Y182500D02*
D03*
Y190000D02*
D03*
Y197500D02*
D03*
Y205000D02*
D03*
Y212500D02*
D03*
Y220000D02*
D03*
Y227500D02*
D03*
X271250D02*
D03*
Y220000D02*
D03*
Y212500D02*
D03*
Y205000D02*
D03*
Y197500D02*
D03*
Y190000D02*
D03*
Y182500D02*
D03*
X263750Y260000D02*
D03*
Y267500D02*
D03*
Y275000D02*
D03*
Y282500D02*
D03*
Y290000D02*
D03*
Y297500D02*
D03*
Y305000D02*
D03*
X271250D02*
D03*
Y297500D02*
D03*
Y290000D02*
D03*
Y282500D02*
D03*
Y275000D02*
D03*
Y267500D02*
D03*
Y260000D02*
D03*
X263750Y333750D02*
D03*
Y341250D02*
D03*
Y348750D02*
D03*
Y356250D02*
D03*
Y363750D02*
D03*
Y371250D02*
D03*
Y378750D02*
D03*
X271250D02*
D03*
Y371250D02*
D03*
Y363750D02*
D03*
Y356250D02*
D03*
Y348750D02*
D03*
Y341250D02*
D03*
Y333750D02*
D03*
X263750Y410000D02*
D03*
Y417500D02*
D03*
Y425000D02*
D03*
Y432500D02*
D03*
Y440000D02*
D03*
Y447500D02*
D03*
Y455000D02*
D03*
X271250D02*
D03*
Y447500D02*
D03*
Y440000D02*
D03*
Y432500D02*
D03*
Y425000D02*
D03*
Y417500D02*
D03*
Y410000D02*
D03*
X263750Y488750D02*
D03*
Y496250D02*
D03*
Y503750D02*
D03*
Y511250D02*
D03*
Y518750D02*
D03*
Y526250D02*
D03*
Y533750D02*
D03*
X271250D02*
D03*
Y526250D02*
D03*
Y518750D02*
D03*
Y511250D02*
D03*
Y503750D02*
D03*
Y496250D02*
D03*
Y488750D02*
D03*
X606250Y230000D02*
D03*
X600000D02*
D03*
X593750D02*
D03*
X606250Y236250D02*
D03*
X593750D02*
D03*
X600000D02*
D03*
X617500Y225000D02*
D03*
X623750D02*
D03*
X630000D02*
D03*
X636250D02*
D03*
X617500Y231250D02*
D03*
X623750D02*
D03*
X630000D02*
D03*
X636250D02*
D03*
Y237500D02*
D03*
X630000D02*
D03*
X623750D02*
D03*
X617500D02*
D03*
X546250Y313750D02*
D03*
X645000Y360000D02*
D03*
X595000Y330000D02*
D03*
Y380000D02*
D03*
M02*
